<svg width="200" height="514" viewBox="0 0 200 514" fill="none" xmlns="http://www.w3.org/2000/svg">
<g clip-path="url(#clip0_43_937)">
<path opacity="0.21" d="M26.0452 459.072C29.2401 458.361 32.5461 458 35.8682 458H164.022C167.393 458 170.747 458.372 173.986 459.104C213.84 468.114 205.512 514 164.022 514H35.8682C-5.70715 514 -13.9381 467.974 26.0452 459.072Z" fill="#D9D9D9"/>
<path d="M119.496 0C123.956 8.25516e-05 127.538 3.67941 127.418 8.1377L126.075 58.0068C126.06 58.5732 125.983 59.1242 125.855 59.6543H126.185C127.86 59.6543 129.217 61.0122 129.217 62.6865C129.217 64.3608 127.859 65.7178 126.185 65.7178H71.6842C70.0099 65.7178 68.6521 64.3608 68.652 62.6865C68.652 61.0866 69.8915 59.7764 71.4626 59.6631C71.3546 59.2165 71.2828 58.7549 71.2536 58.2812L68.1823 8.41211C67.9015 3.85266 71.5243 0 76.0924 0H119.496Z" fill="#445C8C"/>
<mask id="mask0_43_937" style="mask-type:luminance" maskUnits="userSpaceOnUse" x="0" y="36" width="200" height="478">
<path d="M172.351 175.051C188.637 190.509 197.783 210.704 198.019 231.723L200 408.85V482.733C200 499.775 184.204 513.59 164.72 513.59H35.2793C15.7949 513.59 2.39566e-05 499.775 0 482.733V235.767C5.29785e-05 214.635 9.0152 190.406 25.2812 174.781L66.5986 135.092H66.4355V64.0234H62.3633C53.6027 64.0234 46.5001 57.8125 46.5 50.1504C46.5 42.4882 53.6027 36.2764 62.3633 36.2764H134.828C143.589 36.2764 150.69 42.4882 150.69 50.1504C150.69 57.8125 143.589 64.0234 134.828 64.0234H130.162V135.092H130.25L172.351 175.051Z" fill="white"/>
</mask>
<g mask="url(#mask0_43_937)">
<path d="M71.0676 325.78C67.77 390.539 73.036 432.62 61.678 492.957C66.749 496.753 76.0716 499.006 84.5455 501.263C86.1108 501.679 87.958 497.915 87.9854 492.854C88.0307 484.459 102.58 278.35 113.142 194.441L98.0868 197.471C80.7342 197.003 77.2744 194.618 64.8762 187.793C64.2512 213.712 70.7783 299.852 71.0676 325.78Z" fill="white"/>
<path d="M139.263 183.842C139.444 191.465 122.471 198.032 101.348 198.513C80.2276 198.992 62.6353 192.674 62.4542 185.051C62.2732 177.428 79.5685 171.388 100.691 170.909C121.812 170.43 139.081 176.221 139.263 183.842Z" fill="white"/>
<path d="M139.263 488.988C139.444 496.611 122.471 503.178 101.348 503.659C80.2277 504.138 62.6354 497.82 62.4544 490.197C62.2733 482.574 79.5686 476.534 100.691 476.055C121.812 475.576 139.082 481.367 139.263 488.988Z" fill="white"/>
<path d="M127.871 188.41C125.966 184.846 122.518 182.037 118.316 180.206C113.849 178.259 108.782 177.337 103.71 177.086C98.5683 176.83 93.2854 177.279 88.2944 178.406C85.9026 178.946 83.5548 179.643 81.3184 180.529C78.9612 181.463 76.4104 182.633 74.8363 184.431C74.0543 185.323 73.6409 186.44 74.0821 187.49C74.6176 188.762 76.0031 189.713 77.3139 190.47C80.0368 192.04 83.3784 192.809 86.6661 193.225C90.4008 193.698 94.2395 193.775 98.0122 193.397C101.765 193.02 105.61 192.17 108.883 190.556C110.149 189.929 111.496 189.147 112.224 188.069C112.506 187.652 112.721 187.12 112.742 186.707C112.763 186.329 112.696 186.07 112.498 185.697C112.392 185.497 112.395 185.507 112.232 185.312C112.109 185.165 111.883 184.941 111.805 184.873C111.434 184.559 110.996 184.289 110.549 184.05C109.592 183.54 108.425 183.154 107.312 182.844C103.214 181.705 98.5878 181.401 94.26 181.58C91.9144 181.676 89.1857 181.921 87.1946 182.903C86.3139 183.339 85.6614 183.837 85.279 184.554C84.7625 185.516 85.3253 186.416 86.2062 187.073C88.4883 188.773 91.8762 189.405 94.935 189.237C96.7801 189.136 98.5767 188.757 100.253 188.104C101.158 187.751 103.765 186.678 103.058 185.565C102.747 185.076 101.974 184.902 101.355 184.825C100.358 184.701 99.3418 184.752 98.3352 184.758C97.7769 184.762 97.2659 184.5 97.2112 184.018C97.1654 183.603 97.5862 183.099 98.1482 183.097C100.178 183.084 102.68 182.862 104.251 184.098C105.879 185.38 105.19 187.151 103.659 188.287C102.207 189.366 100.177 190.055 98.3023 190.458C96.24 190.9 94.1142 191.043 92.0067 190.834C88.854 190.522 84.9866 189.317 83.4657 186.91C82.0019 184.596 84.1896 182.294 86.7075 181.237C89.2204 180.182 92.2442 179.944 95.0122 179.889C97.4912 179.84 99.9898 179.953 102.44 180.22C104.96 180.496 107.51 180.996 109.825 181.835C112.089 182.657 114.551 184.039 114.79 186.224C115.105 189.12 111.79 191.181 108.967 192.412C105.092 194.101 100.689 194.944 96.3464 195.206C92.3066 195.448 88.1444 195.262 84.2053 194.556C80.5665 193.904 76.9351 192.726 74.2531 190.597C72.8961 189.519 71.8001 188.162 71.8383 186.557C71.8719 185.118 72.7228 183.797 73.8969 182.728C75.9038 180.901 78.707 179.664 81.4166 178.658C86.5849 176.74 92.2841 175.716 97.9138 175.433C103.699 175.142 109.582 175.627 115.022 177.19C120.13 178.658 124.834 181.212 127.863 184.883C128.62 185.801 129.268 186.78 129.809 187.793C130.335 188.776 128.394 189.388 127.871 188.41Z" fill="#F32639"/>
<path d="M89.2056 355.309C88.9601 380.679 88.0382 419.758 84.5569 444.922C82.0978 462.698 81.741 491.032 81.6886 500.663C108.484 513.067 140.731 492.037 140.731 492.037C136.596 460.575 123.402 366.834 124.212 316.481C124.296 311.258 124.37 306.036 124.419 300.814C124.499 292.037 138.183 195.341 140.069 182.866C128.251 186.688 124.826 187.516 110.28 189.881C99.6853 189.861 90.4696 191.883 79.7867 189.064C85.1396 221.54 87.5683 242.37 88.1673 271.892C88.7757 303.022 89.5073 324.17 89.2056 355.309Z" fill="#EBDAB7"/>
<path d="M129.981 306.066C129.981 306.066 113.426 309.314 100.192 310.164C87.1593 311.002 66.5896 306.404 66.5896 306.404" stroke="#F32639" stroke-width="2.82817"/>
<path d="M130.913 297.989C130.913 297.989 114.669 305.301 101.657 308.926C88.8426 312.497 66.7029 315.897 66.7029 315.897" stroke="#F32639" stroke-width="2.82817"/>
<path d="M130.662 295.993C130.662 295.993 108.826 300.909 95.1066 301.421C81.5962 301.925 67.1684 300.714 67.1684 300.714" stroke="#F32639" stroke-width="2.82817"/>
<path d="M126.533 296.562C134.379 296.092 142.179 294.933 150.05 294.928C150.817 294.928 151.583 294.942 152.347 294.977C152.702 294.994 153.055 295.016 153.409 295.042C153.479 295.047 154.066 295.101 153.703 295.065C153.91 295.086 154.117 295.108 154.323 295.133C155.06 295.222 155.793 295.339 156.515 295.497C156.871 295.574 157.225 295.662 157.575 295.76C157.729 295.804 157.883 295.849 158.035 295.897C158.131 295.928 158.225 295.96 158.32 295.989C158.419 296.023 158.395 296.014 158.249 295.963C158.305 295.982 158.361 296.003 158.416 296.024C159.1 296.278 159.76 296.581 160.38 296.943C160.515 297.021 160.645 297.103 160.777 297.185C160.514 297.021 160.936 297.3 161.002 297.348C161.301 297.567 161.586 297.801 161.856 298.049C161.985 298.169 162.105 298.295 162.23 298.417C162.376 298.56 162.1 298.254 162.224 298.41C162.281 298.482 162.343 298.551 162.4 298.623C162.599 298.875 162.778 299.141 162.933 299.417C162.939 299.427 163.094 299.727 162.999 299.534C162.905 299.343 163.045 299.643 163.051 299.654C163.104 299.777 163.152 299.901 163.195 300.026C163.244 300.165 163.287 300.307 163.324 300.449C163.341 300.512 163.356 300.575 163.37 300.639C163.38 300.681 163.429 301.008 163.405 300.799C163.381 300.575 163.414 300.893 163.416 300.913C163.423 300.977 163.43 301.042 163.434 301.105C163.444 301.234 163.45 301.363 163.452 301.491C163.454 301.653 163.449 301.814 163.439 301.976C163.436 302.04 163.427 302.105 163.423 302.169C163.407 302.448 163.474 301.907 163.421 302.207C163.316 302.799 163.151 303.363 162.931 303.931C162.843 304.158 162.933 303.936 162.95 303.895C162.915 303.973 162.878 304.05 162.841 304.128C162.772 304.266 162.701 304.405 162.625 304.541C162.472 304.816 162.305 305.084 162.126 305.345C162.025 305.49 161.921 305.634 161.812 305.775C161.746 305.861 161.506 306.144 161.699 305.922C161.474 306.18 161.244 306.433 160.996 306.675C160.763 306.903 160.519 307.123 160.264 307.332C160.136 307.437 160.005 307.536 159.875 307.638C159.824 307.678 159.656 307.787 159.903 307.62C159.811 307.682 159.723 307.747 159.631 307.807C159.089 308.169 158.51 308.488 157.9 308.751C157.828 308.782 157.755 308.812 157.681 308.843C157.945 308.734 157.684 308.841 157.617 308.866C157.444 308.933 157.268 308.999 157.092 309.062C156.732 309.19 156.368 309.309 156 309.417C155.325 309.615 154.637 309.777 153.94 309.894C153.872 309.905 153.791 309.927 153.723 309.929C153.763 309.928 154.059 309.885 153.788 309.919C153.627 309.938 153.466 309.959 153.305 309.976C152.971 310.01 152.636 310.035 152.3 310.049C151.682 310.073 151.068 310.053 150.454 310.009C150.113 309.985 150.713 310.043 150.494 310.012C150.428 310.003 150.361 309.997 150.295 309.989C150.146 309.972 149.998 309.952 149.849 309.929C149.539 309.883 149.229 309.826 148.923 309.76C148.327 309.633 147.748 309.466 147.173 309.281C147.084 309.252 146.934 309.242 147.249 309.309C147.19 309.296 147.122 309.264 147.064 309.243C146.927 309.192 146.789 309.14 146.653 309.086C146.364 308.971 146.079 308.85 145.798 308.722C145.258 308.476 144.731 308.205 144.22 307.916C143.96 307.769 143.704 307.618 143.452 307.462C143.325 307.383 143.199 307.302 143.073 307.223C143.031 307.197 142.85 307.076 143.014 307.186C143.195 307.306 142.908 307.114 142.873 307.091C142.357 306.742 141.854 306.375 141.365 305.996C137.394 302.921 134.258 299.11 130.88 295.541C130.492 295.131 130.101 294.725 129.703 294.324C129.197 293.811 128.126 293.872 127.629 294.377C127.065 294.951 127.122 295.685 127.664 296.231C131.248 299.856 134.402 303.832 138.375 307.14C142.338 310.439 147.335 313.085 152.981 312.634C156.128 312.382 159.338 311.377 161.808 309.569C164.137 307.866 165.919 305.32 166.289 302.637C166.498 301.127 166.282 299.679 165.584 298.298C164.884 296.914 163.668 295.825 162.312 294.944C159.646 293.21 156.29 292.613 153.048 292.396C149.57 292.162 146.028 292.351 142.55 292.592C138.26 292.89 133.987 293.369 129.7 293.712C128.628 293.797 127.556 293.874 126.483 293.938C125.718 293.983 124.99 294.561 125.04 295.287C125.087 295.975 125.71 296.609 126.53 296.561L126.533 296.562Z" fill="#F32639"/>
<path d="M124.719 296.088C125.617 297.229 126.492 298.384 127.281 299.589C127.664 300.174 128.027 300.77 128.357 301.38C128.444 301.541 128.529 301.704 128.613 301.867C128.612 301.864 128.71 302.065 128.659 301.959C128.601 301.838 128.72 302.089 128.731 302.112C128.882 302.437 129.023 302.767 129.152 303.1C129.395 303.734 129.594 304.383 129.727 305.043C129.74 305.106 129.751 305.17 129.764 305.233C129.806 305.446 129.747 305.053 129.768 305.269C129.783 305.418 129.807 305.565 129.822 305.714C129.855 306.052 129.868 306.393 129.861 306.734C129.857 306.904 129.849 307.075 129.836 307.245C129.83 307.309 129.822 307.373 129.817 307.436C129.802 307.653 129.855 307.26 129.812 307.474C129.745 307.818 129.683 308.16 129.583 308.499C129.492 308.807 129.379 309.107 129.26 309.407C129.247 309.439 129.161 309.639 129.247 309.446C129.22 309.504 129.193 309.563 129.166 309.621C129.085 309.797 128.998 309.97 128.91 310.143C128.288 311.371 127.564 312.568 127.127 313.864C126.697 315.142 126.647 316.475 126.96 317.769C127.531 320.131 129.392 322.079 131.251 323.721C133.275 325.508 135.455 327.119 137.299 329.069C137.549 329.335 137.734 329.537 137.885 329.708C138.12 329.975 138.35 330.246 138.575 330.52C139.034 331.079 139.479 331.649 139.888 332.239C140.08 332.516 140.263 332.798 140.426 333.091C140.469 333.168 140.512 333.247 140.55 333.326C140.538 333.299 140.482 333.18 140.541 333.318C140.619 333.499 140.69 333.682 140.748 333.87C140.773 333.953 140.794 334.038 140.817 334.121C140.818 334.127 140.863 334.336 140.839 334.206C140.811 334.061 140.852 334.326 140.855 334.358C140.863 334.444 140.868 334.531 140.871 334.617C140.876 334.768 140.865 334.917 140.861 335.068C140.859 335.106 140.833 335.323 140.863 335.105C140.849 335.212 140.826 335.318 140.805 335.423C140.742 335.723 140.656 336.018 140.552 336.308C140.493 336.476 140.428 336.643 140.359 336.809C140.334 336.872 140.307 336.934 140.279 336.997C140.355 336.823 140.235 337.088 140.221 337.118C139.919 337.758 139.576 338.381 139.255 339.013C138.607 340.287 138.111 341.602 138.027 343.005C137.942 344.441 138.48 345.864 139.627 346.865C140.647 347.754 141.993 348.214 143.148 348.932C143.212 348.971 143.274 349.012 143.337 349.052C143.296 349.025 143.11 348.895 143.319 349.043C143.424 349.118 143.529 349.192 143.633 349.269C143.868 349.446 144.096 349.63 144.315 349.823C144.521 350.004 144.718 350.191 144.908 350.385C144.997 350.475 145.082 350.568 145.17 350.66C145.274 350.771 145.13 350.616 145.12 350.604C145.189 350.687 145.261 350.768 145.33 350.852C145.672 351.269 145.982 351.707 146.26 352.163C146.398 352.392 146.52 352.626 146.649 352.86C146.722 352.992 146.623 352.804 146.616 352.791C146.647 352.855 146.677 352.918 146.707 352.983C146.773 353.128 146.837 353.274 146.897 353.42C147.104 353.926 147.274 354.444 147.403 354.971C147.462 355.209 147.51 355.448 147.554 355.689C147.493 355.356 147.564 355.797 147.573 355.863C147.59 356.001 147.604 356.139 147.616 356.278C147.66 356.816 147.664 357.355 147.623 357.893C147.614 358.015 147.602 358.135 147.589 358.257C147.564 358.504 147.588 358.265 147.595 358.221C147.584 358.29 147.575 358.358 147.562 358.427C147.517 358.703 147.459 358.976 147.388 359.246C147.327 359.484 147.256 359.72 147.177 359.953C147.13 360.086 147.082 360.218 147.029 360.351C147.003 360.418 146.826 360.82 146.959 360.527C146.673 361.157 146.756 361.955 147.507 362.289C148.133 362.567 149.163 362.446 149.47 361.772C151.512 357.285 150.442 352.129 146.953 348.534C146.118 347.674 145.118 346.934 144.032 346.342C143.439 346.018 142.812 345.742 142.23 345.403C142.155 345.359 142.081 345.314 142.007 345.269C142.056 345.299 142.197 345.409 141.982 345.25C141.863 345.162 141.746 345.073 141.634 344.976C141.583 344.932 141.325 344.664 141.466 344.832C141.348 344.694 141.268 344.533 141.156 344.392C141.033 344.238 141.221 344.567 141.148 344.389C141.126 344.336 141.102 344.283 141.081 344.23C141.026 344.087 140.992 343.94 140.947 343.795C140.93 343.74 140.911 343.546 140.941 343.801C140.933 343.725 140.923 343.649 140.916 343.572C140.903 343.416 140.899 343.261 140.903 343.106C140.907 342.948 140.918 342.79 140.936 342.632C140.906 342.886 140.962 342.518 140.977 342.442C141.044 342.12 141.133 341.803 141.24 341.49C141.293 341.333 141.352 341.177 141.412 341.022C141.437 340.961 141.591 340.605 141.493 340.821C141.636 340.509 141.795 340.202 141.955 339.895C142.325 339.181 142.695 338.47 143.017 337.738C143.636 336.328 143.943 334.851 143.584 333.36C143.247 331.965 142.299 330.727 141.397 329.588C139.593 327.31 137.477 325.328 135.185 323.453C134.203 322.65 133.222 321.843 132.318 320.967C132.103 320.759 131.893 320.547 131.689 320.331C131.635 320.274 131.402 320.01 131.563 320.197C131.45 320.065 131.336 319.934 131.228 319.801C130.861 319.351 130.526 318.877 130.248 318.377C130.214 318.319 130.033 317.921 130.152 318.204C130.103 318.089 130.049 317.977 130.003 317.862C129.897 317.6 129.809 317.332 129.74 317.059C129.723 316.99 129.707 316.922 129.692 316.854C129.683 316.811 129.647 316.588 129.673 316.766C129.697 316.933 129.674 316.754 129.671 316.727C129.663 316.656 129.655 316.586 129.649 316.515C129.625 316.225 129.631 315.936 129.646 315.646C129.658 315.41 129.647 315.579 129.641 315.633C129.651 315.551 129.666 315.468 129.681 315.387C129.708 315.244 129.741 315.103 129.778 314.962C129.868 314.62 129.985 314.283 130.12 313.953C130.144 313.895 130.169 313.837 130.193 313.778C130.278 313.579 130.117 313.939 130.209 313.743C130.273 313.608 130.338 313.473 130.404 313.34C130.558 313.031 130.719 312.727 130.881 312.423C131.556 311.155 132.251 309.868 132.536 308.477C132.839 307.007 132.78 305.548 132.456 304.093C131.839 301.313 130.218 298.758 128.499 296.429C128.073 295.852 127.633 295.283 127.188 294.717C126.755 294.167 125.886 293.888 125.21 294.302C124.597 294.678 124.261 295.502 124.725 296.091L124.719 296.088Z" fill="#F32639"/>
<path d="M126.143 296.526C126.37 296.637 126.594 296.753 126.813 296.876C126.929 296.942 127.045 297.01 127.157 297.079C127.206 297.109 127.253 297.14 127.302 297.169C127.477 297.273 127.122 297.041 127.287 297.159C127.697 297.451 128.096 297.748 128.469 298.079C128.648 298.237 128.819 298.401 128.987 298.567C129.078 298.657 129.164 298.75 129.253 298.842C129.27 298.86 129.396 298.994 129.284 298.874C129.171 298.752 129.33 298.927 129.349 298.949C129.673 299.322 129.974 299.71 130.252 300.11C130.536 300.516 130.799 300.935 131.042 301.362C131.161 301.57 131.275 301.779 131.386 301.992C131.406 302.032 131.574 302.363 131.51 302.233C131.441 302.093 131.523 302.259 131.532 302.279C131.563 302.346 131.596 302.413 131.626 302.48C132.065 303.413 132.437 304.371 132.769 305.339C133.417 307.227 133.884 309.156 134.445 311.066C135.026 313.041 135.741 314.974 136.694 316.828C137.612 318.61 138.819 320.309 140.409 321.668C141.204 322.347 142.111 322.951 143.081 323.415C144.262 323.982 145.548 324.321 146.845 324.611C147.53 324.763 148.215 324.912 148.885 325.113C148.954 325.134 149.333 325.256 149.19 325.207C149.034 325.153 149.399 325.286 149.455 325.309C149.707 325.41 149.954 325.522 150.195 325.642C150.418 325.755 150.637 325.874 150.851 326.001C150.914 326.038 151.239 326.25 150.987 326.081C151.097 326.155 151.206 326.23 151.313 326.309C151.726 326.61 152.114 326.939 152.471 327.292C152.564 327.384 152.651 327.48 152.743 327.572C152.851 327.681 152.71 327.534 152.698 327.521C152.735 327.562 152.771 327.604 152.808 327.646C152.977 327.843 153.137 328.046 153.289 328.253C153.582 328.655 153.836 329.074 154.067 329.507C154.095 329.559 154.167 329.735 154.061 329.492C154.082 329.542 154.107 329.59 154.129 329.639C154.175 329.738 154.217 329.837 154.258 329.936C154.354 330.169 154.44 330.405 154.517 330.643C154.587 330.864 154.649 331.089 154.701 331.314C154.729 331.436 154.751 331.559 154.778 331.68C154.81 331.831 154.766 331.611 154.764 331.598C154.773 331.669 154.785 331.739 154.794 331.809C154.857 332.302 154.875 332.8 154.845 333.296C154.84 333.403 154.828 333.509 154.819 333.616C154.796 333.876 154.855 333.436 154.809 333.694C154.753 334.021 154.682 334.345 154.599 334.667C154.261 335.962 153.814 337.236 153.808 338.578C153.797 341.102 155.159 343.423 156.702 345.443C157.076 345.934 157.467 346.415 157.859 346.893C158.306 347.436 159.164 347.728 159.855 347.308C160.464 346.937 160.821 346.098 160.343 345.515C159.541 344.538 158.748 343.549 158.078 342.492C157.921 342.245 157.771 341.993 157.63 341.737C157.566 341.62 157.502 341.502 157.441 341.384C157.467 341.436 157.529 341.574 157.419 341.333C157.383 341.253 157.346 341.173 157.311 341.093C157.075 340.55 156.919 340 156.78 339.432C156.743 339.283 156.78 339.433 156.782 339.461C156.77 339.376 156.758 339.291 156.748 339.207C156.735 339.079 156.725 338.951 156.717 338.823C156.703 338.516 156.71 338.21 156.743 337.904C156.724 338.086 156.75 337.854 156.754 337.832C156.766 337.762 156.778 337.693 156.792 337.623C156.824 337.461 156.859 337.299 156.898 337.138C156.977 336.816 157.069 336.496 157.16 336.176C157.489 335.028 157.771 333.874 157.761 332.686C157.731 328.522 154.772 324.403 150.438 322.859C149.04 322.362 147.565 322.128 146.131 321.736C145.956 321.688 145.783 321.635 145.611 321.583C145.606 321.582 145.364 321.504 145.51 321.553C145.642 321.597 145.461 321.536 145.448 321.53C145.197 321.435 144.95 321.337 144.707 321.226C144.23 321.009 143.783 320.755 143.345 320.483C143.551 320.61 143.376 320.503 143.281 320.436C143.177 320.363 143.074 320.288 142.975 320.212C142.772 320.06 142.578 319.902 142.387 319.738C142.018 319.42 141.677 319.079 141.349 318.727C141.511 318.9 141.368 318.746 141.296 318.663C141.215 318.568 141.135 318.471 141.056 318.373C140.897 318.177 140.744 317.978 140.596 317.774C140.307 317.377 140.039 316.968 139.788 316.55C139.657 316.331 139.53 316.108 139.408 315.885C139.355 315.789 139.304 315.692 139.252 315.595C139.211 315.518 139.033 315.161 139.155 315.41C138.935 314.963 138.73 314.509 138.538 314.051C138.145 313.111 137.806 312.155 137.502 311.189C136.899 309.28 136.448 307.333 135.838 305.426C134.597 301.542 132.754 297.531 129.014 295.073C128.55 294.768 128.07 294.487 127.563 294.24C126.898 293.916 125.94 294.125 125.584 294.758C125.229 295.388 125.428 296.177 126.137 296.523L126.143 296.526Z" fill="#F32639"/>
<path d="M124.829 296.229C124.9 295.613 124.938 295.324 125.037 294.684C125.126 294.103 125.227 293.523 125.336 292.944C125.547 291.835 125.796 290.731 126.082 289.635C126.369 288.539 126.692 287.45 127.054 286.37C127.146 286.096 127.253 285.828 127.358 285.558C127.456 285.305 127.213 285.853 127.334 285.608C127.367 285.542 127.396 285.476 127.429 285.41C127.493 285.278 127.561 285.148 127.632 285.018C127.912 284.503 128.24 284.006 128.602 283.532C128.684 283.425 128.763 283.29 128.866 283.197C128.534 283.498 128.918 283.138 128.998 283.049C129.208 282.811 129.427 282.577 129.655 282.352C130.098 281.911 130.57 281.492 131.065 281.098C131.196 280.993 131.328 280.891 131.463 280.79C131.507 280.757 131.553 280.723 131.597 280.689C131.841 280.506 131.327 280.878 131.579 280.703C131.858 280.507 132.137 280.315 132.426 280.132C132.981 279.777 133.557 279.447 134.148 279.144C134.458 278.985 134.772 278.833 135.09 278.689C135.222 278.629 135.356 278.569 135.49 278.512C135.569 278.478 135.651 278.444 135.731 278.411C135.967 278.31 135.41 278.536 135.79 278.387C137.022 277.903 138.307 277.525 139.623 277.282C139.792 277.25 139.96 277.224 140.129 277.195C140.374 277.152 140.011 277.209 139.994 277.213C140.074 277.194 140.165 277.189 140.246 277.178C140.58 277.135 140.916 277.101 141.251 277.077C141.896 277.031 142.545 277.022 143.19 277.055C143.338 277.063 143.487 277.076 143.635 277.085C143.939 277.104 143.265 277.039 143.566 277.079C143.646 277.09 143.726 277.097 143.805 277.107C144.121 277.147 144.434 277.198 144.745 277.261C145.028 277.318 145.307 277.385 145.583 277.462C145.708 277.497 145.832 277.535 145.954 277.574C146.012 277.593 146.128 277.611 146.174 277.647C145.945 277.566 145.9 277.551 146.041 277.602C146.089 277.619 146.137 277.637 146.185 277.656C146.737 277.869 147.266 278.126 147.761 278.43C147.819 278.465 147.91 278.504 147.955 278.552C147.724 278.309 147.796 278.444 147.909 278.526C148.012 278.6 148.116 278.674 148.218 278.751C148.465 278.939 148.7 279.139 148.923 279.349C149.037 279.456 149.144 279.568 149.254 279.679C149.432 279.859 149.368 279.687 149.234 279.653C149.273 279.663 149.338 279.772 149.364 279.802C149.583 280.06 149.785 280.329 149.972 280.606C150.144 280.862 150.302 281.125 150.448 281.392C150.481 281.454 150.512 281.521 150.548 281.582C150.647 281.747 150.406 281.277 150.53 281.545C150.616 281.733 150.702 281.919 150.781 282.11C150.884 282.362 150.979 282.617 151.057 282.878C151.093 282.998 151.124 283.118 151.152 283.239C151.162 283.279 151.17 283.319 151.178 283.358C151.255 283.685 151.146 283.085 151.173 283.307C151.224 283.747 151.236 284.169 151.201 284.611C151.183 284.844 151.264 284.253 151.218 284.48C151.206 284.534 151.2 284.588 151.188 284.642C151.171 284.731 151.15 284.82 151.128 284.908C151.072 285.129 150.995 285.343 150.913 285.557C150.784 285.895 151.055 285.283 150.907 285.57C150.856 285.67 150.805 285.77 150.75 285.867C150.638 286.066 150.513 286.258 150.38 286.444C150.323 286.523 150.262 286.6 150.203 286.679C150.132 286.772 149.977 286.885 150.277 286.593C150.234 286.635 150.198 286.686 150.159 286.73C149.997 286.914 149.826 287.092 149.646 287.264C149.477 287.426 149.301 287.582 149.119 287.734C149.018 287.819 148.914 287.901 148.809 287.983C148.689 288.076 148.306 288.268 148.722 288.055C148.243 288.301 147.812 288.669 147.345 288.94C146.818 289.243 146.274 289.523 145.72 289.782C145.456 289.906 145.189 290.027 144.92 290.143C144.796 290.197 144.671 290.249 144.547 290.301C144.458 290.337 144.189 290.465 144.59 290.284C144.491 290.329 144.385 290.367 144.284 290.406C143.681 290.642 143.072 290.862 142.457 291.068C141.182 291.495 139.885 291.863 138.576 292.191C137.23 292.526 135.873 292.819 134.507 293.076C133.858 293.198 133.207 293.312 132.554 293.418C132.25 293.467 131.946 293.515 131.641 293.56C131.558 293.572 131.476 293.584 131.395 293.598C131.088 293.644 131.763 293.546 131.457 293.588C131.296 293.611 131.134 293.634 130.973 293.656C128.874 293.947 126.758 294.173 124.638 294.26C124.273 294.275 123.906 294.285 123.54 294.287C122.774 294.292 122.055 294.938 122.102 295.631C122.152 296.351 122.768 296.903 123.588 296.898C125.574 296.887 127.565 296.694 129.534 296.459C132.324 296.125 135.104 295.67 137.839 295.057C140.685 294.419 143.476 293.601 146.139 292.486C148.341 291.563 150.574 290.36 152.139 288.659C152.913 287.819 153.526 286.892 153.869 285.846C154.22 284.777 154.21 283.672 153.986 282.591C153.716 281.29 153.049 279.986 152.238 278.89C151.399 277.756 150.335 276.808 149.066 276.06C144.147 273.16 137.384 274.465 132.554 276.969C129.983 278.301 127.699 280.109 126.03 282.312C125.229 283.368 124.628 284.533 124.219 285.751C123.464 288.004 122.873 290.298 122.446 292.615C122.221 293.841 122.045 295.073 121.902 296.307C121.823 296.99 122.664 297.622 123.388 297.575C124.259 297.518 124.743 296.963 124.827 296.231L124.829 296.229Z" fill="#F32639"/>
</g>
<path d="M172.351 175.051C188.637 190.509 197.783 210.704 198.019 231.723L200 408.85V482.733C200 499.775 184.204 513.59 164.72 513.59H35.2793C15.7949 513.59 1.18942e-05 499.775 0 482.733V235.767C5.56465e-05 214.635 9.0152 190.406 25.2812 174.781L66.5986 135.092H66.4355V64.0234H62.3633C53.6027 64.0234 46.5001 57.8125 46.5 50.1504C46.5 42.4882 53.6027 36.2764 62.3633 36.2764H134.828C143.589 36.2764 150.69 42.4882 150.69 50.1504C150.69 57.8125 143.589 64.0234 134.828 64.0234H130.162V135.092H130.25L172.351 175.051Z" fill="#F3F3FF" fill-opacity="0.44"/>
<rect x="68.629" y="60.1675" width="60.5653" height="5.55112" rx="2.77556" fill="#5D95C8"/>
<path d="M81.1569 76.2339V136.304C81.1569 142.513 78.7277 148.476 74.3888 152.917L45.5502 182.436" stroke="white" stroke-opacity="0.44" stroke-width="7.92441" stroke-linecap="round"/>
<path d="M33.6814 196.809L32.9158 197.67C25.1754 206.374 20.8995 217.617 20.8995 229.265V243.741" stroke="white" stroke-opacity="0.44" stroke-width="7.92441" stroke-linecap="round"/>
</g>
<defs>
<clipPath id="clip0_43_937">
<rect width="200" height="514" fill="white"/>
</clipPath>
</defs>
</svg>
