<svg width="200" height="490" viewBox="0 0 200 490" fill="none" xmlns="http://www.w3.org/2000/svg">
<g clip-path="url(#clip0_43_938)">
<path d="M114.125 0C118.635 9.58855e-05 122.236 3.76025 122.042 8.2666L120.956 33.417C120.895 34.8097 120.477 36.1043 119.793 37.2168H122.087C123.132 37.2168 123.979 38.0638 123.979 39.1084C123.979 40.1529 123.132 41 122.087 41H65.3052C64.2607 40.9999 63.4137 40.1528 63.4136 39.1084C63.4136 38.0639 64.2607 37.2169 65.3052 37.2168H66.8989C66.2893 36.2237 65.8895 35.0833 65.7681 33.8535L63.2857 8.70312C62.8256 4.04168 66.4873 0.000167774 71.1714 0H114.125Z" fill="#445C8C"/>
<mask id="mask0_43_938" style="mask-type:luminance" maskUnits="userSpaceOnUse" x="0" y="40" width="200" height="447">
<path d="M172.351 170.47C188.637 184.906 197.783 203.765 198.019 223.393L200 388.802V457.798C200 473.713 184.204 486.614 164.72 486.614H35.2793C15.7948 486.614 -4.05434e-05 473.712 0 457.798V227.169C0.000141169 207.436 9.01528 184.811 25.2813 170.219L66.5986 133.155H66.4355V66.7886H62.3633C53.6027 66.7886 46.501 60.9878 46.501 53.8325C46.501 46.6773 53.6028 40.8765 62.3633 40.8765H134.828C143.589 40.8765 150.69 46.6773 150.69 53.8325C150.69 60.9878 143.589 66.7886 134.828 66.7886H130.162V133.155H130.25L172.351 170.47Z" fill="white"/>
</mask>
<g mask="url(#mask0_43_938)">
<path d="M69.2453 295.536C66.549 342.789 74.6143 374.1 63.7851 418.079C68.9112 420.878 78.2906 422.575 86.818 424.269C88.3932 424.582 90.2117 421.845 90.1912 418.15C90.1571 412.022 102.439 258.764 112.246 197.574L96.7802 191.508C79.3573 191.069 76.8757 191.537 64.1032 195.345C63.7215 214.261 68.7093 276.609 69.2453 295.536Z" fill="white"/>
<path d="M135.664 193.376C135.891 198.822 120.032 203.438 100.237 203.689C80.444 203.938 63.9061 199.348 63.6784 193.903C63.4508 188.457 79.6162 184.218 99.4112 183.969C119.204 183.719 135.436 187.931 135.664 193.376Z" fill="white"/>
<path d="M90.0537 316.144C90.0363 334.941 89.4641 363.891 86.199 382.519C83.8927 395.676 83.7903 416.668 83.8247 423.805C110.815 433.136 142.973 417.722 142.973 417.722C138.541 394.389 133.145 332.316 133.504 295.011C133.541 291.141 133.568 287.273 133.569 283.404C133.57 276.901 137.74 197.872 139.52 188.639C130.222 180.827 124.22 176.716 109.65 178.393C99.0223 178.322 83.9436 180.135 76.237 184.315C81.8996 208.407 87.3924 232.453 88.2596 254.331C89.1507 277.4 90.0754 293.073 90.0537 316.144Z" fill="#EBDAB7"/>
<path d="M130.431 282.05C130.431 282.05 113.913 284.316 100.691 284.862C87.6696 285.4 67.0598 281.961 67.0598 281.961" stroke="#F32639" stroke-width="2.82817"/>
<path d="M131.293 276.181C131.293 276.181 115.119 281.413 102.142 283.981C89.3627 286.509 67.2555 288.864 67.2555 288.864" stroke="#F32639" stroke-width="2.82817"/>
<path d="M131.023 274.722C131.023 274.722 109.242 278.152 95.531 278.45C82.0292 278.743 67.5929 277.795 67.5929 277.795" stroke="#F32639" stroke-width="2.82817"/>
<path d="M126.873 275.12C134.72 274.815 142.514 274.005 150.391 274.04C151.158 274.044 151.925 274.058 152.691 274.087C153.046 274.101 153.399 274.119 153.754 274.14C153.823 274.144 154.412 274.186 154.048 274.158C154.256 274.175 154.463 274.191 154.669 274.211C155.407 274.279 156.142 274.369 156.867 274.488C157.224 274.547 157.579 274.613 157.93 274.686C158.085 274.719 158.239 274.753 158.393 274.789C158.489 274.812 158.583 274.836 158.678 274.858C158.778 274.883 158.754 274.876 158.607 274.838C158.663 274.853 158.719 274.868 158.775 274.884C159.462 275.073 160.126 275.298 160.75 275.566C160.886 275.624 161.017 275.685 161.15 275.745C160.885 275.624 161.31 275.83 161.377 275.866C161.679 276.027 161.966 276.2 162.239 276.384C162.369 276.472 162.49 276.565 162.617 276.655C162.765 276.76 162.486 276.534 162.611 276.649C162.669 276.703 162.731 276.753 162.789 276.807C162.991 276.992 163.173 277.187 163.331 277.391C163.337 277.398 163.496 277.618 163.398 277.477C163.302 277.336 163.446 277.557 163.452 277.565C163.506 277.655 163.556 277.746 163.6 277.838C163.65 277.94 163.695 278.044 163.734 278.148C163.751 278.194 163.767 278.24 163.782 278.287C163.791 278.318 163.844 278.558 163.818 278.405C163.792 278.241 163.829 278.474 163.83 278.488C163.838 278.535 163.845 278.583 163.851 278.629C163.862 278.724 163.87 278.818 163.872 278.912C163.876 279.03 163.873 279.148 163.865 279.266C163.862 279.314 163.854 279.361 163.851 279.408C163.837 279.612 163.899 279.217 163.849 279.436C163.75 279.869 163.591 280.281 163.377 280.696C163.291 280.862 163.379 280.699 163.396 280.67C163.361 280.726 163.326 280.783 163.289 280.839C163.221 280.941 163.152 281.042 163.077 281.141C162.927 281.342 162.763 281.537 162.586 281.727C162.487 281.833 162.384 281.938 162.277 282.041C162.212 282.103 161.975 282.309 162.165 282.147C161.943 282.335 161.715 282.52 161.47 282.695C161.239 282.862 160.997 283.021 160.744 283.173C160.617 283.249 160.487 283.321 160.358 283.395C160.308 283.424 160.141 283.503 160.385 283.382C160.295 283.427 160.206 283.474 160.116 283.518C159.577 283.78 159 284.011 158.393 284.2C158.321 284.223 158.248 284.244 158.175 284.266C158.438 284.188 158.178 284.265 158.111 284.283C157.938 284.331 157.763 284.379 157.588 284.424C157.229 284.516 156.866 284.602 156.499 284.679C155.825 284.82 155.139 284.935 154.443 285.018C154.374 285.026 154.294 285.041 154.226 285.042C154.266 285.042 154.562 285.012 154.29 285.035C154.129 285.049 153.968 285.063 153.807 285.075C153.474 285.098 153.139 285.115 152.803 285.123C152.185 285.138 151.57 285.12 150.955 285.085C150.614 285.066 151.215 285.111 150.995 285.087C150.928 285.08 150.862 285.076 150.795 285.07C150.646 285.056 150.498 285.041 150.348 285.023C150.037 284.988 149.727 284.945 149.42 284.895C148.822 284.799 148.241 284.674 147.664 284.535C147.574 284.514 147.424 284.506 147.74 284.556C147.681 284.547 147.613 284.523 147.554 284.507C147.416 284.469 147.278 284.431 147.141 284.39C146.851 284.305 146.564 284.215 146.281 284.119C145.738 283.937 145.209 283.736 144.694 283.521C144.432 283.413 144.175 283.301 143.921 283.185C143.793 283.127 143.666 283.067 143.539 283.008C143.497 282.989 143.314 282.9 143.48 282.981C143.662 283.069 143.373 282.928 143.337 282.911C142.817 282.652 142.31 282.381 141.817 282.102C137.81 279.83 134.631 277.024 131.213 274.394C130.82 274.092 130.425 273.793 130.023 273.497C129.51 273.119 128.439 273.158 127.948 273.526C127.389 273.943 127.454 274.481 128.001 274.884C131.627 277.556 134.826 280.482 138.836 282.924C142.837 285.36 147.866 287.322 153.512 287.019C156.658 286.85 159.86 286.131 162.313 284.819C164.625 283.583 166.382 281.727 166.724 279.764C166.917 278.66 166.686 277.599 165.972 276.584C165.257 275.567 164.029 274.764 162.663 274.112C159.976 272.829 156.611 272.375 153.364 272.2C149.881 272.012 146.338 272.133 142.861 272.293C138.571 272.49 134.299 272.819 130.012 273.049C128.94 273.106 127.869 273.157 126.795 273.199C126.03 273.228 125.309 273.648 125.366 274.18C125.42 274.684 126.05 275.151 126.871 275.119L126.873 275.12Z" fill="#F32639"/>
<path d="M124.971 274.752C125.883 275.589 126.775 276.437 127.579 277.322C127.969 277.751 128.34 278.188 128.678 278.635C128.768 278.753 128.855 278.872 128.941 278.992C128.939 278.99 129.04 279.137 128.988 279.059C128.928 278.971 129.05 279.155 129.062 279.172C129.217 279.41 129.362 279.652 129.494 279.896C129.746 280.36 129.952 280.835 130.093 281.317C130.106 281.364 130.118 281.41 130.131 281.456C130.176 281.613 130.112 281.325 130.136 281.483C130.153 281.592 130.178 281.699 130.195 281.808C130.231 282.055 130.248 282.304 130.245 282.553C130.243 282.678 130.236 282.802 130.225 282.926C130.22 282.973 130.212 283.019 130.208 283.066C130.195 283.224 130.244 282.937 130.203 283.093C130.14 283.345 130.081 283.594 129.984 283.841C129.897 284.065 129.786 284.284 129.669 284.502C129.657 284.526 129.572 284.672 129.657 284.531C129.631 284.573 129.604 284.616 129.578 284.659C129.498 284.786 129.413 284.912 129.326 285.038C128.714 285.932 128 286.803 127.576 287.747C127.157 288.679 127.121 289.652 127.449 290.599C128.047 292.327 129.936 293.759 131.82 294.967C133.87 296.282 136.076 297.47 137.947 298.904C138.202 299.099 138.389 299.247 138.543 299.373C138.781 299.569 139.015 299.768 139.243 299.97C139.71 300.38 140.163 300.799 140.58 301.232C140.776 301.435 140.963 301.642 141.129 301.857C141.173 301.913 141.217 301.971 141.257 302.029C141.244 302.009 141.186 301.922 141.247 302.023C141.327 302.156 141.401 302.289 141.46 302.427C141.487 302.488 141.509 302.55 141.533 302.611C141.534 302.615 141.582 302.768 141.555 302.673C141.526 302.567 141.569 302.761 141.573 302.784C141.582 302.847 141.588 302.91 141.592 302.974C141.598 303.084 141.589 303.193 141.587 303.303C141.585 303.331 141.562 303.489 141.589 303.33C141.576 303.408 141.555 303.485 141.534 303.562C141.474 303.78 141.391 303.995 141.29 304.207C141.232 304.33 141.169 304.451 141.101 304.572C141.077 304.618 141.05 304.663 141.023 304.709C141.097 304.582 140.98 304.775 140.966 304.797C140.669 305.263 140.332 305.716 140.016 306.176C139.379 307.104 138.895 308.061 138.826 309.086C138.755 310.134 139.31 311.177 140.472 311.913C141.505 312.568 142.862 312.911 144.029 313.44C144.094 313.469 144.157 313.499 144.22 313.529C144.178 313.509 143.991 313.413 144.201 313.522C144.308 313.577 144.414 313.632 144.52 313.689C144.758 313.819 144.988 313.955 145.21 314.097C145.418 314.23 145.619 314.368 145.811 314.51C145.901 314.577 145.988 314.645 146.077 314.713C146.183 314.794 146.036 314.68 146.027 314.672C146.097 314.732 146.169 314.792 146.24 314.853C146.588 315.16 146.904 315.481 147.187 315.816C147.328 315.983 147.454 316.155 147.585 316.327C147.659 316.424 147.559 316.286 147.552 316.276C147.583 316.323 147.614 316.37 147.645 316.417C147.713 316.523 147.778 316.63 147.84 316.737C148.053 317.108 148.23 317.487 148.364 317.873C148.426 318.046 148.476 318.221 148.523 318.398C148.459 318.154 148.535 318.476 148.545 318.525C148.563 318.626 148.579 318.727 148.592 318.828C148.642 319.221 148.651 319.615 148.616 320.008C148.608 320.097 148.597 320.185 148.586 320.273C148.563 320.454 148.585 320.279 148.591 320.247C148.581 320.297 148.572 320.347 148.561 320.397C148.518 320.598 148.463 320.798 148.395 320.995C148.336 321.168 148.267 321.34 148.19 321.51C148.145 321.607 148.097 321.703 148.046 321.8C148.02 321.849 147.846 322.142 147.977 321.929C147.697 322.387 147.789 322.97 148.546 323.218C149.177 323.424 150.21 323.341 150.511 322.85C152.514 319.583 151.385 315.812 147.845 313.169C146.997 312.536 145.985 311.991 144.889 311.553C144.29 311.313 143.658 311.109 143.07 310.858C142.994 310.826 142.919 310.792 142.845 310.759C142.895 310.782 143.037 310.863 142.82 310.746C142.699 310.68 142.58 310.615 142.467 310.544C142.416 310.511 142.154 310.314 142.298 310.438C142.177 310.336 142.095 310.218 141.982 310.115C141.856 310.001 142.048 310.243 141.973 310.112C141.95 310.073 141.926 310.035 141.905 309.996C141.848 309.891 141.811 309.783 141.765 309.677C141.747 309.637 141.726 309.495 141.76 309.682C141.75 309.626 141.739 309.57 141.731 309.514C141.717 309.401 141.711 309.288 141.713 309.174C141.716 309.058 141.726 308.943 141.742 308.828C141.714 309.013 141.767 308.744 141.781 308.689C141.845 308.455 141.93 308.223 142.035 307.996C142.087 307.881 142.144 307.767 142.203 307.655C142.227 307.61 142.379 307.35 142.282 307.508C142.422 307.28 142.578 307.057 142.736 306.834C143.1 306.314 143.463 305.797 143.779 305.264C144.386 304.237 144.678 303.159 144.302 302.068C143.95 301.048 142.985 300.139 142.067 299.303C140.232 297.63 138.086 296.172 135.766 294.791C134.772 294.2 133.779 293.606 132.862 292.961C132.643 292.808 132.43 292.652 132.224 292.493C132.169 292.451 131.932 292.257 132.096 292.395C131.98 292.298 131.865 292.202 131.755 292.104C131.382 291.773 131.041 291.426 130.756 291.059C130.722 291.016 130.536 290.725 130.658 290.932C130.608 290.848 130.552 290.766 130.505 290.682C130.395 290.49 130.304 290.293 130.232 290.094C130.214 290.043 130.198 289.994 130.182 289.944C130.173 289.912 130.134 289.749 130.162 289.879C130.188 290.002 130.162 289.871 130.16 289.851C130.151 289.8 130.141 289.748 130.136 289.696C130.108 289.484 130.111 289.273 130.123 289.061C130.132 288.889 130.123 289.013 130.118 289.052C130.127 288.992 130.141 288.931 130.156 288.872C130.181 288.768 130.213 288.665 130.248 288.563C130.335 288.313 130.448 288.068 130.581 287.828C130.604 287.785 130.629 287.743 130.652 287.7C130.736 287.555 130.577 287.817 130.668 287.674C130.731 287.576 130.794 287.477 130.859 287.381C131.011 287.156 131.169 286.934 131.329 286.713C131.993 285.791 132.677 284.854 132.949 283.84C133.237 282.768 133.162 281.702 132.822 280.637C132.173 278.604 130.52 276.729 128.769 275.02C128.335 274.596 127.887 274.178 127.434 273.762C126.994 273.359 126.119 273.151 125.444 273.45C124.833 273.722 124.505 274.322 124.977 274.754L124.971 274.752Z" fill="#F32639"/>
<path d="M126.42 275.081C126.648 275.164 126.874 275.249 127.095 275.34C127.212 275.389 127.329 275.439 127.443 275.49C127.491 275.512 127.539 275.535 127.588 275.557C127.765 275.634 127.406 275.463 127.573 275.549C127.988 275.765 128.391 275.984 128.768 276.228C128.949 276.344 129.123 276.465 129.293 276.587C129.384 276.653 129.472 276.722 129.562 276.789C129.579 276.802 129.707 276.901 129.594 276.813C129.478 276.723 129.641 276.851 129.66 276.868C129.988 277.142 130.294 277.427 130.577 277.721C130.866 278.019 131.134 278.326 131.382 278.639C131.503 278.792 131.62 278.945 131.733 279.101C131.754 279.131 131.925 279.374 131.86 279.278C131.79 279.175 131.873 279.297 131.882 279.312C131.915 279.361 131.949 279.41 131.98 279.459C132.429 280.143 132.813 280.845 133.155 281.554C133.825 282.937 134.314 284.349 134.896 285.747C135.499 287.193 136.236 288.61 137.212 289.969C138.15 291.276 139.379 292.523 140.987 293.524C141.791 294.024 142.707 294.47 143.684 294.814C144.874 295.234 146.167 295.488 147.47 295.706C148.158 295.821 148.847 295.933 149.52 296.083C149.59 296.099 149.97 296.19 149.827 296.153C149.67 296.113 150.037 296.213 150.094 296.229C150.348 296.305 150.596 296.388 150.839 296.477C151.064 296.56 151.285 296.648 151.5 296.742C151.564 296.769 151.893 296.926 151.637 296.801C151.748 296.855 151.858 296.911 151.967 296.969C152.384 297.191 152.776 297.433 153.138 297.693C153.232 297.761 153.321 297.831 153.414 297.899C153.523 297.979 153.38 297.871 153.368 297.861C153.405 297.892 153.442 297.923 153.48 297.954C153.651 298.098 153.813 298.247 153.968 298.399C154.267 298.694 154.526 299.002 154.762 299.32C154.79 299.358 154.864 299.487 154.755 299.309C154.777 299.345 154.802 299.381 154.825 299.417C154.872 299.489 154.915 299.562 154.958 299.634C155.056 299.805 155.145 299.978 155.225 300.152C155.297 300.314 155.361 300.478 155.416 300.644C155.445 300.733 155.469 300.822 155.497 300.911C155.531 301.021 155.485 300.861 155.483 300.851C155.492 300.903 155.505 300.954 155.515 301.005C155.583 301.366 155.606 301.73 155.582 302.093C155.578 302.171 155.567 302.248 155.559 302.326C155.539 302.516 155.593 302.195 155.55 302.383C155.497 302.622 155.429 302.858 155.349 303.093C155.024 304.038 154.59 304.966 154.598 305.947C154.613 307.791 156.004 309.494 157.572 310.978C157.952 311.338 158.349 311.692 158.747 312.043C159.2 312.442 160.064 312.66 160.752 312.356C161.359 312.088 161.708 311.477 161.223 311.049C160.408 310.33 159.603 309.604 158.92 308.828C158.76 308.647 158.607 308.462 158.463 308.274C158.397 308.188 158.332 308.102 158.27 308.015C158.297 308.053 158.36 308.155 158.247 307.978C158.21 307.919 158.172 307.86 158.136 307.802C157.894 307.404 157.732 307.002 157.586 306.586C157.548 306.476 157.586 306.587 157.589 306.607C157.576 306.545 157.563 306.483 157.552 306.421C157.537 306.328 157.526 306.234 157.517 306.14C157.499 305.916 157.503 305.692 157.533 305.469C157.516 305.602 157.54 305.433 157.543 305.416C157.555 305.366 157.566 305.315 157.579 305.264C157.609 305.146 157.643 305.028 157.681 304.91C157.756 304.675 157.845 304.442 157.932 304.208C158.25 303.371 158.521 302.529 158.498 301.661C158.424 298.618 155.414 295.594 151.053 294.444C149.646 294.074 148.166 293.896 146.723 293.602C146.547 293.566 146.374 293.527 146.201 293.488C146.196 293.487 145.952 293.428 146.099 293.465C146.232 293.498 146.05 293.452 146.036 293.448C145.785 293.378 145.536 293.304 145.291 293.222C144.811 293.061 144.36 292.873 143.917 292.673C144.125 292.766 143.949 292.687 143.853 292.638C143.748 292.584 143.644 292.529 143.543 292.473C143.339 292.361 143.142 292.244 142.95 292.124C142.576 291.889 142.23 291.639 141.899 291.38C142.062 291.507 141.918 291.393 141.845 291.332C141.762 291.262 141.681 291.191 141.601 291.12C141.439 290.975 141.284 290.829 141.133 290.679C140.839 290.388 140.566 290.088 140.311 289.781C140.176 289.62 140.047 289.457 139.922 289.293C139.868 289.222 139.816 289.152 139.763 289.08C139.721 289.024 139.538 288.763 139.664 288.945C139.439 288.617 139.228 288.284 139.031 287.948C138.627 287.26 138.277 286.56 137.962 285.852C137.338 284.454 136.864 283.03 136.232 281.633C134.948 278.789 133.057 275.848 129.283 274.034C128.814 273.808 128.33 273.601 127.819 273.417C127.149 273.177 126.19 273.326 125.84 273.786C125.491 274.245 125.7 274.823 126.414 275.079L126.42 275.081Z" fill="#F32639"/>
<path d="M125.199 274.891C125.263 274.441 125.299 274.23 125.39 273.763C125.474 273.338 125.568 272.914 125.671 272.491C125.871 271.681 126.109 270.874 126.383 270.074C126.659 269.273 126.971 268.479 127.322 267.691C127.41 267.491 127.515 267.295 127.618 267.098C127.713 266.914 127.475 267.313 127.594 267.134C127.626 267.086 127.655 267.038 127.687 266.99C127.75 266.894 127.816 266.799 127.886 266.705C128.161 266.329 128.484 265.967 128.841 265.623C128.922 265.544 129.001 265.446 129.102 265.378C128.773 265.597 129.154 265.336 129.233 265.271C129.441 265.098 129.658 264.928 129.883 264.764C130.322 264.444 130.791 264.14 131.282 263.854C131.412 263.778 131.543 263.704 131.677 263.631C131.721 263.606 131.766 263.582 131.81 263.557C132.053 263.424 131.542 263.694 131.792 263.567C132.069 263.426 132.347 263.286 132.634 263.154C133.186 262.897 133.76 262.658 134.348 262.44C134.656 262.325 134.969 262.215 135.286 262.111C135.418 262.068 135.551 262.025 135.684 261.984C135.764 261.959 135.846 261.935 135.925 261.911C136.161 261.839 135.605 262.001 135.984 261.894C137.213 261.546 138.495 261.276 139.81 261.104C139.979 261.082 140.147 261.064 140.316 261.043C140.56 261.013 140.198 261.053 140.18 261.056C140.26 261.042 140.351 261.039 140.432 261.032C140.766 261.001 141.102 260.978 141.438 260.963C142.083 260.932 142.733 260.929 143.379 260.956C143.527 260.963 143.677 260.973 143.825 260.98C144.13 260.996 143.454 260.945 143.756 260.976C143.836 260.984 143.916 260.989 143.995 260.997C144.312 261.028 144.626 261.066 144.938 261.114C145.222 261.157 145.503 261.208 145.779 261.266C145.905 261.292 146.029 261.32 146.152 261.349C146.211 261.363 146.327 261.377 146.373 261.404C146.142 261.344 146.098 261.332 146.239 261.37C146.288 261.383 146.336 261.397 146.384 261.41C146.939 261.569 147.471 261.76 147.971 261.984C148.028 262.01 148.12 262.039 148.166 262.074C147.933 261.895 148.005 261.994 148.119 262.055C148.223 262.11 148.329 262.164 148.431 262.222C148.681 262.36 148.919 262.507 149.143 262.662C149.259 262.741 149.368 262.824 149.479 262.906C149.658 263.038 149.593 262.912 149.459 262.886C149.497 262.893 149.564 262.973 149.59 262.996C149.812 263.186 150.018 263.383 150.207 263.587C150.382 263.775 150.543 263.968 150.692 264.164C150.726 264.21 150.758 264.259 150.794 264.303C150.895 264.425 150.649 264.08 150.776 264.276C150.864 264.414 150.952 264.551 151.033 264.691C151.139 264.876 151.237 265.063 151.318 265.254C151.355 265.342 151.388 265.43 151.417 265.518C151.427 265.548 151.435 265.577 151.444 265.606C151.524 265.845 151.409 265.406 151.438 265.568C151.494 265.89 151.51 266.199 151.48 266.522C151.465 266.693 151.54 266.261 151.496 266.427C151.485 266.466 151.479 266.506 151.468 266.545C151.452 266.61 151.432 266.675 151.411 266.739C151.357 266.901 151.282 267.057 151.202 267.213C151.077 267.46 151.341 267.014 151.196 267.223C151.146 267.295 151.097 267.368 151.042 267.439C150.933 267.584 150.809 267.724 150.677 267.859C150.621 267.917 150.562 267.973 150.503 268.03C150.433 268.098 150.279 268.18 150.576 267.968C150.534 267.998 150.498 268.035 150.46 268.067C150.299 268.201 150.13 268.33 149.952 268.455C149.784 268.573 149.609 268.687 149.429 268.797C149.328 268.858 149.226 268.918 149.122 268.978C149.002 269.045 148.621 269.183 149.035 269.03C148.558 269.207 148.131 269.474 147.666 269.67C147.141 269.889 146.599 270.091 146.048 270.278C145.785 270.368 145.518 270.454 145.251 270.538C145.126 270.577 145.002 270.614 144.878 270.652C144.79 270.678 144.522 270.77 144.921 270.64C144.823 270.672 144.717 270.699 144.616 270.727C144.015 270.897 143.407 271.055 142.794 271.203C141.522 271.508 140.227 271.771 138.92 272.005C137.576 272.244 136.22 272.451 134.856 272.632C134.207 272.718 133.556 272.798 132.904 272.873C132.6 272.908 132.296 272.941 131.991 272.973C131.908 272.981 131.826 272.99 131.745 272.999C131.438 273.031 132.113 272.963 131.807 272.992C131.646 273.008 131.484 273.024 131.323 273.04C129.225 273.242 127.109 273.397 124.986 273.45C124.621 273.46 124.254 273.465 123.888 273.465C123.121 273.464 122.407 273.933 122.462 274.44C122.519 274.967 123.142 275.374 123.963 275.375C125.951 275.376 127.943 275.245 129.912 275.083C132.702 274.852 135.481 274.533 138.213 274.098C141.055 273.645 143.841 273.06 146.496 272.258C148.691 271.594 150.913 270.725 152.463 269.488C153.228 268.877 153.832 268.203 154.165 267.439C154.505 266.659 154.483 265.85 154.247 265.059C153.963 264.105 153.281 263.148 152.458 262.343C151.606 261.509 150.53 260.81 149.252 260.257C144.295 258.112 137.538 259.033 132.728 260.841C130.169 261.803 127.901 263.114 126.253 264.718C125.463 265.486 124.873 266.335 124.477 267.224C123.744 268.868 123.178 270.543 122.775 272.236C122.562 273.132 122.399 274.032 122.269 274.934C122.197 275.433 123.046 275.9 123.771 275.869C124.641 275.831 125.12 275.428 125.196 274.893L125.199 274.891Z" fill="#F32639"/>
<path d="M144.971 416.582C145.236 422.723 127.093 427.922 104.444 428.197C81.7961 428.47 62.8695 423.287 62.6047 417.146C62.3399 411.005 80.8332 406.233 103.483 405.959C126.13 405.686 144.706 410.443 144.971 416.582Z" fill="#C4BAAB"/>
</g>
<path d="M154.604 168.718C158.633 174.601 163.487 179.857 168.395 185.03C180.913 198.227 190.095 214.094 190.292 230.499V450.497C190.292 465.04 177.102 477.066 159.96 479.031C156.697 479.405 153.437 479.822 150.284 480.743C140.438 483.619 117.256 489.843 100.51 489.997C82.7642 490.161 58.0549 483.641 47.8643 480.708C44.7478 479.811 41.5222 479.404 38.2998 479.039C21.1274 477.096 7.90524 465.057 7.90527 450.497V230.499C7.90527 212.717 15.2251 192.587 28.5742 178.103C31.4999 174.928 34.5677 171.877 37.3193 168.551L66.5986 133.155H66.4355V68.7891H62.3633C53.6027 68.7891 46.5 53.9883 46.5 46.833C46.5001 39.6778 53.6028 33.877 62.3633 33.877H134.828C143.589 33.877 150.69 39.6778 150.69 46.833C150.69 53.9883 143.589 68.7891 134.828 68.7891H130.162V133.155H130.25L154.604 168.718Z" fill="#F3F3FF" fill-opacity="0.44"/>
<path d="M68.8889 54.0273C68.8889 52.8299 69.6821 51.7842 70.843 51.4907C75.8923 50.214 89.6578 46.9781 99.3807 46.9995C108.959 47.0206 122.504 50.2203 127.503 51.4894C128.663 51.7838 129.454 52.8289 129.454 54.0255V54.0255C129.454 55.6745 127.97 56.931 126.341 56.676C120.62 55.7806 108.212 54.0121 99.3807 53.9995C90.4063 53.9866 77.7843 55.7766 72.0025 56.6779C70.3737 56.9318 68.8889 55.6757 68.8889 54.0273V54.0273Z" fill="#5D95C8"/>
<path d="M81.157 78.1909V133.169C81.157 139.66 78.5028 145.869 73.8107 150.354L45.5503 177.368" stroke="white" stroke-opacity="0.44" stroke-width="7.92441" stroke-linecap="round"/>
<path d="M33.6812 190.79V190.79C25.476 199.406 20.8994 210.849 20.8994 222.747V234.617" stroke="white" stroke-opacity="0.44" stroke-width="7.92441" stroke-linecap="round"/>
<ellipse opacity="0.55" cx="98.8161" cy="452.997" rx="90.9108" ry="36.9998" fill="#D9D9D9"/>
</g>
<defs>
<clipPath id="clip0_43_938">
<rect width="200" height="490" fill="white"/>
</clipPath>
</defs>
</svg>
