<svg width="200" height="462" viewBox="0 0 200 462" fill="none" xmlns="http://www.w3.org/2000/svg">
<g clip-path="url(#clip0_43_939)">
<path d="M113.866 0C118.409 8.46174e-05 122.022 3.8121 121.779 8.34863L120.858 25.5273C120.768 27.2082 120.158 28.7428 119.19 29.9805H122.284C123.126 29.9806 123.808 30.6625 123.808 31.5039C123.807 32.3451 123.125 33.0272 122.284 33.0273H64.7656C63.9243 33.0273 63.2423 32.3452 63.2422 31.5039C63.2422 30.6625 63.9242 29.9806 64.7656 29.9805H67.0693C66.2086 28.8798 65.6299 27.5412 65.4492 26.0664L63.3438 8.88867C62.765 4.16522 66.4512 0 71.21 0H113.866Z" fill="#445C8C"/>
<mask id="mask0_43_939" style="mask-type:luminance" maskUnits="userSpaceOnUse" x="0" y="15" width="200" height="448">
<path d="M172.351 145.592C188.637 160.04 197.783 178.914 198.019 198.559L200 364.107V433.161C200 449.088 184.204 462 164.72 462H35.2793C15.7948 462 -4.05434e-05 449.088 0 433.161V202.339C0 182.589 9.01515 159.944 25.2813 145.34L66.5986 108.246H66.4355V41.8237H62.3633C53.6027 41.8237 46.501 36.0182 46.501 28.8569C46.5011 21.6958 53.6028 15.8901 62.3633 15.8901H134.828C143.589 15.8901 150.69 21.6958 150.69 28.8569C150.69 36.0182 143.589 41.8237 134.828 41.8237H130.162V108.246H130.25L172.351 145.592Z" fill="white"/>
</mask>
<g mask="url(#mask0_43_939)">
<path d="M77.1001 245.235C75.0284 278.794 72.7111 300.761 62.4067 331.933C67.6058 333.96 80.59 340.979 89.1983 342.246C90.7885 342.48 92.5821 340.549 92.5112 337.923C92.3936 333.568 112.908 232.402 121.948 188.992L103.595 184.543C86.0476 184.103 90.2172 184.146 77.4097 186.757C77.2827 200.197 76.3028 231.781 77.1001 245.235Z" fill="white"/>
<path d="M131.815 192.631C131.765 195.383 119.364 196.533 104.113 195.201C88.8636 193.867 76.3206 190.343 76.3703 187.591C76.4201 184.838 89.0413 183.9 104.292 185.234C119.542 186.567 131.864 189.879 131.815 192.631Z" fill="#EFE5D7"/>
<path d="M90.4302 273.17C90.7328 285.204 90.6507 303.734 87.6866 315.63C85.5928 324.033 85.8475 337.472 86.0035 342.041C113.287 348.261 152.813 332.602 152.813 332.602C147.962 317.622 134.011 283.917 133.737 260.036C133.708 257.559 133.669 255.083 133.605 252.606C133.495 248.442 130.174 197.394 131.805 191.499C122.328 186.412 122.871 188.487 107.778 185.156C97.0964 185.014 86.3572 185.556 78.6835 188.162C84.7845 203.637 86.3305 219.564 87.5745 233.579C88.8629 248.357 90.0592 258.4 90.4302 273.17Z" fill="#EBDAB7"/>
<path d="M130.964 239.593C130.964 239.593 116.581 240.524 105.05 240.716C93.6953 240.904 75.6651 239.324 75.6651 239.324" stroke="#F32639" stroke-width="2.82817"/>
<path d="M131.652 236.984C131.652 236.984 117.601 239.255 106.305 240.35C95.1806 241.429 75.9106 242.396 75.9106 242.396" stroke="#F32639" stroke-width="2.82817"/>
<path d="M131.399 236.323C131.399 236.323 112.439 237.712 100.479 237.791C88.701 237.869 76.0909 237.415 76.0909 237.415" stroke="#F32639" stroke-width="2.82817"/>
<path d="M127.676 237.639C131.433 243.855 135.5 249.868 139.045 256.216C139.39 256.834 139.728 257.455 140.055 258.081C140.207 258.371 140.355 258.661 140.502 258.953C140.531 259.01 140.769 259.497 140.623 259.196C140.706 259.368 140.789 259.54 140.869 259.712C141.158 260.328 141.432 260.948 141.681 261.568C141.804 261.875 141.921 262.181 142.031 262.487C142.08 262.622 142.127 262.757 142.173 262.892C142.201 262.976 142.228 263.06 142.256 263.143C142.285 263.232 142.279 263.21 142.237 263.08C142.253 263.13 142.268 263.18 142.283 263.23C142.469 263.842 142.62 264.449 142.726 265.036C142.748 265.164 142.767 265.288 142.787 265.415C142.748 265.163 142.804 265.571 142.81 265.636C142.84 265.93 142.855 266.216 142.858 266.494C142.858 266.627 142.852 266.754 142.849 266.885C142.846 267.038 142.87 266.741 142.85 266.878C142.841 266.942 142.836 267.008 142.827 267.072C142.795 267.293 142.748 267.502 142.685 267.694C142.683 267.701 142.609 267.898 142.658 267.775C142.708 267.653 142.627 267.839 142.624 267.846C142.589 267.919 142.551 267.988 142.51 268.052C142.465 268.125 142.417 268.194 142.365 268.259C142.342 268.288 142.319 268.315 142.294 268.342C142.278 268.36 142.143 268.478 142.233 268.409C142.33 268.335 142.192 268.439 142.183 268.445C142.156 268.466 142.128 268.487 142.099 268.506C142.041 268.545 141.982 268.581 141.921 268.614C141.844 268.654 141.765 268.69 141.683 268.72C141.65 268.733 141.615 268.742 141.582 268.754C141.441 268.808 141.731 268.732 141.563 268.762C141.231 268.821 140.886 268.823 140.514 268.783C140.365 268.767 140.513 268.786 140.54 268.79C140.487 268.781 140.433 268.77 140.379 268.758C140.281 268.736 140.183 268.712 140.083 268.684C139.882 268.627 139.678 268.557 139.472 268.476C139.357 268.43 139.241 268.38 139.124 268.327C139.053 268.294 138.809 268.169 139.003 268.271C138.778 268.152 138.552 268.027 138.324 267.886C138.11 267.753 137.894 267.609 137.679 267.454C137.571 267.376 137.464 267.295 137.357 267.214C137.315 267.183 137.187 267.074 137.378 267.232C137.307 267.173 137.236 267.117 137.166 267.058C136.748 266.708 136.334 266.318 135.933 265.89C135.886 265.839 135.838 265.787 135.791 265.736C135.961 265.922 135.793 265.737 135.75 265.689C135.64 265.566 135.529 265.44 135.42 265.313C135.196 265.054 134.975 264.789 134.758 264.518C134.359 264.021 133.972 263.505 133.602 262.972C133.565 262.919 133.518 262.86 133.487 262.805C133.506 262.837 133.659 263.066 133.521 262.855C133.439 262.73 133.356 262.605 133.276 262.479C133.11 262.218 132.947 261.954 132.789 261.686C132.499 261.193 132.233 260.693 131.977 260.187C131.836 259.907 132.077 260.404 131.994 260.22C131.968 260.164 131.941 260.109 131.915 260.054C131.856 259.929 131.799 259.805 131.743 259.68C131.626 259.418 131.514 259.154 131.408 258.892C131.201 258.38 131.02 257.872 130.851 257.364C130.825 257.285 130.762 257.162 130.871 257.432C130.851 257.382 130.836 257.319 130.82 257.267C130.783 257.144 130.746 257.021 130.71 256.898C130.635 256.637 130.565 256.377 130.501 256.119C130.376 255.624 130.269 255.135 130.178 254.652C130.131 254.407 130.089 254.164 130.051 253.923C130.031 253.801 130.013 253.68 129.995 253.559C129.989 253.519 129.965 253.343 129.986 253.503C130.01 253.678 129.973 253.4 129.968 253.366C129.904 252.865 129.854 252.371 129.816 251.885C129.507 247.938 129.928 244.487 130.123 240.899C130.145 240.487 130.165 240.073 130.179 239.655C130.197 239.123 129.686 238.274 129.22 237.995C128.69 237.679 128.362 237.902 128.344 238.471C128.214 242.239 127.723 245.745 127.92 249.749C128.118 253.743 129.095 258.414 131.853 262.86C133.39 265.338 135.318 267.685 137.298 269.24C139.165 270.707 141.191 271.53 142.648 271.18C143.467 270.983 144.066 270.459 144.416 269.562C144.766 268.662 144.742 267.419 144.556 266.112C144.19 263.542 142.966 260.689 141.611 258.022C140.158 255.16 138.474 252.348 136.792 249.601C134.719 246.212 132.565 242.88 130.471 239.504C129.948 238.66 129.429 237.814 128.915 236.964C128.548 236.358 127.944 235.911 127.617 236.126C127.307 236.33 127.283 236.986 127.675 237.636L127.676 237.639Z" fill="#F32639"/>
<path d="M126.608 235.769C126.461 236.802 126.297 237.821 126.068 238.779C125.956 239.244 125.83 239.695 125.682 240.123C125.642 240.236 125.602 240.347 125.56 240.457C125.561 240.456 125.507 240.587 125.536 240.519C125.568 240.44 125.499 240.602 125.493 240.617C125.402 240.824 125.304 241.024 125.199 241.214C124.998 241.575 124.768 241.902 124.502 242.177C124.477 242.204 124.45 242.228 124.425 242.255C124.339 242.344 124.506 242.196 124.409 242.268C124.342 242.317 124.28 242.374 124.213 242.423C124.06 242.535 123.897 242.63 123.724 242.709C123.638 242.749 123.549 242.784 123.458 242.815C123.424 242.826 123.388 242.835 123.355 242.848C123.24 242.888 123.46 242.835 123.333 242.852C123.131 242.882 122.932 242.915 122.716 242.916C122.521 242.917 122.318 242.896 122.113 242.872C122.091 242.869 121.951 242.846 122.088 242.87C122.047 242.863 122.004 242.854 121.963 242.847C121.837 242.822 121.711 242.793 121.584 242.763C120.681 242.548 119.746 242.241 118.897 242.198C118.06 242.156 117.374 242.446 116.877 243.029C115.97 244.093 115.874 246.131 115.929 248.092C115.989 250.226 116.21 252.448 116.104 254.472C116.09 254.748 116.076 254.952 116.061 255.121C116.039 255.383 116.012 255.643 115.981 255.898C115.918 256.421 115.843 256.934 115.742 257.423C115.694 257.652 115.64 257.875 115.57 258.083C115.552 258.139 115.533 258.194 115.512 258.246C115.519 258.229 115.552 258.153 115.511 258.236C115.457 258.346 115.4 258.451 115.334 258.546C115.305 258.588 115.272 258.626 115.241 258.666C115.239 258.669 115.156 258.759 115.209 258.706C115.268 258.647 115.156 258.746 115.141 258.757C115.102 258.785 115.061 258.81 115.02 258.834C114.947 258.876 114.868 258.904 114.791 258.938C114.771 258.946 114.651 258.979 114.773 258.949C114.714 258.964 114.651 258.971 114.588 258.98C114.41 259.002 114.223 259.003 114.03 258.989C113.918 258.981 113.805 258.968 113.69 258.952C113.647 258.946 113.603 258.94 113.559 258.932C113.681 258.952 113.493 258.918 113.472 258.914C113.012 258.82 112.541 258.689 112.076 258.578C111.139 258.353 110.253 258.266 109.516 258.544C108.762 258.83 108.306 259.633 108.346 260.839C108.382 261.912 108.785 263.152 108.969 264.294C108.98 264.357 108.989 264.419 108.998 264.481C108.992 264.441 108.97 264.253 108.994 264.464C109.006 264.571 109.018 264.677 109.029 264.783C109.051 265.023 109.066 265.259 109.073 265.49C109.08 265.707 109.079 265.919 109.072 266.125C109.068 266.222 109.062 266.316 109.057 266.412C109.051 266.527 109.06 266.368 109.062 266.357C109.053 266.435 109.046 266.515 109.037 266.593C108.99 266.983 108.918 267.351 108.821 267.696C108.772 267.868 108.713 268.029 108.657 268.194C108.625 268.288 108.673 268.159 108.676 268.15C108.658 268.191 108.641 268.232 108.623 268.274C108.582 268.365 108.539 268.454 108.495 268.541C108.34 268.839 108.162 269.11 107.96 269.349C107.87 269.457 107.773 269.556 107.674 269.653C107.811 269.52 107.626 269.689 107.597 269.713C107.536 269.761 107.474 269.807 107.41 269.852C107.164 270.022 106.897 270.159 106.611 270.259C106.546 270.281 106.48 270.301 106.414 270.321C106.279 270.361 106.409 270.322 106.435 270.317C106.395 270.325 106.357 270.334 106.317 270.341C106.158 270.371 105.995 270.391 105.828 270.399C105.681 270.407 105.53 270.406 105.377 270.398C105.289 270.392 105.201 270.385 105.11 270.374C105.064 270.368 104.781 270.32 104.989 270.359C104.542 270.276 104.184 270.544 104.371 271.255C104.525 271.846 105.069 272.676 105.548 272.765C108.736 273.356 110.798 271.18 110.951 267.373C110.987 266.462 110.886 265.443 110.672 264.389C110.555 263.813 110.398 263.221 110.294 262.65C110.28 262.577 110.268 262.503 110.256 262.431C110.264 262.48 110.275 262.624 110.253 262.405C110.241 262.284 110.231 262.164 110.226 262.046C110.224 261.993 110.236 261.711 110.219 261.871C110.233 261.738 110.275 261.631 110.293 261.502C110.312 261.361 110.236 261.6 110.29 261.494C110.306 261.463 110.322 261.43 110.338 261.399C110.384 261.318 110.441 261.252 110.492 261.179C110.511 261.151 110.598 261.087 110.486 261.176C110.52 261.15 110.553 261.123 110.588 261.097C110.659 261.049 110.734 261.006 110.814 260.971C110.894 260.935 110.978 260.905 111.065 260.881C110.925 260.919 111.134 260.875 111.179 260.868C111.37 260.844 111.569 260.839 111.775 260.851C111.878 260.856 111.983 260.866 112.089 260.879C112.13 260.884 112.38 260.925 112.226 260.896C112.449 260.938 112.676 260.994 112.904 261.051C113.432 261.184 113.959 261.315 114.474 261.402C115.465 261.569 116.344 261.458 116.917 260.788C117.453 260.16 117.624 259.061 117.768 258.024C118.054 255.951 118.048 253.691 117.906 251.311C117.845 250.291 117.787 249.272 117.798 248.299C117.801 248.068 117.808 247.839 117.82 247.616C117.823 247.556 117.845 247.296 117.827 247.477C117.84 247.35 117.852 247.222 117.867 247.098C117.919 246.68 117.998 246.283 118.116 245.926C118.129 245.884 118.242 245.634 118.157 245.803C118.191 245.734 118.222 245.661 118.257 245.594C118.338 245.44 118.43 245.299 118.533 245.175C118.559 245.143 118.586 245.113 118.613 245.083C118.63 245.065 118.724 244.98 118.648 245.046C118.576 245.107 118.654 245.043 118.666 245.034C118.698 245.01 118.728 244.985 118.761 244.964C118.894 244.871 119.041 244.804 119.192 244.745C119.315 244.696 119.225 244.729 119.196 244.737C119.242 244.725 119.29 244.717 119.337 244.71C119.421 244.697 119.506 244.689 119.594 244.685C119.806 244.675 120.028 244.689 120.256 244.72C120.296 244.725 120.336 244.732 120.377 244.737C120.516 244.759 120.261 244.714 120.402 244.742C120.499 244.762 120.597 244.782 120.694 244.804C120.919 244.856 121.146 244.915 121.374 244.975C122.321 245.224 123.287 245.484 124.112 245.377C124.984 245.265 125.682 244.852 126.254 244.22C127.347 243.014 127.858 241.026 128.21 239.011C128.298 238.511 128.374 238.003 128.447 237.49C128.518 236.992 128.249 236.197 127.726 235.735C127.251 235.316 126.684 235.241 126.609 235.775L126.608 235.769Z" fill="#F32639"/>
<path d="M127.035 237.111C127.085 237.325 127.131 237.538 127.172 237.748C127.193 237.86 127.213 237.972 127.231 238.081C127.239 238.129 127.245 238.175 127.253 238.222C127.283 238.393 127.233 238.043 127.251 238.208C127.297 238.617 127.334 239.018 127.344 239.407C127.348 239.592 127.347 239.774 127.342 239.953C127.34 240.049 127.334 240.143 127.33 240.239C127.329 240.257 127.32 240.394 127.328 240.272C127.336 240.149 127.324 240.323 127.321 240.344C127.287 240.702 127.234 241.045 127.166 241.373C127.097 241.706 127.012 242.025 126.914 242.331C126.866 242.479 126.816 242.625 126.762 242.768C126.752 242.795 126.666 243.014 126.7 242.93C126.738 242.838 126.693 242.946 126.688 242.959C126.669 243.001 126.652 243.045 126.633 243.086C126.375 243.676 126.075 244.218 125.751 244.729C125.12 245.728 124.385 246.586 123.703 247.518C122.997 248.482 122.375 249.545 121.902 250.786C121.447 251.979 121.167 253.39 121.232 255.033C121.264 255.853 121.385 256.747 121.604 257.66C121.87 258.77 122.296 259.911 122.753 261.049C122.994 261.649 123.237 262.25 123.447 262.85C123.469 262.912 123.583 263.254 123.542 263.124C123.496 262.983 123.599 263.315 123.613 263.367C123.68 263.6 123.739 263.83 123.791 264.058C123.839 264.269 123.881 264.479 123.917 264.685C123.928 264.746 123.974 265.066 123.941 264.817C123.955 264.925 123.968 265.033 123.979 265.141C124.021 265.555 124.038 265.954 124.029 266.335C124.026 266.434 124.019 266.53 124.016 266.628C124.013 266.744 124.02 266.591 124.021 266.578C124.017 266.619 124.014 266.659 124.01 266.7C123.991 266.887 123.965 267.068 123.933 267.244C123.87 267.585 123.781 267.897 123.674 268.193C123.661 268.229 123.608 268.332 123.679 268.184C123.664 268.214 123.651 268.247 123.638 268.277C123.61 268.338 123.581 268.398 123.551 268.456C123.481 268.592 123.404 268.721 123.322 268.843C123.245 268.955 123.163 269.061 123.076 269.16C123.029 269.212 122.979 269.261 122.931 269.313C122.872 269.377 122.96 269.286 122.965 269.282C122.935 269.306 122.906 269.333 122.875 269.358C122.662 269.531 122.424 269.668 122.166 269.766C122.111 269.788 122.053 269.805 121.997 269.824C121.858 269.869 122.102 269.808 121.954 269.834C121.766 269.869 121.574 269.89 121.377 269.901C120.583 269.942 119.749 269.888 119.085 270.213C117.835 270.826 117.321 272.518 117.037 274.284C116.968 274.712 116.912 275.152 116.857 275.592C116.796 276.093 117.048 276.871 117.574 277.335C118.038 277.745 118.616 277.832 118.683 277.296C118.794 276.395 118.915 275.5 119.127 274.689C119.176 274.498 119.231 274.313 119.292 274.134C119.32 274.053 119.349 273.971 119.379 273.892C119.366 273.926 119.326 274.011 119.394 273.861C119.417 273.812 119.439 273.761 119.462 273.713C119.621 273.386 119.82 273.122 120.035 272.868C120.092 272.801 120.035 272.868 120.022 272.877C120.058 272.846 120.095 272.815 120.132 272.786C120.189 272.744 120.247 272.704 120.307 272.666C120.451 272.579 120.606 272.51 120.771 272.461C120.673 272.49 120.8 272.455 120.812 272.452C120.852 272.445 120.892 272.438 120.933 272.432C121.027 272.418 121.123 272.408 121.22 272.4C121.416 272.385 121.616 272.382 121.815 272.378C122.533 272.366 123.232 272.314 123.813 272.013C125.851 270.964 126.515 267.516 125.275 263.572C124.874 262.3 124.309 261.03 123.84 259.754C123.783 259.598 123.729 259.444 123.675 259.289C123.673 259.285 123.6 259.066 123.643 259.199C123.682 259.317 123.629 259.154 123.626 259.141C123.557 258.912 123.491 258.685 123.434 258.458C123.32 258.012 123.239 257.582 123.171 257.155C123.203 257.355 123.175 257.185 123.165 257.09C123.153 256.987 123.142 256.884 123.133 256.784C123.115 256.58 123.103 256.381 123.096 256.184C123.082 255.802 123.092 255.437 123.115 255.081C123.104 255.257 123.115 255.102 123.122 255.022C123.131 254.932 123.142 254.842 123.154 254.753C123.177 254.574 123.205 254.4 123.237 254.227C123.299 253.892 123.377 253.571 123.467 253.262C123.514 253.1 123.566 252.941 123.619 252.785C123.642 252.718 123.666 252.652 123.69 252.586C123.709 252.533 123.803 252.299 123.736 252.461C123.855 252.17 123.984 251.889 124.122 251.618C124.403 251.064 124.718 250.55 125.053 250.062C125.716 249.096 126.467 248.245 127.125 247.274C128.466 245.298 129.592 242.794 129.077 239.114C129.013 238.657 128.93 238.194 128.817 237.716C128.67 237.089 128.124 236.353 127.648 236.216C127.174 236.079 126.877 236.438 127.034 237.105L127.035 237.111Z" fill="#F32639"/>
<path d="M128.684 237.104C129.016 237.012 129.174 236.972 129.529 236.896C129.852 236.827 130.18 236.767 130.511 236.715C131.146 236.616 131.796 236.55 132.458 236.515C133.121 236.481 133.797 236.478 134.486 236.508C134.661 236.516 134.84 236.538 135.019 236.557C135.187 236.575 134.81 236.511 134.984 236.55C135.031 236.56 135.076 236.568 135.123 236.578C135.216 236.598 135.311 236.622 135.406 236.648C135.784 236.75 136.174 236.895 136.568 237.073C136.658 237.113 136.76 237.145 136.852 237.206C136.555 237.01 136.904 237.234 136.984 237.277C137.195 237.39 137.408 237.51 137.621 237.64C138.036 237.892 138.454 238.173 138.871 238.479C138.981 238.56 139.09 238.642 139.201 238.727C139.237 238.755 139.274 238.783 139.311 238.811C139.511 238.965 139.096 238.638 139.296 238.8C139.518 238.978 139.738 239.159 139.958 239.348C140.383 239.712 140.805 240.099 141.221 240.505C141.439 240.718 141.655 240.936 141.87 241.158C141.959 241.251 142.049 241.345 142.137 241.44C142.19 241.496 142.244 241.555 142.296 241.611C142.452 241.778 142.089 241.382 142.334 241.653C143.129 242.535 143.897 243.486 144.613 244.495C144.705 244.624 144.794 244.754 144.885 244.884C145.017 245.072 144.824 244.792 144.814 244.779C144.86 244.839 144.904 244.911 144.946 244.975C145.119 245.235 145.288 245.5 145.452 245.766C145.767 246.278 146.067 246.803 146.343 247.334C146.407 247.456 146.468 247.58 146.531 247.702C146.66 247.954 146.385 247.391 146.502 247.645C146.534 247.712 146.566 247.779 146.597 247.846C146.721 248.112 146.839 248.378 146.95 248.646C147.05 248.889 147.145 249.132 147.232 249.375C147.272 249.485 147.31 249.595 147.347 249.704C147.364 249.755 147.408 249.854 147.411 249.9C147.346 249.694 147.333 249.654 147.373 249.781C147.386 249.824 147.399 249.867 147.412 249.911C147.559 250.41 147.674 250.902 147.752 251.378C147.761 251.433 147.783 251.517 147.781 251.565C147.794 251.319 147.761 251.41 147.772 251.521C147.783 251.623 147.794 251.726 147.803 251.827C147.824 252.074 147.834 252.313 147.832 252.545C147.832 252.664 147.827 252.778 147.823 252.895C147.816 253.082 147.871 252.989 147.826 252.872C147.839 252.906 147.816 252.985 147.813 253.013C147.787 253.254 147.748 253.484 147.698 253.702C147.652 253.904 147.596 254.097 147.533 254.281C147.518 254.323 147.499 254.364 147.486 254.408C147.45 254.528 147.569 254.218 147.496 254.384C147.443 254.5 147.392 254.615 147.335 254.725C147.259 254.87 147.179 255.01 147.087 255.137C147.045 255.195 147.001 255.25 146.955 255.302C146.94 255.319 146.924 255.335 146.909 255.351C146.785 255.493 147.027 255.259 146.931 255.335C146.741 255.484 146.541 255.596 146.31 255.676C146.189 255.718 146.513 255.639 146.381 255.657C146.35 255.661 146.321 255.669 146.29 255.673C146.239 255.681 146.186 255.686 146.133 255.689C146 255.697 145.861 255.687 145.72 255.672C145.497 255.65 145.917 255.72 145.711 255.671C145.639 255.653 145.568 255.637 145.495 255.616C145.348 255.573 145.198 255.519 145.046 255.455C144.982 255.429 144.917 255.398 144.852 255.369C144.774 255.334 144.649 255.236 144.927 255.408C144.888 255.384 144.846 255.367 144.807 255.346C144.644 255.259 144.48 255.164 144.315 255.06C144.159 254.962 144.003 254.857 143.847 254.746C143.76 254.685 143.673 254.621 143.585 254.556C143.485 254.481 143.218 254.217 143.51 254.502C143.173 254.174 142.799 253.914 142.455 253.601C142.068 253.247 141.685 252.873 141.307 252.487C141.127 252.303 140.947 252.116 140.769 251.926C140.686 251.838 140.604 251.75 140.523 251.661C140.464 251.598 140.28 251.411 140.55 251.693C140.483 251.623 140.417 251.546 140.352 251.473C139.963 251.042 139.58 250.601 139.2 250.152C138.414 249.221 137.646 248.259 136.892 247.276C136.117 246.266 135.359 245.236 134.613 244.19C134.259 243.693 133.908 243.192 133.56 242.688C133.398 242.454 133.236 242.218 133.076 241.982C133.032 241.918 132.989 241.854 132.946 241.791C132.784 241.554 133.138 242.078 132.979 241.839C132.894 241.715 132.809 241.589 132.726 241.464C131.631 239.831 130.56 238.169 129.554 236.469C129.381 236.177 129.21 235.882 129.043 235.585C128.692 234.965 128.052 234.538 127.736 234.745C127.409 234.961 127.421 235.595 127.795 236.26C128.703 237.869 129.701 239.437 130.71 240.978C132.14 243.161 133.624 245.306 135.164 247.376C136.766 249.53 138.432 251.596 140.184 253.486C141.633 255.048 143.232 256.567 144.769 257.423C145.529 257.846 146.258 258.118 146.922 258.142C147.601 258.166 148.134 257.889 148.557 257.443C149.067 256.907 149.398 256.049 149.562 255.124C149.732 254.167 149.709 253.072 149.496 251.86C148.671 247.162 144.964 241.992 141.553 238.681C139.738 236.92 137.822 235.507 135.993 234.688C135.116 234.296 134.277 234.092 133.499 234.057C132.061 233.992 130.678 234.072 129.358 234.29C128.66 234.406 127.982 234.563 127.317 234.748C126.949 234.85 127.024 235.687 127.376 236.263C127.799 236.955 128.288 237.213 128.682 237.103L128.684 237.104Z" fill="#F32639"/>
<path d="M153.496 332.122C153.606 342.803 132.251 351.41 107.001 352.24C81.7527 353.068 60.8171 344.344 60.7079 333.662C60.5987 322.981 81.353 314.388 106.603 313.56C131.851 312.732 153.387 321.442 153.496 332.122Z" fill="#C4BAAB"/>
</g>
<path d="M154.463 147.631C158.712 153.414 163.78 158.529 168.882 163.575C181.299 175.856 190.378 190.583 190.574 205.806V391.818C190.574 406.693 182.952 422.175 160.862 433.859C138.772 445.543 122.38 448.181 100.515 448.369C77.6145 448.565 48.6791 438.903 48.5615 438.864C28.4657 430.279 7.62304 414.171 7.62305 399.295V205.806C7.62313 189.243 14.9155 170.499 28.2178 156.971C31.2457 153.892 34.4221 150.951 37.2891 147.721L66.499 114.816H66.334L66.499 67.4409H62.4131C53.6256 67.44 46.3379 40.8156 46.3379 34.1274C46.3381 27.4394 53.4616 22.0182 62.249 22.0181H134.939C143.727 22.0182 150.85 27.4394 150.851 34.1274C150.851 40.8157 143.891 67.4406 135.104 67.4409H130.423L130.259 114.816H130.347L154.463 147.631Z" fill="#F3F3FF" fill-opacity="0.44"/>
<path d="M68.8889 29.0513C68.8889 27.8531 69.6825 26.8067 70.8441 26.5127C75.8943 25.2348 89.6585 21.9966 99.3807 22.0181C108.958 22.0392 122.502 25.2411 127.502 26.5114C128.662 26.8063 129.454 27.8521 129.454 29.0495V29.0495C129.454 30.7 127.969 31.9576 126.338 31.7022C120.615 30.8059 108.21 29.0365 99.3807 29.0239C90.4078 29.011 77.7885 30.8019 72.0053 31.7041C70.3751 31.9584 68.8889 30.7012 68.8889 29.0513V29.0513Z" fill="#5D95C8"/>
<path d="M81.157 53.2354V108.274C81.157 114.761 78.5057 120.967 73.8178 125.452L45.5503 152.495" stroke="white" stroke-opacity="0.44" stroke-width="7.92441" stroke-linecap="round"/>
<path d="M33.6812 165.928V165.928C25.4756 174.552 20.8994 186.001 20.8994 197.905V209.792" stroke="white" stroke-opacity="0.44" stroke-width="7.92441" stroke-linecap="round"/>
<ellipse opacity="0.55" cx="99.9455" cy="399.831" rx="90.9108" ry="48.5402" fill="#D9D9D9"/>
</g>
<defs>
<clipPath id="clip0_43_939">
<rect width="200" height="462" fill="white"/>
</clipPath>
</defs>
</svg>
