<svg width="200" height="405" viewBox="0 0 200 405" fill="none" xmlns="http://www.w3.org/2000/svg">
<g clip-path="url(#clip0_43_940)">
<path d="M92.6049 10.0635C100.504 10.0635 108.794 13.2471 113.354 15.3193C115.615 16.3471 117.088 18.506 117.433 20.9658L119.193 33.5225C119.524 35.8859 118.78 38.1233 117.36 39.7793H122.424C123.188 39.7793 123.808 40.3992 123.808 41.1631C123.808 41.9269 123.188 42.5459 122.424 42.5459H64.6254C63.8616 42.5458 63.2427 41.9268 63.2426 41.1631C63.2426 40.3992 63.8615 39.7794 64.6254 39.7793H67.7738C66.4009 38.1792 65.6573 36.0347 65.9105 33.749L67.2992 21.2158C67.5873 18.6154 69.1349 16.3226 71.5326 15.2754C76.2796 13.2024 84.7619 10.0635 92.6049 10.0635Z" fill="#445C8C"/>
<mask id="mask0_43_940" style="mask-type:luminance" maskUnits="userSpaceOnUse" x="0" y="0" width="200" height="405">
<path d="M172.351 117.75C188.637 130.866 197.783 148.001 198.019 165.836L200 316.128V378.818C200 393.278 184.204 405 164.72 405H35.2793C15.7949 405 -1.06336e-05 393.278 0 378.818V169.268C0 151.337 9.01515 130.779 25.2813 117.521L66.5986 83.8447H66.4355V23.5439H62.3633C53.6029 23.5439 46.5013 18.2736 46.501 11.7725C46.501 5.27113 53.6027 0 62.3633 0H134.828C143.589 0 150.69 5.27113 150.69 11.7725C150.69 18.2736 143.589 23.5439 134.828 23.5439H130.162V83.8447H130.25L172.351 117.75Z" fill="white"/>
</mask>
<g mask="url(#mask0_43_940)">
<path d="M77.0739 216.964C75.0152 244.486 72.7053 262.501 62.4029 288.068C67.6091 289.728 80.612 295.48 89.2313 296.517C90.8235 296.708 92.6184 295.124 92.5462 292.97C92.4264 289.399 112.918 206.43 121.95 170.827L103.572 167.185C86.0041 166.829 90.1787 166.863 77.357 169.009C77.2361 180.03 76.2696 205.931 77.0739 216.964Z" fill="white"/>
<path d="M132.944 179.005C132.894 181.504 120.493 182.548 105.242 181.339C89.9928 180.129 77.4501 176.929 77.5 174.43C77.55 171.931 90.1711 171.079 105.422 172.289C120.671 173.499 132.994 176.506 132.944 179.005Z" fill="#EFE5D7"/>
<path d="M90.4137 239.877C90.7221 249.746 90.6485 264.943 87.6874 274.7C85.5958 281.592 85.8569 292.614 86.0152 296.361C113.324 301.454 152.875 288.599 152.875 288.599C148.013 276.315 134.035 248.677 133.749 229.092C133.72 227.061 133.68 225.03 133.614 222.998C133.502 219.584 130.155 177.719 131.784 172.884C122.297 168.715 122.842 170.416 107.735 167.689C97.0447 167.576 86.297 168.024 78.6181 170.163C84.7313 182.853 86.2859 195.915 87.5374 207.409C88.8337 219.528 90.0355 227.764 90.4137 239.877Z" fill="#EBDAB7"/>
<path d="M130.962 217.629C130.962 217.629 116.583 217.931 105.053 218.007C93.6998 218.082 75.6651 217.636 75.6651 217.636" stroke="#F32639" stroke-width="2.82817"/>
<path d="M131.649 216.799C131.649 216.799 117.601 217.543 106.306 217.909C95.1826 218.27 75.9106 218.61 75.9106 218.61" stroke="#F32639" stroke-width="2.82817"/>
<path d="M131.394 216.58C131.394 216.58 112.44 217 100.481 217.04C88.7044 217.079 76.0934 216.968 76.0934 216.968" stroke="#F32639" stroke-width="2.82817"/>
<path d="M127.84 217.032C131.562 219.08 135.602 221.058 139.106 223.151C139.447 223.355 139.781 223.56 140.104 223.766C140.253 223.862 140.4 223.958 140.544 224.054C140.573 224.073 140.807 224.234 140.664 224.134C140.745 224.191 140.827 224.248 140.906 224.305C141.19 224.508 141.458 224.713 141.702 224.918C141.823 225.02 141.937 225.121 142.044 225.222C142.091 225.267 142.137 225.312 142.181 225.356C142.209 225.384 142.235 225.412 142.263 225.44C142.29 225.469 142.284 225.462 142.244 225.419C142.259 225.435 142.274 225.452 142.289 225.468C142.468 225.671 142.612 225.873 142.71 226.068C142.731 226.11 142.749 226.152 142.767 226.194C142.731 226.11 142.782 226.246 142.787 226.267C142.813 226.365 142.824 226.46 142.822 226.553C142.821 226.597 142.812 226.64 142.807 226.683C142.802 226.734 142.83 226.635 142.808 226.681C142.798 226.702 142.792 226.725 142.782 226.746C142.746 226.82 142.695 226.89 142.628 226.954C142.626 226.956 142.547 227.023 142.6 226.981C142.652 226.94 142.567 227.003 142.564 227.005C142.527 227.03 142.488 227.053 142.445 227.075C142.398 227.099 142.348 227.123 142.295 227.145C142.271 227.154 142.247 227.164 142.222 227.173C142.205 227.179 142.066 227.219 142.158 227.196C142.257 227.17 142.116 227.206 142.107 227.208C142.079 227.215 142.05 227.222 142.02 227.229C141.961 227.242 141.901 227.255 141.838 227.266C141.759 227.28 141.678 227.292 141.594 227.303C141.561 227.308 141.526 227.311 141.492 227.315C141.348 227.334 141.643 227.307 141.472 227.318C141.134 227.339 140.783 227.343 140.406 227.332C140.255 227.327 140.405 227.333 140.432 227.334C140.378 227.331 140.324 227.328 140.269 227.324C140.17 227.317 140.07 227.31 139.969 227.301C139.766 227.284 139.56 227.262 139.352 227.236C139.236 227.221 139.119 227.206 139.001 227.189C138.929 227.178 138.683 227.138 138.878 227.171C138.651 227.133 138.424 227.092 138.195 227.047C137.979 227.004 137.762 226.957 137.546 226.907C137.437 226.882 137.33 226.855 137.222 226.829C137.18 226.819 137.052 226.784 137.243 226.835C137.172 226.816 137.101 226.798 137.031 226.779C136.611 226.665 136.197 226.537 135.796 226.397C135.749 226.381 135.701 226.364 135.654 226.347C135.824 226.408 135.656 226.347 135.614 226.331C135.503 226.291 135.393 226.25 135.284 226.208C135.06 226.123 134.84 226.036 134.623 225.947C134.225 225.784 133.84 225.615 133.472 225.439C133.436 225.422 133.389 225.403 133.358 225.385C133.377 225.395 133.529 225.47 133.392 225.401C133.311 225.36 133.229 225.319 133.149 225.277C132.984 225.191 132.823 225.104 132.666 225.016C132.38 224.854 132.116 224.689 131.864 224.522C131.725 224.429 131.963 224.593 131.881 224.533C131.856 224.514 131.829 224.496 131.803 224.478C131.746 224.436 131.69 224.396 131.635 224.354C131.519 224.268 131.409 224.18 131.306 224.094C131.103 223.924 130.928 223.756 130.763 223.588C130.738 223.562 130.676 223.521 130.783 223.61C130.763 223.594 130.749 223.573 130.733 223.556C130.697 223.515 130.662 223.474 130.628 223.433C130.556 223.347 130.488 223.261 130.426 223.175C130.307 223.011 130.206 222.848 130.121 222.688C130.078 222.607 130.038 222.526 130.003 222.446C129.985 222.405 129.969 222.365 129.952 222.325C129.946 222.312 129.925 222.253 129.944 222.306C129.966 222.364 129.932 222.272 129.928 222.26C129.87 222.094 129.827 221.93 129.796 221.768C129.542 220.454 130.023 219.3 130.276 218.103C130.305 217.965 130.331 217.827 130.352 217.688C130.379 217.51 129.872 217.23 129.403 217.14C128.869 217.038 128.533 217.115 128.506 217.305C128.317 218.562 127.763 219.734 127.903 221.068C128.042 222.399 128.963 223.95 131.697 225.414C133.221 226.23 135.144 227 137.132 227.505C139.006 227.982 141.052 228.243 142.537 228.117C143.373 228.046 143.989 227.867 144.358 227.566C144.728 227.263 144.723 226.849 144.553 226.414C144.22 225.56 143.021 224.617 141.686 223.736C140.253 222.791 138.585 221.865 136.919 220.96C134.864 219.844 132.727 218.747 130.651 217.635C130.132 217.357 129.618 217.079 129.109 216.799C128.746 216.599 128.138 216.454 127.803 216.528C127.485 216.598 127.45 216.817 127.839 217.031L127.84 217.032Z" fill="#F32639"/>
<path d="M126.924 216.4C126.761 216.741 126.581 217.076 126.336 217.392C126.217 217.545 126.084 217.695 125.928 217.836C125.887 217.873 125.844 217.91 125.8 217.947C125.802 217.946 125.745 217.99 125.775 217.967C125.81 217.941 125.737 217.994 125.731 217.999C125.637 218.068 125.535 218.134 125.427 218.197C125.22 218.317 124.984 218.426 124.714 218.518C124.688 218.527 124.661 218.535 124.635 218.544C124.547 218.574 124.718 218.524 124.619 218.548C124.551 218.565 124.488 218.584 124.42 218.601C124.265 218.638 124.099 218.671 123.925 218.698C123.838 218.711 123.748 218.723 123.657 218.734C123.622 218.738 123.586 218.741 123.552 218.746C123.436 218.76 123.658 218.741 123.531 218.747C123.327 218.758 123.127 218.77 122.911 218.772C122.715 218.774 122.511 218.768 122.306 218.761C122.284 218.761 122.144 218.754 122.281 218.761C122.239 218.759 122.197 218.757 122.156 218.754C122.03 218.747 121.904 218.738 121.776 218.729C120.874 218.664 119.941 218.57 119.09 218.561C118.251 218.553 117.558 218.652 117.05 218.847C116.124 219.202 115.997 219.872 116.022 220.516C116.05 221.216 116.238 221.944 116.101 222.609C116.082 222.7 116.065 222.767 116.048 222.823C116.021 222.909 115.991 222.994 115.955 223.078C115.885 223.25 115.802 223.419 115.693 223.58C115.641 223.656 115.583 223.729 115.51 223.798C115.491 223.817 115.471 223.835 115.449 223.852C115.457 223.847 115.491 223.821 115.449 223.849C115.393 223.885 115.334 223.92 115.266 223.952C115.236 223.966 115.203 223.979 115.171 223.992C115.169 223.993 115.085 224.023 115.139 224.005C115.199 223.985 115.084 224.019 115.07 224.022C115.03 224.032 114.989 224.04 114.947 224.049C114.873 224.063 114.793 224.072 114.716 224.084C114.696 224.087 114.575 224.098 114.698 224.088C114.638 224.093 114.574 224.096 114.511 224.099C114.332 224.107 114.144 224.109 113.951 224.106C113.839 224.104 113.726 224.1 113.611 224.096C113.568 224.094 113.524 224.092 113.48 224.09C113.602 224.096 113.414 224.086 113.392 224.085C112.932 224.057 112.462 224.017 111.998 223.983C111.061 223.915 110.173 223.893 109.429 223.989C108.668 224.087 108.199 224.354 108.221 224.75C108.24 225.102 108.625 225.506 108.793 225.88C108.803 225.901 108.811 225.921 108.819 225.942C108.814 225.928 108.795 225.867 108.815 225.936C108.826 225.971 108.837 226.006 108.846 226.04C108.864 226.119 108.876 226.197 108.88 226.272C108.882 226.343 108.879 226.413 108.868 226.481C108.863 226.513 108.856 226.544 108.849 226.575C108.841 226.613 108.853 226.561 108.855 226.557C108.845 226.583 108.837 226.609 108.826 226.635C108.773 226.763 108.695 226.884 108.593 226.998C108.541 227.055 108.479 227.108 108.42 227.163C108.387 227.194 108.437 227.151 108.44 227.148C108.422 227.162 108.404 227.175 108.385 227.189C108.343 227.219 108.298 227.249 108.253 227.278C108.093 227.377 107.91 227.467 107.704 227.547C107.612 227.583 107.513 227.616 107.412 227.648C107.552 227.604 107.363 227.66 107.334 227.668C107.272 227.685 107.209 227.7 107.145 227.715C106.895 227.773 106.625 227.819 106.336 227.854C106.271 227.862 106.205 227.869 106.138 227.876C106.002 227.89 106.133 227.876 106.159 227.874C106.119 227.877 106.08 227.88 106.04 227.883C105.881 227.894 105.717 227.901 105.549 227.905C105.401 227.909 105.25 227.909 105.097 227.908C105.008 227.906 104.92 227.904 104.829 227.901C104.783 227.9 104.5 227.886 104.708 227.897C104.261 227.873 103.898 227.963 104.074 228.195C104.22 228.389 104.752 228.658 105.232 228.684C108.421 228.857 110.524 228.13 110.734 226.879C110.784 226.579 110.698 226.245 110.5 225.9C110.391 225.712 110.243 225.519 110.147 225.332C110.135 225.308 110.123 225.284 110.112 225.26C110.12 225.276 110.129 225.324 110.11 225.252C110.1 225.212 110.091 225.173 110.089 225.134C110.087 225.117 110.104 225.024 110.084 225.077C110.1 225.033 110.144 224.997 110.164 224.955C110.185 224.908 110.105 224.987 110.161 224.952C110.178 224.942 110.194 224.931 110.211 224.921C110.258 224.894 110.316 224.872 110.368 224.848C110.388 224.838 110.477 224.817 110.363 224.847C110.397 224.838 110.431 224.829 110.466 224.82C110.538 224.804 110.614 224.789 110.694 224.777C110.776 224.765 110.86 224.755 110.947 224.746C110.806 224.759 111.017 224.744 111.062 224.741C111.254 224.732 111.454 224.729 111.661 224.732C111.764 224.733 111.869 224.735 111.975 224.739C112.017 224.74 112.267 224.752 112.113 224.744C112.335 224.756 112.562 224.773 112.79 224.79C113.318 224.83 113.844 224.87 114.36 224.895C115.352 224.944 116.235 224.902 116.82 224.678C117.367 224.468 117.556 224.106 117.716 223.765C118.035 223.082 118.063 222.34 117.957 221.56C117.911 221.225 117.868 220.891 117.895 220.571C117.901 220.495 117.911 220.42 117.927 220.347C117.931 220.327 117.957 220.242 117.936 220.301C117.951 220.259 117.964 220.217 117.982 220.177C118.04 220.039 118.125 219.908 118.249 219.79C118.263 219.776 118.38 219.693 118.292 219.75C118.328 219.727 118.359 219.702 118.396 219.68C118.479 219.629 118.574 219.582 118.68 219.541C118.706 219.53 118.733 219.52 118.761 219.51C118.778 219.504 118.874 219.476 118.796 219.498C118.723 219.518 118.802 219.497 118.815 219.494C118.847 219.486 118.878 219.477 118.911 219.47C119.046 219.439 119.194 219.416 119.347 219.395C119.471 219.379 119.381 219.39 119.351 219.393C119.397 219.389 119.446 219.386 119.493 219.383C119.577 219.378 119.663 219.375 119.751 219.373C119.964 219.368 120.187 219.372 120.414 219.38C120.454 219.382 120.495 219.384 120.536 219.385C120.675 219.391 120.42 219.378 120.561 219.387C120.658 219.393 120.756 219.399 120.853 219.405C121.078 219.421 121.305 219.439 121.532 219.457C122.478 219.533 123.444 219.612 124.273 219.571C125.15 219.529 125.857 219.389 126.44 219.178C127.555 218.775 128.098 218.118 128.482 217.455C128.577 217.29 128.662 217.122 128.743 216.954C128.821 216.79 128.564 216.53 128.046 216.382C127.576 216.248 127.008 216.227 126.925 216.402L126.924 216.4Z" fill="#F32639"/>
<path d="M127.367 216.846C127.414 216.916 127.458 216.986 127.496 217.056C127.515 217.092 127.534 217.129 127.55 217.165C127.557 217.181 127.563 217.196 127.57 217.212C127.597 217.268 127.553 217.153 127.569 217.207C127.608 217.342 127.64 217.474 127.643 217.602C127.645 217.664 127.641 217.724 127.633 217.783C127.629 217.815 127.622 217.846 127.616 217.878C127.615 217.884 127.605 217.929 127.614 217.889C127.624 217.848 127.609 217.906 127.606 217.913C127.566 218.031 127.508 218.145 127.434 218.253C127.359 218.364 127.269 218.47 127.166 218.572C127.115 218.621 127.062 218.669 127.006 218.717C126.995 218.726 126.905 218.799 126.941 218.771C126.981 218.74 126.934 218.776 126.928 218.781C126.909 218.795 126.891 218.809 126.871 218.823C126.603 219.02 126.292 219.201 125.958 219.372C125.307 219.706 124.554 219.994 123.853 220.307C123.128 220.63 122.484 220.985 121.989 221.398C121.513 221.795 121.209 222.264 121.249 222.806C121.269 223.077 121.377 223.372 121.584 223.672C121.835 224.037 122.247 224.411 122.689 224.784C122.922 224.981 123.158 225.178 123.361 225.375C123.381 225.395 123.492 225.507 123.452 225.465C123.408 225.418 123.506 225.528 123.52 225.545C123.584 225.621 123.64 225.697 123.689 225.772C123.733 225.841 123.773 225.91 123.806 225.978C123.816 225.998 123.857 226.104 123.828 226.022C123.84 226.057 123.852 226.093 123.861 226.129C123.898 226.265 123.908 226.397 123.893 226.523C123.889 226.556 123.881 226.587 123.876 226.62C123.871 226.658 123.88 226.608 123.881 226.603C123.877 226.617 123.873 226.63 123.868 226.643C123.846 226.705 123.817 226.766 123.783 226.824C123.715 226.937 123.62 227.041 123.508 227.139C123.494 227.151 123.439 227.185 123.512 227.136C123.497 227.146 123.484 227.157 123.47 227.167C123.441 227.188 123.41 227.207 123.379 227.227C123.307 227.272 123.227 227.315 123.143 227.356C123.064 227.394 122.98 227.429 122.891 227.462C122.842 227.48 122.791 227.497 122.742 227.514C122.682 227.535 122.772 227.505 122.777 227.503C122.746 227.512 122.716 227.521 122.685 227.529C122.468 227.588 122.227 227.635 121.965 227.669C121.909 227.676 121.851 227.682 121.793 227.689C121.653 227.705 121.899 227.683 121.75 227.693C121.561 227.705 121.367 227.714 121.168 227.718C120.367 227.737 119.529 227.725 118.855 227.837C117.587 228.047 117.043 228.609 116.731 229.195C116.655 229.337 116.591 229.483 116.529 229.628C116.46 229.794 116.702 230.05 117.224 230.2C117.685 230.332 118.267 230.357 118.342 230.179C118.468 229.881 118.603 229.585 118.829 229.315C118.882 229.252 118.94 229.19 119.004 229.131C119.033 229.104 119.063 229.076 119.095 229.05C119.081 229.062 119.04 229.09 119.11 229.04C119.134 229.023 119.157 229.007 119.182 228.991C119.347 228.881 119.551 228.793 119.772 228.707C119.83 228.685 119.771 228.708 119.758 228.711C119.795 228.7 119.832 228.69 119.87 228.68C119.928 228.665 119.987 228.652 120.048 228.639C120.195 228.609 120.352 228.585 120.519 228.568C120.42 228.579 120.548 228.566 120.56 228.565C120.601 228.563 120.641 228.56 120.682 228.558C120.777 228.553 120.874 228.548 120.972 228.545C121.169 228.539 121.371 228.537 121.572 228.534C122.295 228.526 122.999 228.504 123.589 228.401C125.657 228.041 126.379 226.897 125.19 225.602C124.806 225.184 124.256 224.768 123.803 224.349C123.748 224.298 123.696 224.247 123.645 224.197C123.643 224.195 123.573 224.124 123.614 224.167C123.652 224.206 123.6 224.152 123.597 224.148C123.531 224.073 123.469 223.998 123.414 223.923C123.307 223.777 123.232 223.635 123.169 223.495C123.199 223.561 123.174 223.505 123.164 223.473C123.154 223.439 123.145 223.405 123.137 223.372C123.122 223.305 123.113 223.239 123.109 223.174C123.101 223.048 123.117 222.928 123.145 222.81C123.131 222.868 123.144 222.817 123.153 222.79C123.164 222.76 123.176 222.73 123.189 222.701C123.215 222.642 123.246 222.584 123.281 222.527C123.349 222.416 123.432 222.309 123.527 222.206C123.578 222.152 123.632 222.1 123.688 222.048C123.712 222.025 123.737 222.003 123.763 221.981C123.783 221.964 123.88 221.886 123.811 221.94C123.935 221.843 124.069 221.749 124.212 221.659C124.503 221.474 124.828 221.302 125.174 221.139C125.856 220.815 126.625 220.529 127.303 220.204C128.684 219.542 129.855 218.707 129.393 217.495C129.335 217.344 129.259 217.191 129.153 217.034C129.014 216.828 128.476 216.588 127.999 216.546C127.523 216.504 127.219 216.624 127.366 216.844L127.367 216.846Z" fill="#F32639"/>
<path d="M128.677 216.909C129.014 216.876 129.175 216.862 129.535 216.834C129.864 216.809 130.196 216.787 130.532 216.767C131.176 216.73 131.835 216.704 132.506 216.688C133.178 216.672 133.862 216.667 134.56 216.672C134.736 216.674 134.918 216.68 135.099 216.685C135.268 216.69 134.887 216.671 135.063 216.683C135.11 216.686 135.156 216.689 135.203 216.692C135.297 216.698 135.393 216.705 135.488 216.713C135.87 216.744 136.262 216.79 136.659 216.847C136.749 216.86 136.851 216.869 136.944 216.889C136.646 216.826 136.996 216.898 137.076 216.912C137.288 216.948 137.502 216.987 137.716 217.028C138.132 217.109 138.551 217.2 138.968 217.299C139.079 217.325 139.188 217.352 139.299 217.379C139.335 217.388 139.372 217.398 139.409 217.407C139.609 217.456 139.194 217.351 139.394 217.403C139.616 217.461 139.836 217.519 140.056 217.581C140.48 217.699 140.902 217.825 141.316 217.957C141.534 218.026 141.75 218.098 141.963 218.17C142.052 218.201 142.142 218.231 142.23 218.262C142.283 218.28 142.336 218.3 142.388 218.318C142.544 218.372 142.182 218.243 142.426 218.332C143.218 218.62 143.98 218.931 144.689 219.261C144.78 219.304 144.869 219.347 144.959 219.389C145.09 219.451 144.899 219.359 144.889 219.355C144.935 219.374 144.978 219.398 145.019 219.419C145.19 219.504 145.358 219.591 145.519 219.679C145.831 219.847 146.126 220.019 146.398 220.194C146.46 220.234 146.52 220.275 146.582 220.315C146.709 220.398 146.439 220.213 146.554 220.296C146.585 220.319 146.617 220.341 146.647 220.363C146.769 220.45 146.884 220.538 146.992 220.626C147.09 220.707 147.182 220.787 147.267 220.867C147.305 220.903 147.342 220.939 147.377 220.975C147.394 220.992 147.437 221.025 147.44 221.04C147.377 220.972 147.365 220.959 147.402 221.001C147.415 221.015 147.428 221.029 147.44 221.044C147.582 221.209 147.691 221.372 147.762 221.53C147.77 221.548 147.791 221.575 147.788 221.592C147.805 221.51 147.77 221.54 147.78 221.577C147.789 221.611 147.8 221.645 147.807 221.678C147.825 221.76 147.831 221.84 147.826 221.917C147.824 221.956 147.816 221.994 147.811 222.033C147.801 222.095 147.858 222.064 147.815 222.026C147.827 222.037 147.802 222.063 147.799 222.073C147.769 222.153 147.726 222.229 147.672 222.302C147.622 222.37 147.563 222.434 147.495 222.496C147.48 222.51 147.46 222.524 147.446 222.538C147.408 222.579 147.534 222.475 147.456 222.53C147.402 222.569 147.348 222.608 147.288 222.645C147.21 222.694 147.126 222.741 147.032 222.783C146.988 222.803 146.943 222.821 146.895 222.839C146.88 222.845 146.863 222.85 146.848 222.856C146.72 222.904 146.969 222.824 146.871 222.85C146.675 222.901 146.471 222.94 146.237 222.968C146.113 222.982 146.443 222.954 146.309 222.961C146.277 222.962 146.247 222.965 146.216 222.967C146.164 222.97 146.11 222.972 146.057 222.973C145.922 222.977 145.782 222.974 145.639 222.97C145.414 222.964 145.838 222.985 145.63 222.97C145.557 222.964 145.485 222.959 145.412 222.953C145.264 222.94 145.112 222.923 144.96 222.903C144.896 222.894 144.831 222.885 144.765 222.875C144.687 222.864 144.562 222.832 144.84 222.888C144.801 222.88 144.759 222.874 144.72 222.868C144.556 222.84 144.391 222.809 144.226 222.776C144.07 222.745 143.913 222.711 143.757 222.675C143.67 222.655 143.582 222.634 143.495 222.613C143.395 222.589 143.128 222.503 143.42 222.596C143.084 222.489 142.709 222.405 142.365 222.303C141.979 222.188 141.597 222.066 141.221 221.94C141.041 221.88 140.862 221.819 140.684 221.757C140.601 221.729 140.52 221.7 140.439 221.671C140.381 221.65 140.197 221.589 140.466 221.681C140.399 221.658 140.334 221.633 140.269 221.609C139.882 221.469 139.5 221.324 139.123 221.178C138.341 220.873 137.578 220.558 136.83 220.237C136.061 219.906 135.309 219.568 134.571 219.226C134.219 219.063 133.872 218.898 133.527 218.733C133.366 218.656 133.207 218.579 133.048 218.501C133.005 218.481 132.962 218.46 132.919 218.439C132.759 218.361 133.11 218.533 132.952 218.455C132.868 218.414 132.784 218.373 132.701 218.331C131.618 217.796 130.559 217.25 129.567 216.692C129.396 216.596 129.228 216.499 129.063 216.401C128.718 216.197 128.075 216.06 127.753 216.13C127.418 216.204 127.421 216.415 127.79 216.634C128.684 217.163 129.67 217.678 130.668 218.183C132.082 218.9 133.552 219.603 135.079 220.281C136.669 220.987 138.324 221.663 140.068 222.28C141.511 222.79 143.106 223.284 144.65 223.559C145.412 223.694 146.146 223.78 146.818 223.783C147.506 223.787 148.049 223.691 148.484 223.541C149.008 223.359 149.356 223.071 149.537 222.763C149.724 222.444 149.717 222.08 149.52 221.678C148.757 220.122 145.084 218.427 141.681 217.349C139.871 216.775 137.952 216.318 136.113 216.058C135.231 215.933 134.385 215.871 133.598 215.864C132.143 215.852 130.742 215.888 129.402 215.969C128.693 216.012 128.004 216.068 127.328 216.134C126.955 216.17 127.017 216.448 127.365 216.637C127.783 216.865 128.274 216.947 128.675 216.908L128.677 216.909Z" fill="#F32639"/>
<path d="M153.797 279.993C153.718 293.224 132.22 304.064 106.965 305.302C81.712 306.538 60.938 295.905 61.0169 282.673C61.0958 269.442 81.9936 258.624 107.249 257.389C132.501 256.153 153.876 266.764 153.797 279.993Z" fill="#C4BAAB"/>
</g>
<path d="M161.494 129.509C177.78 142.574 190.056 167.751 190.292 185.516L196.503 259.871V340.412C196.502 354.815 180.128 370.588 158.106 381.901C136.084 393.214 122.309 394.39 100.51 394.572C77.669 394.763 45.2716 381.94 45.1735 381.901C27.5404 371.935 12.4225 360.812 12.4225 346.409L9.59924 185.516C9.59924 167.656 16.9201 147.178 33.1862 133.972L66.7623 106.02H66.5992V89.5274C62.9882 88.7893 60.0789 87.9369 58.1608 87.0274C47.6208 82.0297 47.9967 50.5228 47.9967 44.047C47.9974 37.571 62.1135 26.0552 71.7125 23.0567C81.312 20.0583 105.592 19.7768 117.45 23.0567C129.308 26.3366 138.906 42.0689 138.907 48.545C138.907 55.0209 149.071 80.5304 131.566 87.0274C131.159 87.1786 130.745 87.3243 130.326 87.4679V106.02H130.414L161.494 129.509Z" fill="#F3F3FF" fill-opacity="0.44"/>
<path d="M67.7596 41.5766C67.7596 40.3796 68.5526 39.3344 69.7131 39.0411C74.762 37.7651 88.5282 34.5303 98.2515 34.5518C107.83 34.5729 121.376 37.7713 126.374 39.0398C127.534 39.334 128.325 40.3787 128.325 41.5748V41.5748C128.325 43.223 126.842 44.4789 125.213 44.2242C119.493 43.3292 107.083 41.5612 98.2515 41.5486C89.2763 41.5357 76.6528 43.3252 70.8717 44.226C69.2437 44.4797 67.7596 43.2242 67.7596 41.5766V41.5766Z" fill="#5D95C8"/>
<path d="M70.583 118.014L45.5503 137.873" stroke="white" stroke-opacity="0.44" stroke-width="7.92441" stroke-linecap="round"/>
<path d="M33.6812 151.289V151.289C25.4762 159.902 20.8994 171.341 20.8994 183.236V195.097" stroke="white" stroke-opacity="0.44" stroke-width="7.92441" stroke-linecap="round"/>
<ellipse opacity="0.55" cx="104.463" cy="348.409" rx="90.9108" ry="45.979" fill="#D9D9D9"/>
</g>
<defs>
<clipPath id="clip0_43_940">
<rect width="200" height="405" fill="white"/>
</clipPath>
</defs>
</svg>
