<svg width="200" height="335" viewBox="0 0 200 335" fill="none" xmlns="http://www.w3.org/2000/svg">
<g clip-path="url(#clip0_43_941)">
<path d="M93.6967 69.8877C105.661 69.8878 118.257 74.1583 124.416 76.5703C126.85 77.5235 128.527 79.7222 128.961 82.2998L132.575 103.761C133.055 106.615 131.922 109.484 129.358 110.826C123.76 113.756 112.149 118.344 93.6967 118.827C74.5468 119.329 62.8933 114.005 57.6312 110.771C55.4362 109.423 54.5024 106.87 54.8422 104.316L57.7347 82.5801C58.0985 79.8469 59.8542 77.5011 62.4349 76.5303C68.8657 74.1113 81.798 69.8877 93.6967 69.8877Z" fill="#445C8C"/>
<mask id="mask0_43_941" style="mask-type:luminance" maskUnits="userSpaceOnUse" x="0" y="0" width="200" height="335">
<path d="M172.351 97.3984C188.637 108.247 197.783 122.421 198.019 137.173L200 261.488V313.344C200 325.304 184.204 335 164.72 335H35.2793C15.7949 335 6.94978e-05 325.304 0 313.344V140.012C0 125.181 9.01515 108.175 25.2812 97.209L66.5986 69.3525H66.4355V19.4746H62.3633C53.6027 19.4746 46.501 15.1149 46.501 9.7373C46.5011 4.35973 53.6028 0 62.3633 0H134.828C143.589 0 150.69 4.35973 150.69 9.7373C150.69 15.1149 143.589 19.4746 134.828 19.4746H130.162V69.3525H130.25L172.351 97.3984Z" fill="white"/>
</mask>
<g mask="url(#mask0_43_941)">
<path d="M72.6634 184.803C70.5965 207.581 67.4132 214.433 63.2942 242.473C68.5209 243.848 76.2154 249.787 84.8686 250.644C86.4671 250.803 88.269 249.491 88.1965 247.709C88.0763 244.754 108.365 215.774 117.432 186.308L98.9822 183.293C81.3445 182.999 85.5356 183.027 72.6634 184.803C73.636 186.415 75.4291 189.387 72.6634 184.803Z" fill="white"/>
<path d="M130.685 189.769C130.635 191.836 118.234 192.7 102.984 191.699C87.7342 190.698 75.1914 188.052 75.2414 185.985C75.2913 183.918 87.9125 183.213 103.163 184.214C118.412 185.215 130.735 187.702 130.685 189.769Z" fill="#EFE5D7"/>
<path d="M86.0148 203.747C86.3233 211.911 86.2497 224.482 83.2876 232.554C81.1954 238.255 81.4565 247.372 81.6148 250.472C108.933 254.685 132.878 243.349 132.878 243.349C128.015 233.188 129.65 211.027 129.364 194.826C129.335 193.145 129.445 194.479 129.379 192.798C129.267 189.974 129.331 191.297 127.12 187.297C118.73 185.816 126.305 187.617 111.193 185.361C100.499 185.267 92.3993 187.382 85.6828 186.898C83.5896 190.407 84.7524 190.905 85.0761 193.407C85.2015 194.377 84.5051 194.935 86.0148 203.747Z" fill="#EBDAB7"/>
<path d="M126.445 196.38C126.445 196.38 112.065 196.63 100.536 196.693C89.1828 196.755 71.148 196.386 71.148 196.386" stroke="#F32639" stroke-width="2.82817"/>
<path d="M127.132 198.691C127.132 198.691 113.084 199.307 101.788 199.61C90.6648 199.908 71.3924 200.189 71.3924 200.189" stroke="#F32639" stroke-width="2.82817"/>
<path d="M126.876 197.576C126.876 197.576 107.923 197.924 95.9638 197.957C84.1869 197.989 71.5756 197.897 71.5756 197.897" stroke="#F32639" stroke-width="2.82817"/>
<path d="M123.36 197.951C127.074 199.643 131.108 201.277 134.603 203.007C134.943 203.176 135.276 203.345 135.598 203.515C135.747 203.595 135.893 203.674 136.037 203.753C136.065 203.769 136.299 203.902 136.156 203.82C136.237 203.867 136.319 203.914 136.397 203.961C136.68 204.129 136.947 204.298 137.19 204.468C137.31 204.552 137.423 204.636 137.53 204.719C137.576 204.756 137.622 204.793 137.666 204.83C137.694 204.853 137.719 204.876 137.747 204.899C137.774 204.923 137.768 204.917 137.729 204.882C137.744 204.895 137.758 204.909 137.773 204.923C137.95 205.09 138.093 205.257 138.19 205.418C138.21 205.453 138.227 205.488 138.245 205.522C138.21 205.453 138.259 205.565 138.265 205.583C138.289 205.664 138.3 205.743 138.297 205.82C138.295 205.857 138.286 205.892 138.28 205.928C138.275 205.97 138.304 205.888 138.282 205.926C138.271 205.943 138.265 205.962 138.254 205.979C138.218 206.041 138.166 206.099 138.098 206.152C138.095 206.154 138.016 206.209 138.069 206.175C138.122 206.141 138.036 206.192 138.033 206.194C137.996 206.215 137.956 206.234 137.913 206.252C137.866 206.272 137.815 206.292 137.761 206.31C137.738 206.318 137.713 206.326 137.688 206.333C137.671 206.338 137.531 206.372 137.624 206.352C137.724 206.331 137.581 206.361 137.572 206.362C137.544 206.368 137.515 206.374 137.485 206.38C137.426 206.391 137.365 206.401 137.302 206.41C137.223 206.422 137.141 206.432 137.057 206.441C137.023 206.445 136.988 206.448 136.954 206.451C136.809 206.467 137.106 206.444 136.934 206.454C136.595 206.472 136.242 206.475 135.864 206.466C135.713 206.462 135.863 206.467 135.89 206.468C135.836 206.465 135.782 206.463 135.727 206.46C135.628 206.454 135.527 206.448 135.426 206.441C135.223 206.427 135.016 206.409 134.808 206.388C134.691 206.376 134.573 206.363 134.455 206.349C134.383 206.34 134.137 206.307 134.333 206.334C134.105 206.303 133.878 206.269 133.648 206.232C133.432 206.197 133.215 206.158 132.998 206.117C132.89 206.096 132.782 206.074 132.674 206.053C132.632 206.044 132.503 206.015 132.695 206.057C132.624 206.042 132.553 206.027 132.483 206.011C132.063 205.917 131.648 205.812 131.248 205.696C131.2 205.682 131.153 205.668 131.105 205.654C131.276 205.705 131.107 205.655 131.065 205.642C130.955 205.608 130.844 205.574 130.735 205.54C130.512 205.47 130.292 205.398 130.075 205.325C129.677 205.19 129.292 205.05 128.925 204.905C128.889 204.891 128.843 204.875 128.812 204.86C128.83 204.869 128.982 204.931 128.845 204.873C128.764 204.839 128.682 204.805 128.603 204.771C128.438 204.7 128.277 204.628 128.121 204.555C127.835 204.421 127.572 204.285 127.321 204.147C127.182 204.07 127.419 204.206 127.338 204.156C127.313 204.141 127.286 204.125 127.261 204.11C127.203 204.076 127.147 204.042 127.093 204.008C126.978 203.937 126.868 203.865 126.765 203.793C126.564 203.653 126.389 203.514 126.226 203.375C126.201 203.353 126.139 203.319 126.246 203.393C126.226 203.379 126.212 203.362 126.196 203.348C126.161 203.314 126.125 203.281 126.092 203.247C126.02 203.175 125.953 203.104 125.892 203.033C125.774 202.898 125.675 202.763 125.591 202.63C125.548 202.563 125.51 202.496 125.475 202.43C125.457 202.396 125.441 202.363 125.425 202.33C125.419 202.319 125.398 202.271 125.417 202.315C125.438 202.363 125.406 202.286 125.402 202.277C125.345 202.139 125.304 202.003 125.274 201.869C125.033 200.782 125.527 199.827 125.794 198.835C125.825 198.722 125.852 198.607 125.874 198.492C125.903 198.345 125.398 198.114 124.928 198.04C124.393 197.956 124.055 198.019 124.026 198.177C123.823 199.217 123.256 200.188 123.381 201.291C123.507 202.392 124.416 203.675 127.144 204.885C128.665 205.559 130.586 206.195 132.577 206.612C134.452 207.005 136.503 207.22 137.994 207.114C138.834 207.055 139.454 206.906 139.828 206.657C140.202 206.406 140.201 206.063 140.036 205.704C139.71 204.997 138.517 204.217 137.186 203.49C135.758 202.709 134.093 201.943 132.431 201.196C130.38 200.273 128.247 199.367 126.175 198.449C125.657 198.219 125.144 197.989 124.636 197.757C124.274 197.592 123.666 197.472 123.329 197.534C123.009 197.592 122.972 197.773 123.36 197.95L123.36 197.951Z" fill="#F32639"/>
<path d="M122.478 197.427C122.311 197.708 122.128 197.985 121.879 198.247C121.759 198.373 121.624 198.496 121.467 198.613C121.425 198.644 121.382 198.675 121.338 198.705C121.339 198.704 121.282 198.74 121.313 198.722C121.347 198.7 121.274 198.744 121.268 198.748C121.173 198.805 121.071 198.86 120.961 198.912C120.753 199.011 120.516 199.101 120.244 199.178C120.218 199.185 120.191 199.192 120.165 199.199C120.077 199.224 120.248 199.183 120.149 199.203C120.081 199.217 120.018 199.232 119.949 199.246C119.794 199.277 119.628 199.304 119.453 199.327C119.366 199.338 119.276 199.348 119.184 199.357C119.15 199.36 119.114 199.363 119.079 199.366C118.963 199.378 119.185 199.362 119.058 199.368C118.854 199.377 118.654 199.387 118.437 199.389C118.241 199.39 118.038 199.386 117.833 199.38C117.811 199.38 117.671 199.374 117.807 199.38C117.766 199.378 117.724 199.376 117.682 199.375C117.557 199.369 117.43 199.361 117.303 199.354C116.401 199.301 115.468 199.224 114.616 199.217C113.777 199.211 113.082 199.294 112.573 199.455C111.642 199.749 111.507 200.302 111.526 200.834C111.547 201.412 111.727 202.013 111.583 202.563C111.564 202.637 111.546 202.693 111.528 202.739C111.5 202.81 111.469 202.881 111.433 202.95C111.36 203.092 111.275 203.232 111.164 203.365C111.112 203.427 111.053 203.488 110.98 203.545C110.961 203.56 110.94 203.575 110.918 203.59C110.926 203.585 110.96 203.564 110.918 203.587C110.862 203.617 110.802 203.646 110.734 203.672C110.704 203.684 110.67 203.694 110.639 203.705C110.636 203.706 110.551 203.731 110.606 203.716C110.666 203.7 110.551 203.727 110.536 203.73C110.497 203.738 110.455 203.745 110.413 203.752C110.339 203.764 110.259 203.772 110.182 203.782C110.161 203.784 110.04 203.794 110.164 203.785C110.104 203.789 110.04 203.792 109.977 203.794C109.797 203.801 109.61 203.803 109.416 203.8C109.305 203.799 109.191 203.796 109.076 203.792C109.033 203.791 108.989 203.789 108.945 203.787C109.067 203.792 108.879 203.784 108.857 203.783C108.397 203.76 107.927 203.728 107.463 203.7C106.526 203.645 105.638 203.627 104.892 203.707C104.13 203.789 103.658 204.009 103.676 204.336C103.692 204.627 104.072 204.961 104.236 205.269C104.246 205.286 104.254 205.303 104.262 205.32C104.257 205.309 104.238 205.258 104.258 205.315C104.268 205.344 104.279 205.373 104.287 205.402C104.305 205.467 104.316 205.531 104.319 205.593C104.321 205.652 104.316 205.709 104.305 205.765C104.3 205.791 104.292 205.817 104.285 205.843C104.277 205.874 104.289 205.831 104.291 205.828C104.281 205.849 104.273 205.871 104.262 205.892C104.207 205.998 104.128 206.099 104.024 206.193C103.972 206.24 103.909 206.284 103.85 206.329C103.817 206.354 103.867 206.319 103.87 206.317C103.852 206.328 103.833 206.339 103.815 206.351C103.772 206.376 103.727 206.4 103.681 206.424C103.52 206.506 103.337 206.58 103.129 206.646C103.037 206.676 102.938 206.704 102.836 206.73C102.977 206.693 102.787 206.74 102.758 206.747C102.696 206.761 102.633 206.774 102.568 206.786C102.317 206.834 102.047 206.872 101.757 206.901C101.692 206.908 101.625 206.913 101.559 206.919C101.422 206.931 101.554 206.919 101.579 206.918C101.54 206.92 101.501 206.923 101.461 206.925C101.301 206.934 101.137 206.941 100.969 206.944C100.821 206.947 100.67 206.948 100.516 206.946C100.428 206.945 100.339 206.944 100.249 206.941C100.202 206.94 99.9194 206.929 100.128 206.938C99.6801 206.918 99.3161 206.993 99.4896 207.185C99.6337 207.344 100.164 207.566 100.643 207.587C103.833 207.728 105.944 207.126 106.168 206.092C106.222 205.845 106.139 205.569 105.944 205.285C105.837 205.129 105.691 204.97 105.597 204.815C105.585 204.796 105.574 204.776 105.563 204.756C105.57 204.769 105.579 204.809 105.561 204.749C105.551 204.716 105.543 204.684 105.541 204.652C105.54 204.638 105.557 204.561 105.537 204.605C105.553 204.568 105.598 204.539 105.617 204.504C105.639 204.466 105.559 204.531 105.615 204.502C105.632 204.493 105.648 204.484 105.665 204.476C105.712 204.454 105.77 204.436 105.823 204.415C105.843 204.408 105.932 204.39 105.818 204.415C105.852 204.407 105.886 204.4 105.921 204.393C105.994 204.379 106.07 204.367 106.15 204.357C106.232 204.347 106.316 204.338 106.404 204.331C106.263 204.342 106.474 204.329 106.519 204.327C106.711 204.319 106.911 204.317 107.118 204.319C107.221 204.32 107.327 204.322 107.432 204.324C107.474 204.325 107.724 204.335 107.57 204.328C107.793 204.338 108.02 204.352 108.247 204.366C108.775 204.399 109.302 204.431 109.817 204.452C110.809 204.491 111.693 204.456 112.281 204.27C112.831 204.097 113.023 203.798 113.187 203.516C113.514 202.952 113.549 202.339 113.451 201.695C113.409 201.418 113.369 201.142 113.399 200.878C113.406 200.815 113.418 200.754 113.434 200.693C113.438 200.677 113.465 200.606 113.444 200.655C113.459 200.621 113.473 200.586 113.491 200.552C113.551 200.439 113.637 200.33 113.762 200.233C113.777 200.221 113.894 200.153 113.806 200.199C113.841 200.18 113.873 200.16 113.911 200.142C113.994 200.1 114.089 200.061 114.196 200.027C114.222 200.018 114.249 200.01 114.277 200.001C114.295 199.996 114.391 199.973 114.313 199.991C114.239 200.008 114.319 199.99 114.331 199.988C114.363 199.981 114.395 199.974 114.428 199.968C114.563 199.942 114.712 199.923 114.865 199.906C114.989 199.892 114.899 199.902 114.869 199.904C114.915 199.9 114.964 199.898 115.011 199.896C115.095 199.892 115.181 199.889 115.269 199.887C115.482 199.883 115.705 199.886 115.933 199.893C115.973 199.894 116.014 199.896 116.055 199.897C116.194 199.902 115.939 199.891 116.08 199.898C116.177 199.903 116.275 199.908 116.372 199.913C116.597 199.926 116.824 199.94 117.051 199.955C117.997 200.017 118.962 200.082 119.792 200.048C120.671 200.012 121.379 199.896 121.965 199.721C123.085 199.387 123.635 198.845 124.026 198.296C124.123 198.161 124.21 198.022 124.292 197.883C124.372 197.747 124.118 197.533 123.601 197.411C123.132 197.3 122.564 197.283 122.479 197.429L122.478 197.427Z" fill="#F32639"/>
<path d="M122.926 197.796C122.972 197.854 123.015 197.912 123.052 197.969C123.071 198 123.089 198.03 123.105 198.06C123.112 198.073 123.118 198.085 123.125 198.098C123.152 198.144 123.108 198.049 123.124 198.094C123.162 198.206 123.192 198.315 123.194 198.421C123.195 198.472 123.19 198.521 123.182 198.57C123.178 198.597 123.17 198.622 123.164 198.649C123.163 198.654 123.152 198.691 123.162 198.658C123.172 198.624 123.157 198.672 123.154 198.677C123.113 198.775 123.053 198.869 122.978 198.959C122.902 199.051 122.81 199.138 122.706 199.222C122.655 199.263 122.601 199.303 122.544 199.343C122.534 199.35 122.443 199.411 122.479 199.387C122.519 199.362 122.472 199.392 122.466 199.395C122.447 199.407 122.428 199.419 122.408 199.431C122.137 199.593 121.824 199.743 121.488 199.885C120.833 200.161 120.075 200.4 119.37 200.659C118.64 200.927 117.992 201.221 117.492 201.563C117.011 201.891 116.702 202.279 116.736 202.727C116.753 202.951 116.859 203.194 117.062 203.442C117.31 203.744 117.719 204.053 118.157 204.361C118.389 204.524 118.623 204.686 118.824 204.849C118.845 204.866 118.954 204.958 118.914 204.923C118.871 204.885 118.968 204.975 118.982 204.989C119.045 205.052 119.1 205.115 119.148 205.177C119.192 205.234 119.231 205.291 119.263 205.347C119.273 205.364 119.314 205.451 119.285 205.383C119.297 205.413 119.308 205.442 119.317 205.471C119.353 205.584 119.362 205.693 119.345 205.797C119.341 205.824 119.332 205.851 119.327 205.877C119.322 205.909 119.332 205.867 119.333 205.864C119.329 205.875 119.324 205.886 119.319 205.897C119.297 205.948 119.267 205.998 119.232 206.046C119.162 206.14 119.066 206.225 118.953 206.307C118.939 206.317 118.883 206.345 118.957 206.305C118.942 206.313 118.929 206.322 118.915 206.33C118.886 206.347 118.855 206.364 118.824 206.38C118.75 206.417 118.67 206.453 118.585 206.487C118.506 206.518 118.421 206.547 118.332 206.575C118.283 206.589 118.232 206.603 118.183 206.617C118.122 206.635 118.212 206.61 118.218 206.609C118.186 206.616 118.156 206.623 118.125 206.63C117.907 206.679 117.665 206.718 117.402 206.746C117.346 206.752 117.288 206.757 117.23 206.763C117.089 206.776 117.336 206.758 117.187 206.766C116.997 206.776 116.803 206.783 116.604 206.788C115.802 206.804 114.962 206.794 114.286 206.887C113.014 207.062 112.463 207.527 112.144 208.011C112.067 208.129 112.001 208.249 111.938 208.37C111.867 208.507 112.107 208.718 112.628 208.841C113.089 208.951 113.671 208.971 113.748 208.824C113.877 208.577 114.016 208.332 114.244 208.109C114.298 208.057 114.357 208.006 114.421 207.957C114.451 207.934 114.482 207.912 114.514 207.89C114.5 207.899 114.458 207.923 114.529 207.881C114.553 207.868 114.577 207.854 114.601 207.841C114.767 207.75 114.973 207.677 115.195 207.606C115.254 207.588 115.194 207.606 115.181 207.609C115.219 207.6 115.256 207.591 115.294 207.583C115.352 207.571 115.411 207.56 115.473 207.549C115.62 207.525 115.777 207.505 115.945 207.491C115.845 207.499 115.973 207.489 115.986 207.488C116.027 207.486 116.067 207.484 116.108 207.482C116.204 207.477 116.301 207.474 116.399 207.471C116.596 207.466 116.798 207.464 116.999 207.462C117.724 207.454 118.43 207.435 119.021 207.35C121.097 207.051 121.831 206.105 120.654 205.035C120.274 204.69 119.727 204.346 119.278 204.001C119.223 203.958 119.172 203.917 119.121 203.875C119.119 203.874 119.049 203.814 119.09 203.85C119.128 203.882 119.077 203.838 119.074 203.835C119.009 203.773 118.947 203.711 118.893 203.649C118.787 203.528 118.713 203.411 118.652 203.295C118.681 203.349 118.656 203.303 118.647 203.277C118.637 203.249 118.628 203.221 118.621 203.194C118.607 203.138 118.598 203.084 118.595 203.03C118.588 202.926 118.605 202.826 118.635 202.729C118.621 202.777 118.634 202.734 118.643 202.712C118.654 202.688 118.667 202.663 118.68 202.639C118.707 202.59 118.738 202.542 118.774 202.495C118.843 202.403 118.927 202.314 119.024 202.23C119.075 202.185 119.129 202.141 119.186 202.098C119.211 202.08 119.236 202.062 119.262 202.044C119.282 202.029 119.381 201.964 119.311 202.009C119.436 201.929 119.572 201.851 119.715 201.777C120.009 201.623 120.336 201.481 120.684 201.346C121.371 201.078 122.144 200.841 122.826 200.572C124.216 200.024 125.398 199.333 124.948 198.331C124.891 198.206 124.817 198.08 124.712 197.95C124.575 197.78 124.039 197.582 123.561 197.548C123.085 197.513 122.779 197.613 122.925 197.794L122.926 197.796Z" fill="#F32639"/>
<path d="M124.158 197.855C124.496 197.827 124.657 197.816 125.019 197.793C125.349 197.772 125.682 197.753 126.019 197.737C126.666 197.706 127.327 197.683 128 197.67C128.674 197.656 129.36 197.651 130.059 197.655C130.236 197.656 130.418 197.661 130.599 197.666C130.769 197.67 130.388 197.654 130.564 197.664C130.611 197.666 130.657 197.668 130.704 197.671C130.799 197.676 130.894 197.682 130.99 197.688C131.372 197.714 131.765 197.751 132.162 197.798C132.253 197.808 132.355 197.817 132.447 197.833C132.15 197.781 132.5 197.84 132.58 197.851C132.792 197.881 133.006 197.913 133.22 197.947C133.637 198.014 134.056 198.089 134.473 198.17C134.584 198.192 134.693 198.214 134.804 198.237C134.84 198.244 134.877 198.252 134.914 198.259C135.114 198.3 134.699 198.213 134.899 198.256C135.121 198.304 135.341 198.352 135.561 198.403C135.985 198.5 136.407 198.604 136.821 198.713C137.038 198.77 137.254 198.829 137.467 198.889C137.556 198.914 137.645 198.939 137.733 198.965C137.786 198.98 137.84 198.996 137.892 199.011C138.047 199.056 137.686 198.949 137.93 199.022C138.721 199.26 139.482 199.517 140.189 199.79C140.28 199.825 140.369 199.86 140.458 199.895C140.589 199.946 140.399 199.87 140.389 199.867C140.434 199.883 140.477 199.903 140.519 199.92C140.689 199.99 140.856 200.062 141.017 200.134C141.328 200.273 141.622 200.416 141.893 200.56C141.955 200.593 142.015 200.627 142.076 200.66C142.203 200.729 141.934 200.575 142.048 200.645C142.079 200.663 142.111 200.681 142.141 200.699C142.262 200.772 142.377 200.844 142.484 200.917C142.581 200.984 142.673 201.05 142.757 201.116C142.795 201.146 142.832 201.176 142.867 201.206C142.884 201.22 142.926 201.247 142.929 201.259C142.867 201.203 142.854 201.192 142.892 201.227C142.905 201.239 142.917 201.25 142.929 201.262C143.069 201.399 143.177 201.533 143.247 201.664C143.255 201.679 143.276 201.702 143.272 201.715C143.291 201.647 143.255 201.672 143.265 201.703C143.274 201.731 143.284 201.759 143.29 201.787C143.307 201.855 143.312 201.92 143.307 201.984C143.304 202.017 143.297 202.048 143.29 202.08C143.28 202.132 143.337 202.106 143.294 202.074C143.307 202.083 143.282 202.105 143.278 202.113C143.247 202.179 143.204 202.243 143.148 202.303C143.098 202.359 143.038 202.412 142.97 202.463C142.954 202.475 142.934 202.486 142.92 202.499C142.881 202.532 143.008 202.446 142.93 202.492C142.875 202.524 142.82 202.556 142.76 202.587C142.681 202.627 142.597 202.666 142.501 202.702C142.457 202.718 142.412 202.733 142.364 202.748C142.348 202.753 142.332 202.757 142.316 202.762C142.188 202.802 142.438 202.736 142.339 202.757C142.143 202.799 141.938 202.831 141.703 202.855C141.579 202.867 141.909 202.843 141.775 202.849C141.743 202.85 141.713 202.853 141.681 202.854C141.63 202.856 141.576 202.858 141.522 202.859C141.387 202.862 141.246 202.86 141.103 202.857C140.877 202.853 141.302 202.869 141.094 202.857C141.021 202.853 140.949 202.848 140.876 202.843C140.727 202.832 140.576 202.818 140.423 202.802C140.359 202.795 140.293 202.787 140.228 202.779C140.149 202.77 140.024 202.744 140.303 202.79C140.263 202.783 140.222 202.779 140.183 202.773C140.019 202.75 139.854 202.725 139.688 202.697C139.532 202.672 139.376 202.644 139.219 202.614C139.132 202.598 139.044 202.581 138.957 202.563C138.857 202.543 138.591 202.472 138.882 202.549C138.546 202.461 138.171 202.392 137.828 202.308C137.442 202.213 137.06 202.112 136.683 202.008C136.504 201.959 136.325 201.908 136.147 201.857C136.065 201.834 135.983 201.81 135.902 201.786C135.844 201.769 135.661 201.719 135.93 201.794C135.863 201.776 135.797 201.755 135.732 201.735C135.346 201.619 134.965 201.5 134.588 201.379C133.807 201.128 133.046 200.868 132.299 200.602C131.531 200.329 130.78 200.051 130.044 199.767C129.693 199.633 129.346 199.497 129.002 199.361C128.842 199.297 128.683 199.234 128.524 199.17C128.481 199.152 128.438 199.135 128.396 199.118C128.236 199.054 128.586 199.196 128.428 199.131C128.345 199.097 128.261 199.063 128.178 199.029C127.098 198.587 126.042 198.136 125.053 197.675C124.882 197.596 124.714 197.515 124.55 197.435C124.206 197.266 123.563 197.153 123.239 197.212C122.903 197.273 122.903 197.448 123.271 197.628C124.162 198.065 125.146 198.49 126.141 198.908C127.551 199.5 129.018 200.081 130.542 200.64C132.129 201.223 133.781 201.781 135.524 202.29C136.965 202.711 138.56 203.119 140.105 203.345C140.868 203.456 141.603 203.527 142.277 203.529C142.966 203.532 143.512 203.452 143.95 203.327C144.478 203.176 144.83 202.938 145.014 202.683C145.204 202.419 145.202 202.118 145.008 201.786C144.259 200.498 140.594 199.099 137.193 198.21C135.383 197.736 133.465 197.359 131.623 197.146C130.74 197.043 129.892 196.992 129.103 196.987C127.645 196.978 126.239 197.009 124.895 197.077C124.184 197.113 123.492 197.16 122.814 197.215C122.438 197.246 122.499 197.475 122.845 197.632C123.261 197.819 123.754 197.887 124.156 197.855L124.158 197.855Z" fill="#F32639"/>
<path d="M147.706 246.564C134.71 265.655 102.768 270.928 76.4654 260.502C50.1679 250.073 39.9069 224.652 52.9021 205.56C65.8974 186.469 97.2217 180.938 123.521 191.368C149.819 201.797 160.698 227.477 147.706 246.564Z" fill="#C4BAAB"/>
</g>
<path d="M69.4539 53.9702C80.7471 49.9724 100.057 49.0354 115.191 53.9702C130.325 58.905 138.342 82.3373 138.343 87.6949C138.343 88.6543 138.341 90.3689 138.237 92.5855L161.494 107.125C177.78 117.931 190.057 138.757 190.292 153.452L196.503 214.956V281.576C196.503 293.489 180.128 306.537 158.106 315.895C136.084 325.253 122.309 326.225 100.51 326.376C77.6861 326.533 45.3198 315.943 45.1736 315.895C27.5405 307.651 12.4226 298.45 12.4226 286.537L9.59937 153.452C9.59937 138.679 16.9204 121.74 33.1863 110.817L49.1824 99.8003C47.3656 93.3614 46.3026 87.5663 46.3025 84.4536C46.3025 75.9583 58.1606 57.9681 69.4539 53.9702Z" fill="#F3F3FF" fill-opacity="0.44"/>
<path d="M62.113 113.067C62.113 114.093 62.8196 114.98 63.8235 115.191C68.6595 116.208 82.7209 118.973 92.6049 118.955C102.341 118.937 116.177 116.204 120.968 115.192C121.971 114.98 122.678 114.093 122.678 113.068V113.068C122.678 111.732 121.5 110.701 120.175 110.875C114.771 111.584 101.764 113.157 92.6049 113.168C83.3002 113.179 70.0745 111.587 64.6166 110.874C63.2918 110.701 62.113 111.731 62.113 113.067V113.067Z" fill="#5D95C8"/>
<path d="M33.6812 125.141V125.141C25.5623 132.19 20.8994 142.414 20.8994 153.166V161.376" stroke="white" stroke-opacity="0.44" stroke-width="7.92441" stroke-linecap="round"/>
<ellipse opacity="0.55" cx="104.463" cy="288.19" rx="90.9108" ry="38.032" fill="#D9D9D9"/>
</g>
<defs>
<clipPath id="clip0_43_941">
<rect width="200" height="335" fill="white"/>
</clipPath>
</defs>
</svg>
