<svg width="200" height="235" viewBox="0 0 200 235" fill="none" xmlns="http://www.w3.org/2000/svg">
<path d="M82.9666 49.0254C93.0965 49.0255 103.737 51.7642 109.419 53.4834C112.027 54.2727 113.923 56.4607 114.489 59.126L116.929 70.6074C117.621 73.8655 116.167 77.1607 113.05 78.334C107.656 80.364 97.8113 83.0484 82.9666 83.3564C67.4869 83.6777 57.5392 80.5926 52.3787 78.3271C49.6362 77.1232 48.3952 74.1696 48.8914 71.2158L50.867 59.4561C51.3451 56.61 53.3291 54.2498 56.1004 53.4443C62.0232 51.723 72.9118 49.0254 82.9666 49.0254Z" fill="#445C8C"/>
<mask id="mask0_43_942" style="mask-type:luminance" maskUnits="userSpaceOnUse" x="0" y="0" width="178" height="235">
<path d="M152.613 68.3242C167.034 75.9347 175.133 85.8772 175.342 96.2256L177.097 183.433V219.809C177.096 228.199 163.11 235 145.857 235H31.2393C13.9862 235 0.000252663 228.199 0 219.809V98.2168C0.000154019 87.813 7.98252 75.8842 22.3857 68.1914L58.9727 48.6504H58.8271V13.6611H55.2217C47.4645 13.6611 41.176 10.6033 41.1758 6.83105C41.1758 3.05868 47.4643 0 55.2217 0H119.389C127.146 8.97635e-05 133.435 3.05873 133.435 6.83105C133.434 10.6033 127.146 13.661 119.389 13.6611H115.257V48.6504H115.334L152.613 68.3242Z" fill="white"/>
</mask>
<g mask="url(#mask0_43_942)">
<path d="M64.0002 129.644C62.2997 145.593 59.5 150.387 56 170.018C60.6776 170.989 67.5887 175.162 75.3238 175.777C76.7526 175.891 78.3538 174.976 78.2777 173.727C78.1514 171.657 96.0889 151.396 104 130.775L87.5 128.632C71.7432 128.395 75.487 128.422 64.0002 129.644C64.8793 130.775 66.5 132.859 64.0002 129.644Z" fill="white"/>
<path d="M115.74 133.154C115.709 134.588 104.729 135.167 91.2141 134.447C77.7 133.727 66.5729 131.869 66.6041 130.434C66.6352 129 77.8105 128.532 91.3258 129.253C104.84 129.973 115.771 131.72 115.74 133.154Z" fill="#EFE5D7"/>
<path d="M75.9042 142.907C76.2318 148.624 76.2465 157.427 73.6534 163.075C71.8218 167.064 72.1133 173.449 72.2744 175.62C96.6924 178.617 118 170.719 118 170.719C113.593 163.595 114.911 148.079 114.552 136.733C114.515 135.556 114.622 136.49 114.552 135.313C114.435 133.335 114.5 134.262 112.5 131.457C105 130.406 111.774 131.679 98.2671 130.074C88.7183 129.99 81.5 131.457 75.5 131.107C73.6534 133.561 74.6949 133.911 74.9999 135.664C75.118 136.343 74.4999 136.733 75.9042 142.907Z" fill="#EBDAB7"/>
<path d="M111.963 137.794C111.963 137.794 99.233 137.976 89.0249 138.008C78.9722 138.04 63.0003 137.705 63.0003 137.705" stroke="#F32639" stroke-width="2.82817"/>
<path d="M112.571 139.381C112.571 139.381 100.134 139.822 90.1322 140.032C80.2828 140.239 63.2159 140.419 63.2159 140.419" stroke="#F32639" stroke-width="2.82817"/>
<path d="M112.344 138.598C112.344 138.598 95.5648 138.883 84.9758 138.893C74.5481 138.902 63.3805 138.797 63.3805 138.797" stroke="#F32639" stroke-width="2.82817"/>
<path d="M109.338 138.861C112.604 140.048 116.158 141.193 119.227 142.406C119.526 142.525 119.818 142.643 120.1 142.763C120.231 142.818 120.359 142.874 120.485 142.93C120.51 142.941 120.715 143.034 120.589 142.976C120.661 143.009 120.732 143.042 120.801 143.075C121.048 143.193 121.281 143.312 121.493 143.431C121.597 143.49 121.696 143.548 121.788 143.607C121.829 143.633 121.868 143.659 121.907 143.685C121.93 143.701 121.953 143.717 121.976 143.733C122 143.75 121.995 143.746 121.961 143.721C121.974 143.731 121.986 143.74 121.999 143.75C122.152 143.867 122.274 143.984 122.355 144.097C122.372 144.122 122.386 144.146 122.401 144.17C122.372 144.122 122.412 144.201 122.416 144.213C122.436 144.27 122.442 144.325 122.437 144.379C122.434 144.405 122.424 144.43 122.418 144.455C122.412 144.484 122.441 144.427 122.42 144.454C122.409 144.466 122.403 144.479 122.393 144.491C122.359 144.534 122.31 144.575 122.247 144.612C122.245 144.614 122.172 144.652 122.221 144.628C122.269 144.604 122.19 144.641 122.188 144.642C122.154 144.656 122.117 144.67 122.078 144.682C122.035 144.697 121.989 144.71 121.94 144.723C121.919 144.729 121.897 144.734 121.874 144.74C121.858 144.743 121.732 144.767 121.816 144.753C121.906 144.738 121.777 144.759 121.769 144.76C121.744 144.764 121.717 144.768 121.691 144.772C121.637 144.78 121.583 144.787 121.526 144.794C121.454 144.802 121.381 144.809 121.305 144.816C121.275 144.818 121.243 144.82 121.213 144.823C121.082 144.834 121.349 144.818 121.195 144.824C120.89 144.837 120.575 144.839 120.236 144.833C120.101 144.831 120.235 144.834 120.26 144.834C120.212 144.833 120.163 144.831 120.114 144.829C120.025 144.825 119.936 144.821 119.845 144.816C119.664 144.806 119.479 144.793 119.293 144.778C119.19 144.77 119.085 144.761 118.979 144.751C118.915 144.745 118.696 144.722 118.87 144.741C118.668 144.719 118.465 144.696 118.261 144.669C118.068 144.644 117.875 144.618 117.683 144.589C117.587 144.574 117.491 144.559 117.395 144.544C117.358 144.538 117.244 144.517 117.414 144.547C117.351 144.536 117.288 144.525 117.225 144.514C116.853 144.448 116.485 144.375 116.131 144.294C116.088 144.284 116.047 144.274 116.004 144.264C116.155 144.3 116.006 144.265 115.969 144.256C115.871 144.232 115.773 144.208 115.677 144.184C115.48 144.135 115.285 144.085 115.094 144.033C114.742 143.939 114.402 143.841 114.079 143.739C114.047 143.729 114.006 143.718 113.979 143.707C113.995 143.714 114.129 143.757 114.008 143.717C113.937 143.693 113.865 143.669 113.794 143.645C113.649 143.596 113.508 143.545 113.371 143.494C113.119 143.4 112.889 143.304 112.669 143.207C112.547 143.154 112.755 143.249 112.683 143.214C112.662 143.203 112.638 143.193 112.616 143.182C112.566 143.158 112.517 143.134 112.469 143.11C112.369 143.06 112.273 143.01 112.184 142.959C112.008 142.861 111.857 142.764 111.715 142.666C111.693 142.651 111.64 142.627 111.732 142.679C111.715 142.669 111.703 142.657 111.69 142.647C111.659 142.624 111.628 142.6 111.599 142.576C111.538 142.526 111.481 142.476 111.428 142.427C111.328 142.331 111.243 142.237 111.173 142.144C111.137 142.097 111.104 142.05 111.076 142.003C111.061 141.98 111.048 141.956 111.034 141.933C111.03 141.926 111.013 141.892 111.028 141.922C111.045 141.956 111.019 141.902 111.015 141.896C110.97 141.799 110.937 141.704 110.915 141.61C110.737 140.847 111.213 140.177 111.486 139.481C111.517 139.401 111.546 139.321 111.57 139.24C111.601 139.137 111.156 138.975 110.738 138.923C110.262 138.864 109.958 138.909 109.925 139.019C109.708 139.749 109.166 140.43 109.241 141.205C109.316 141.977 110.084 142.877 112.485 143.726C113.823 144.198 115.521 144.644 117.288 144.936C118.954 145.212 120.782 145.362 122.121 145.287C122.875 145.246 123.436 145.141 123.778 144.966C124.122 144.79 124.133 144.55 123.997 144.297C123.731 143.801 122.689 143.255 121.523 142.744C120.271 142.197 118.808 141.66 117.345 141.136C115.541 140.489 113.663 139.854 111.841 139.21C111.385 139.049 110.933 138.887 110.487 138.725C110.168 138.609 109.628 138.525 109.324 138.569C109.036 138.609 108.996 138.737 109.337 138.861L109.338 138.861Z" fill="#F32639"/>
<path d="M108.647 138.493C108.49 138.69 108.317 138.885 108.088 139.068C107.976 139.157 107.852 139.243 107.709 139.325C107.671 139.347 107.632 139.368 107.591 139.389C107.592 139.389 107.541 139.414 107.568 139.401C107.6 139.386 107.534 139.417 107.528 139.42C107.442 139.46 107.349 139.498 107.25 139.535C107.062 139.604 106.849 139.667 106.605 139.721C106.582 139.726 106.557 139.731 106.534 139.736C106.455 139.753 106.608 139.725 106.519 139.739C106.458 139.748 106.402 139.759 106.341 139.769C106.202 139.791 106.054 139.81 105.898 139.826C105.82 139.834 105.74 139.841 105.658 139.847C105.627 139.849 105.595 139.851 105.565 139.854C105.461 139.862 105.659 139.851 105.546 139.855C105.365 139.861 105.186 139.868 104.994 139.869C104.82 139.87 104.64 139.867 104.458 139.864C104.438 139.863 104.314 139.86 104.435 139.864C104.399 139.862 104.361 139.861 104.325 139.86C104.214 139.855 104.102 139.85 103.989 139.845C103.19 139.808 102.365 139.754 101.61 139.75C100.865 139.746 100.246 139.804 99.7883 139.917C98.9525 140.123 98.814 140.511 98.8123 140.884C98.8104 141.289 98.9497 141.711 98.8029 142.096C98.7829 142.148 98.7651 142.187 98.7481 142.219C98.7208 142.269 98.6906 142.319 98.656 142.368C98.5867 142.467 98.5065 142.565 98.4036 142.658C98.3551 142.702 98.3008 142.745 98.2334 142.785C98.216 142.795 98.1975 142.806 98.1772 142.816C98.1845 142.813 98.2157 142.798 98.1769 142.814C98.1262 142.835 98.0726 142.855 98.0108 142.874C97.9837 142.882 97.9537 142.889 97.9252 142.897C97.9232 142.898 97.847 142.915 97.8957 142.905C97.9499 142.893 97.8468 142.913 97.8337 142.915C97.7984 142.92 97.7612 142.925 97.7236 142.93C97.6578 142.938 97.5863 142.944 97.5172 142.951C97.4992 142.952 97.3914 142.959 97.5011 142.953C97.4477 142.956 97.391 142.958 97.3353 142.96C97.1756 142.965 97.0089 142.966 96.8375 142.964C96.7384 142.963 96.6374 142.961 96.5355 142.958C96.4974 142.957 96.4588 142.956 96.4197 142.955C96.5275 142.958 96.361 142.953 96.3422 142.952C95.9346 142.936 95.5188 142.913 95.1076 142.894C94.2782 142.856 93.4909 142.843 92.8268 142.899C92.1476 142.957 91.7207 143.112 91.7253 143.341C91.7294 143.545 92.0559 143.779 92.1907 143.995C92.1984 144.007 92.2047 144.019 92.2115 144.03C92.2073 144.023 92.1924 143.987 92.2083 144.027C92.2162 144.047 92.2247 144.068 92.2311 144.088C92.2449 144.133 92.2519 144.178 92.2525 144.222C92.2524 144.263 92.2465 144.303 92.2346 144.343C92.2289 144.361 92.2211 144.379 92.2144 144.397C92.2057 144.419 92.2182 144.389 92.2199 144.387C92.2099 144.402 92.202 144.417 92.1916 144.432C92.1396 144.506 92.0657 144.576 91.9704 144.642C91.9225 144.675 91.8654 144.706 91.8112 144.738C91.7806 144.756 91.8262 144.731 91.8294 144.729C91.8127 144.737 91.7961 144.745 91.7789 144.753C91.74 144.771 91.6996 144.788 91.6578 144.804C91.5123 144.862 91.3469 144.914 91.1608 144.96C91.0774 144.981 90.9887 145.001 90.8976 145.02C91.0236 144.994 90.8537 145.027 90.8275 145.031C90.772 145.041 90.7155 145.05 90.6576 145.058C90.4336 145.092 90.1924 145.119 89.9345 145.139C89.876 145.144 89.8171 145.148 89.7577 145.152C89.6364 145.16 89.7532 145.152 89.7761 145.151C89.7407 145.153 89.7063 145.155 89.6705 145.156C89.5285 145.163 89.3827 145.167 89.2332 145.17C89.1021 145.172 88.9682 145.172 88.8319 145.171C88.7536 145.171 88.6748 145.17 88.5946 145.168C88.5536 145.167 88.3029 145.159 88.4873 145.166C88.0909 145.152 87.7653 145.204 87.9127 145.339C88.035 145.45 88.4977 145.606 88.9223 145.621C91.7478 145.719 93.642 145.296 93.8763 144.572C93.9322 144.398 93.8685 144.205 93.7052 144.005C93.6158 143.896 93.4915 143.785 93.4134 143.676C93.4034 143.663 93.3944 143.649 93.3853 143.635C93.3913 143.644 93.3975 143.672 93.3838 143.63C93.3762 143.607 93.37 143.584 93.3692 143.562C93.3687 143.552 93.3869 143.498 93.3676 143.529C93.383 143.503 93.4237 143.483 93.4425 143.458C93.463 143.431 93.3895 143.477 93.4406 143.457C93.4556 143.451 93.4701 143.444 93.4856 143.439C93.5283 143.423 93.5806 143.41 93.6282 143.396C93.6461 143.39 93.7257 143.378 93.6233 143.395C93.654 143.39 93.6843 143.385 93.716 143.38C93.781 143.37 93.8487 143.362 93.9204 143.355C93.993 143.348 94.0685 143.342 94.1463 143.337C94.0206 143.345 94.2085 143.335 94.2483 143.334C94.4194 143.328 94.5971 143.326 94.78 143.328C94.8717 143.328 94.9653 143.33 95.0588 143.332C95.096 143.332 95.3175 143.339 95.1811 143.334C95.3783 143.341 95.5791 143.351 95.7805 143.361C96.2479 143.384 96.7138 143.406 97.1706 143.421C98.0497 143.448 98.8353 143.423 99.3634 143.293C99.857 143.171 100.038 142.961 100.193 142.764C100.502 142.368 100.555 141.939 100.49 141.487C100.462 141.293 100.437 141.1 100.473 140.915C100.481 140.871 100.493 140.827 100.51 140.785C100.514 140.773 100.54 140.724 100.52 140.758C100.534 140.734 100.548 140.71 100.565 140.686C100.622 140.606 100.703 140.531 100.817 140.462C100.83 140.454 100.937 140.406 100.857 140.439C100.889 140.425 100.918 140.411 100.952 140.398C101.028 140.369 101.113 140.342 101.209 140.317C101.233 140.311 101.257 140.306 101.282 140.3C101.298 140.296 101.383 140.28 101.314 140.292C101.248 140.304 101.319 140.292 101.33 140.29C101.359 140.285 101.387 140.281 101.417 140.276C101.538 140.258 101.67 140.245 101.807 140.233C101.917 140.223 101.837 140.23 101.81 140.231C101.851 140.229 101.895 140.227 101.937 140.225C102.012 140.223 102.088 140.221 102.166 140.22C102.355 140.217 102.553 140.218 102.755 140.223C102.79 140.224 102.827 140.225 102.863 140.226C102.986 140.23 102.76 140.222 102.885 140.227C102.971 140.23 103.057 140.234 103.143 140.237C103.343 140.246 103.544 140.256 103.744 140.267C104.582 140.31 105.436 140.355 106.174 140.331C106.954 140.306 107.587 140.224 108.113 140.102C109.118 139.867 109.625 139.487 109.991 139.103C110.082 139.007 110.163 138.91 110.241 138.812C110.317 138.717 110.098 138.567 109.644 138.482C109.232 138.404 108.729 138.393 108.648 138.494L108.647 138.493Z" fill="#F32639"/>
<path d="M109.056 138.752C109.095 138.793 109.131 138.833 109.162 138.873C109.179 138.895 109.193 138.916 109.207 138.937C109.212 138.946 109.217 138.955 109.223 138.964C109.245 138.996 109.209 138.93 109.222 138.961C109.252 139.039 109.275 139.116 109.273 139.19C109.272 139.226 109.266 139.261 109.257 139.295C109.253 139.313 109.245 139.331 109.239 139.35C109.237 139.353 109.226 139.38 109.237 139.356C109.247 139.332 109.231 139.366 109.228 139.37C109.188 139.439 109.132 139.505 109.062 139.568C108.991 139.632 108.907 139.693 108.811 139.752C108.764 139.781 108.715 139.809 108.663 139.837C108.653 139.842 108.57 139.884 108.604 139.868C108.64 139.85 108.597 139.871 108.592 139.874C108.574 139.882 108.557 139.89 108.539 139.898C108.292 140.013 108.009 140.118 107.705 140.217C107.112 140.411 106.43 140.579 105.793 140.761C105.135 140.948 104.548 141.155 104.091 141.395C103.652 141.625 103.364 141.897 103.379 142.211C103.386 142.368 103.472 142.539 103.644 142.713C103.854 142.924 104.207 143.141 104.587 143.357C104.787 143.471 104.99 143.585 105.163 143.699C105.181 143.711 105.274 143.776 105.241 143.751C105.204 143.724 105.287 143.787 105.299 143.797C105.352 143.841 105.399 143.885 105.44 143.929C105.477 143.969 105.51 144.009 105.536 144.048C105.545 144.06 105.577 144.121 105.554 144.073C105.564 144.094 105.573 144.115 105.58 144.135C105.608 144.215 105.612 144.291 105.594 144.364C105.589 144.383 105.58 144.401 105.575 144.42C105.569 144.442 105.579 144.413 105.58 144.411C105.576 144.418 105.572 144.426 105.567 144.434C105.545 144.47 105.517 144.505 105.484 144.539C105.419 144.604 105.331 144.664 105.227 144.722C105.214 144.728 105.164 144.748 105.231 144.72C105.217 144.726 105.205 144.732 105.192 144.738C105.166 144.75 105.138 144.761 105.109 144.772C105.043 144.799 104.97 144.824 104.894 144.848C104.822 144.869 104.746 144.89 104.665 144.909C104.621 144.92 104.575 144.929 104.531 144.939C104.476 144.952 104.557 144.934 104.562 144.933C104.534 144.938 104.507 144.943 104.48 144.948C104.283 144.982 104.067 145.01 103.832 145.03C103.782 145.034 103.73 145.038 103.679 145.041C103.553 145.051 103.773 145.038 103.64 145.044C103.471 145.051 103.298 145.056 103.12 145.059C102.406 145.07 101.659 145.064 101.055 145.129C99.9176 145.252 99.4114 145.578 99.1108 145.918C99.0377 146 98.9754 146.085 98.915 146.169C98.8465 146.266 99.0528 146.414 99.5127 146.5C99.9184 146.577 100.435 146.591 100.509 146.488C100.633 146.315 100.765 146.143 100.976 145.986C101.025 145.95 101.079 145.914 101.139 145.879C101.166 145.864 101.194 145.848 101.223 145.833C101.21 145.839 101.172 145.856 101.237 145.827C101.259 145.817 101.28 145.807 101.302 145.798C101.453 145.734 101.639 145.683 101.839 145.633C101.892 145.62 101.838 145.633 101.827 145.635C101.86 145.629 101.893 145.623 101.928 145.617C101.98 145.609 102.033 145.601 102.088 145.594C102.219 145.576 102.36 145.562 102.51 145.552C102.421 145.558 102.535 145.551 102.547 145.55C102.583 145.549 102.619 145.547 102.656 145.546C102.741 145.543 102.827 145.54 102.915 145.538C103.09 145.535 103.27 145.533 103.449 145.532C104.094 145.526 104.722 145.513 105.252 145.453C107.108 145.243 107.794 144.579 106.784 143.829C106.458 143.587 105.984 143.346 105.596 143.104C105.549 143.074 105.505 143.045 105.46 143.016C105.459 143.015 105.399 142.973 105.434 142.999C105.466 143.021 105.423 142.99 105.42 142.988C105.364 142.944 105.311 142.901 105.266 142.857C105.176 142.773 105.114 142.691 105.064 142.609C105.088 142.647 105.067 142.615 105.06 142.597C105.052 142.577 105.045 142.557 105.04 142.538C105.029 142.499 105.023 142.461 105.022 142.423C105.02 142.35 105.038 142.28 105.068 142.212C105.054 142.246 105.067 142.216 105.076 142.201C105.086 142.183 105.099 142.166 105.111 142.149C105.137 142.115 105.166 142.081 105.199 142.048C105.264 141.983 105.342 141.922 105.431 141.862C105.478 141.831 105.528 141.8 105.58 141.77C105.603 141.757 105.626 141.744 105.65 141.731C105.668 141.721 105.758 141.676 105.694 141.707C105.808 141.651 105.932 141.597 106.062 141.544C106.329 141.437 106.625 141.337 106.939 141.242C107.559 141.054 108.255 140.888 108.871 140.699C110.127 140.314 111.202 139.829 110.836 139.127C110.791 139.039 110.728 138.951 110.64 138.86C110.524 138.74 110.053 138.602 109.63 138.578C109.207 138.554 108.932 138.624 109.055 138.751L109.056 138.752Z" fill="#F32639"/>
<path d="M109.935 138.795C110.238 138.776 110.382 138.768 110.706 138.751C111.001 138.737 111.3 138.724 111.601 138.712C112.179 138.69 112.771 138.674 113.372 138.665C113.974 138.655 114.587 138.651 115.211 138.654C115.37 138.655 115.532 138.658 115.694 138.661C115.845 138.664 115.505 138.653 115.662 138.66C115.704 138.662 115.745 138.663 115.787 138.665C115.871 138.668 115.956 138.672 116.041 138.677C116.382 138.695 116.731 138.721 117.085 138.754C117.165 138.761 117.256 138.767 117.338 138.778C117.074 138.742 117.384 138.783 117.456 138.791C117.644 138.812 117.834 138.834 118.024 138.858C118.394 138.905 118.766 138.958 119.135 139.015C119.233 139.03 119.33 139.045 119.428 139.061C119.46 139.066 119.493 139.072 119.526 139.077C119.703 139.105 119.336 139.044 119.513 139.075C119.709 139.108 119.904 139.142 120.099 139.177C120.474 139.246 120.847 139.319 121.213 139.395C121.405 139.435 121.596 139.476 121.784 139.518C121.863 139.536 121.941 139.553 122.019 139.571C122.066 139.582 122.113 139.593 122.159 139.603C122.296 139.635 121.977 139.56 122.192 139.611C122.89 139.778 123.561 139.958 124.184 140.149C124.264 140.174 124.341 140.199 124.42 140.223C124.535 140.259 124.368 140.206 124.359 140.203C124.399 140.215 124.437 140.229 124.473 140.24C124.623 140.29 124.77 140.34 124.911 140.391C125.183 140.488 125.441 140.588 125.678 140.689C125.732 140.713 125.785 140.736 125.838 140.76C125.949 140.808 125.715 140.7 125.814 140.749C125.841 140.762 125.869 140.774 125.895 140.787C126.001 140.838 126.1 140.889 126.194 140.94C126.278 140.986 126.358 141.033 126.431 141.079C126.464 141.1 126.495 141.121 126.526 141.142C126.54 141.152 126.577 141.171 126.579 141.18C126.525 141.14 126.515 141.133 126.547 141.157C126.558 141.165 126.569 141.174 126.579 141.182C126.7 141.278 126.791 141.372 126.849 141.464C126.856 141.474 126.873 141.49 126.87 141.499C126.889 141.452 126.856 141.47 126.863 141.491C126.87 141.511 126.878 141.53 126.883 141.55C126.896 141.597 126.899 141.644 126.891 141.688C126.888 141.711 126.88 141.733 126.873 141.756C126.862 141.792 126.914 141.774 126.877 141.751C126.888 141.758 126.865 141.773 126.861 141.779C126.831 141.825 126.79 141.87 126.739 141.912C126.692 141.951 126.636 141.989 126.574 142.024C126.559 142.033 126.541 142.041 126.528 142.049C126.493 142.073 126.609 142.012 126.537 142.045C126.487 142.067 126.437 142.09 126.383 142.111C126.31 142.14 126.234 142.167 126.147 142.192C126.108 142.203 126.066 142.214 126.023 142.224C126.009 142.228 125.994 142.231 125.98 142.234C125.864 142.262 126.089 142.216 126.001 142.231C125.824 142.26 125.64 142.283 125.429 142.299C125.318 142.308 125.614 142.291 125.494 142.295C125.465 142.296 125.438 142.298 125.41 142.299C125.364 142.3 125.315 142.302 125.268 142.303C125.147 142.305 125.021 142.303 124.893 142.301C124.692 142.298 125.071 142.31 124.885 142.301C124.82 142.298 124.756 142.295 124.691 142.291C124.559 142.284 124.424 142.274 124.288 142.262C124.231 142.258 124.173 142.252 124.115 142.247C124.045 142.24 123.934 142.222 124.181 142.254C124.146 142.249 124.109 142.246 124.074 142.242C123.929 142.226 123.782 142.209 123.635 142.189C123.497 142.171 123.358 142.152 123.219 142.131C123.142 142.12 123.065 142.108 122.987 142.095C122.898 142.081 122.663 142.032 122.92 142.085C122.624 142.024 122.291 141.975 121.987 141.916C121.646 141.85 121.308 141.779 120.976 141.707C120.818 141.672 120.659 141.636 120.502 141.601C120.43 141.584 120.358 141.567 120.286 141.551C120.235 141.539 120.073 141.504 120.31 141.557C120.251 141.544 120.193 141.529 120.136 141.515C119.795 141.434 119.459 141.35 119.127 141.265C118.438 141.089 117.767 140.907 117.109 140.721C116.433 140.53 115.773 140.334 115.124 140.136C114.816 140.041 114.511 139.946 114.209 139.851C114.068 139.806 113.928 139.762 113.788 139.717C113.751 139.705 113.713 139.692 113.675 139.681C113.535 139.635 113.842 139.735 113.704 139.69C113.631 139.666 113.557 139.642 113.484 139.618C112.535 139.308 111.607 138.992 110.74 138.669C110.591 138.613 110.443 138.557 110.299 138.501C109.998 138.382 109.428 138.303 109.137 138.344C108.834 138.388 108.829 138.51 109.151 138.636C109.931 138.943 110.795 139.241 111.669 139.534C112.908 139.948 114.198 140.356 115.54 140.748C116.936 141.157 118.392 141.548 119.931 141.904C121.203 142.199 122.613 142.485 123.985 142.643C124.663 142.721 125.317 142.771 125.919 142.772C126.534 142.774 127.024 142.718 127.419 142.63C127.896 142.524 128.218 142.357 128.392 142.178C128.571 141.993 128.579 141.781 128.418 141.549C127.793 140.646 124.568 139.665 121.563 139.042C119.963 138.71 118.263 138.446 116.625 138.296C115.841 138.224 115.085 138.189 114.381 138.186C113.079 138.18 111.823 138.201 110.62 138.249C109.984 138.275 109.364 138.308 108.757 138.347C108.42 138.368 108.466 138.529 108.77 138.639C109.136 138.771 109.573 138.818 109.933 138.795L109.935 138.795Z" fill="#F32639"/>
<path d="M130.967 173.031C119.57 186.39 91.2885 190.031 67.9064 182.679C44.5286 175.325 35.2701 157.489 46.6673 144.13C58.0646 130.771 85.7962 126.947 109.176 134.302C132.554 141.656 142.362 159.674 130.967 173.031Z" fill="#C4BAAB"/>
</g>
<path d="M61.5 37.8592C71.5 35.0547 88.5986 34.3974 102 37.8592C115.401 41.3209 122.5 57.7594 122.5 61.5174C122.5 62.1905 122.498 63.3931 122.406 64.9481L143 75.1473C157.421 82.728 168.292 98.1919 168.5 108.5C168.708 118.808 174 150.79 174 150.79L168.5 178.49V184C168.5 192.357 156.5 211.435 137 218C117.5 224.564 108.302 228.844 89 228.95C68.7594 229.061 44.0384 216.519 44 216.5C30.5134 211.505 17.5696 189.666 14.293 178.422C13.4547 175.545 13.074 172.552 12.3271 169.65C10.1045 161.015 5.5 141.069 5.5 124C5.50006 101.5 14.9826 85.3999 29.3857 77.7371L43.5498 70.0086C41.9411 65.4917 41 61.4264 41 59.243C41.0004 53.2834 51.5002 40.6636 61.5 37.8592Z" fill="#F3F3FF" fill-opacity="0.44"/>
<path d="M55 79.2605C55 80.0047 55.5251 80.6396 56.259 80.7629C60.2792 81.438 73.0666 83.4592 82 83.4463C90.8027 83.4336 103.389 81.435 107.372 80.7635C108.105 80.6398 108.63 80.0051 108.63 79.2612V79.2612C108.63 78.3437 107.838 77.6285 106.925 77.7247C102.502 78.1909 90.4164 79.3785 82 79.3864C73.453 79.3944 61.1695 78.1929 56.7043 77.724C55.7921 77.6282 55 78.3433 55 79.2605V79.2605Z" fill="#5D95C8"/>
<path d="M29.8242 87.7852V87.7852C22.7388 92.6587 18.5061 100.707 18.5061 109.307V113.204" stroke="white" stroke-opacity="0.44" stroke-width="7.92441" stroke-linecap="round"/>
<ellipse opacity="0.55" cx="92.5" cy="162.5" rx="80.5" ry="66.5" fill="#D9D9D9"/>
</svg>
