<svg width="200" height="335" viewBox="0 0 200 335" fill="none" xmlns="http://www.w3.org/2000/svg">
<g clip-path="url(#clip0_43_943)">
<path d="M82.966 265.259C93.4157 265.259 104.409 261.102 109.942 258.673C112.259 257.655 113.799 255.48 114.172 252.977L117.451 230.97C117.845 228.328 116.867 225.674 114.569 224.312C109.622 221.381 99.3335 216.777 82.967 216.292C65.9386 215.788 55.604 221.162 50.9728 224.394C49.0337 225.746 48.2422 228.096 48.5187 230.444L51.1418 252.718C51.4538 255.366 53.0704 257.679 55.5275 258.716C61.3 261.151 72.5779 265.259 82.966 265.259Z" fill="#445C8C"/>
<mask id="mask0_43_943" style="mask-type:luminance" maskUnits="userSpaceOnUse" x="0" y="0" width="178" height="336">
<path d="M152.613 237.732C167.034 226.877 175.133 212.697 175.342 197.937L177.097 73.5518V21.668C177.097 9.70099 163.11 0.000170934 145.857 0H31.2393C13.9861 7.57358e-05 9.28669e-05 9.70093 0 21.668V195.096C0 209.935 7.98238 226.949 22.3857 237.922L58.9727 265.793H58.8271V315.699H55.2217C47.4645 315.699 41.176 320.061 41.1758 325.441C41.1758 330.822 47.4643 335.185 55.2217 335.185H119.389C127.146 335.184 133.435 330.822 133.435 325.441C133.434 320.061 127.146 315.699 119.389 315.699H115.257V265.793H115.334L152.613 237.732Z" fill="white"/>
</mask>
<g mask="url(#mask0_43_943)">
<path d="M64.0002 150.271C62.2997 127.522 59.5 120.685 56 92.6848C60.6776 91.299 67.5887 85.3478 75.3238 84.4698C76.7526 84.3076 78.3538 85.6134 78.2777 87.3936C78.1514 90.3465 96.0889 119.245 104 148.658L87.5 151.714C71.7432 152.052 75.487 152.013 64.0002 150.271C64.8793 148.658 66.5 145.685 64.0002 150.271Z" fill="white"/>
<path d="M115.74 145.264C115.709 143.218 104.729 142.392 91.214 143.42C77.6999 144.447 66.5728 147.097 66.6039 149.143C66.6351 151.189 77.8104 151.856 91.3257 150.828C104.84 149.801 115.771 147.309 115.74 145.264Z" fill="#EFE5D7"/>
<path d="M75.904 131.354C76.2317 123.199 76.2464 110.643 73.6533 102.588C71.8217 96.8982 72.1131 87.7911 72.2743 84.6946C96.6923 80.4201 118 91.6844 118 91.6844C113.593 101.845 114.911 123.976 114.552 140.159C114.515 141.838 114.622 140.506 114.552 142.184C114.435 145.006 114.5 143.684 112.5 147.684C105 149.184 111.774 147.368 98.2669 149.657C88.7182 149.777 81.4999 147.684 75.4998 148.184C73.6533 144.684 74.6948 144.184 74.9997 141.684C75.1179 140.716 74.4997 140.159 75.904 131.354Z" fill="#EBDAB7"/>
<path d="M111.963 138.646C111.963 138.646 99.2329 138.387 89.0248 138.341C78.9721 138.296 63.0002 138.773 63.0002 138.773" stroke="#F32639" stroke-width="2.82817"/>
<path d="M112.571 136.383C112.571 136.383 100.134 135.754 90.1325 135.454C80.2832 135.159 63.2168 134.903 63.2168 134.903" stroke="#F32639" stroke-width="2.82817"/>
<path d="M112.344 137.5C112.344 137.5 95.5647 137.093 84.9757 137.08C74.548 137.066 63.3804 137.216 63.3804 137.216" stroke="#F32639" stroke-width="2.82817"/>
<path d="M109.338 137.124C112.604 135.432 116.159 133.798 119.227 132.068C119.526 131.899 119.818 131.73 120.1 131.559C120.231 131.48 120.359 131.401 120.485 131.321C120.51 131.305 120.715 131.173 120.589 131.255C120.661 131.208 120.732 131.161 120.801 131.114C121.048 130.946 121.281 130.776 121.493 130.606C121.597 130.523 121.696 130.439 121.788 130.355C121.829 130.318 121.869 130.281 121.907 130.244C121.93 130.221 121.953 130.198 121.976 130.175C122 130.151 121.995 130.157 121.961 130.193C121.974 130.179 121.986 130.165 121.999 130.151C122.152 129.984 122.274 129.817 122.355 129.655C122.372 129.62 122.386 129.586 122.401 129.551C122.372 129.621 122.412 129.508 122.416 129.49C122.436 129.409 122.442 129.33 122.437 129.254C122.434 129.217 122.425 129.182 122.419 129.146C122.412 129.104 122.441 129.186 122.42 129.148C122.41 129.13 122.403 129.112 122.393 129.094C122.359 129.033 122.31 128.975 122.247 128.921C122.245 128.919 122.172 128.864 122.221 128.899C122.269 128.933 122.19 128.881 122.188 128.879C122.154 128.859 122.117 128.839 122.078 128.821C122.035 128.801 121.989 128.781 121.94 128.763C121.919 128.755 121.897 128.747 121.874 128.74C121.859 128.735 121.732 128.701 121.816 128.721C121.906 128.742 121.778 128.712 121.77 128.711C121.744 128.705 121.718 128.699 121.691 128.693C121.637 128.682 121.583 128.672 121.526 128.662C121.455 128.651 121.381 128.64 121.305 128.631C121.275 128.627 121.243 128.625 121.213 128.621C121.083 128.605 121.349 128.628 121.195 128.619C120.891 128.601 120.575 128.598 120.237 128.606C120.101 128.61 120.236 128.605 120.26 128.605C120.212 128.607 120.163 128.61 120.114 128.612C120.025 128.618 119.936 128.624 119.846 128.631C119.664 128.645 119.479 128.663 119.294 128.685C119.19 128.696 119.085 128.709 118.98 128.723C118.916 128.732 118.696 128.765 118.87 128.738C118.668 128.769 118.465 128.802 118.261 128.84C118.068 128.875 117.875 128.914 117.683 128.955C117.587 128.976 117.491 128.998 117.396 129.019C117.358 129.028 117.244 129.057 117.414 129.014C117.351 129.03 117.288 129.045 117.225 129.061C116.853 129.155 116.485 129.26 116.131 129.376C116.088 129.389 116.047 129.403 116.004 129.417C116.155 129.367 116.006 129.417 115.969 129.43C115.872 129.463 115.774 129.497 115.677 129.532C115.48 129.602 115.285 129.673 115.094 129.747C114.742 129.882 114.403 130.021 114.079 130.166C114.047 130.181 114.006 130.197 113.979 130.212C113.995 130.203 114.129 130.141 114.009 130.198C113.937 130.232 113.865 130.266 113.795 130.3C113.65 130.371 113.508 130.443 113.371 130.516C113.12 130.65 112.889 130.787 112.669 130.925C112.547 131.001 112.755 130.866 112.684 130.916C112.662 130.931 112.638 130.946 112.616 130.961C112.566 130.995 112.517 131.029 112.469 131.064C112.369 131.135 112.274 131.207 112.184 131.279C112.008 131.419 111.857 131.558 111.715 131.697C111.694 131.719 111.64 131.752 111.733 131.679C111.715 131.692 111.703 131.71 111.69 131.724C111.659 131.758 111.629 131.791 111.6 131.825C111.538 131.897 111.481 131.968 111.429 132.039C111.328 132.175 111.243 132.309 111.173 132.442C111.137 132.509 111.105 132.576 111.076 132.642C111.061 132.676 111.048 132.709 111.035 132.742C111.03 132.753 111.013 132.802 111.028 132.758C111.045 132.71 111.019 132.786 111.015 132.796C110.97 132.934 110.937 133.07 110.915 133.204C110.737 134.292 111.213 135.248 111.486 136.24C111.517 136.354 111.546 136.468 111.57 136.583C111.601 136.731 111.156 136.962 110.738 137.036C110.262 137.12 109.958 137.056 109.926 136.899C109.708 135.857 109.167 134.886 109.241 133.781C109.316 132.679 110.084 131.396 112.485 130.186C113.823 129.512 115.521 128.876 117.289 128.459C118.954 128.066 120.783 127.852 122.121 127.958C122.875 128.018 123.436 128.167 123.779 128.417C124.122 128.667 124.133 129.011 123.998 129.37C123.731 130.078 122.689 130.857 121.523 131.585C120.272 132.366 118.808 133.132 117.345 133.88C115.541 134.802 113.663 135.708 111.841 136.627C111.385 136.857 110.934 137.087 110.487 137.319C110.168 137.484 109.628 137.603 109.324 137.541C109.036 137.483 108.996 137.302 109.337 137.125L109.338 137.124Z" fill="#F32639"/>
<path d="M108.647 137.648C108.49 137.367 108.317 137.09 108.088 136.828C107.977 136.702 107.852 136.578 107.709 136.461C107.671 136.431 107.632 136.4 107.592 136.37C107.593 136.37 107.541 136.334 107.569 136.353C107.6 136.375 107.534 136.33 107.528 136.326C107.442 136.27 107.349 136.215 107.25 136.162C107.062 136.063 106.849 135.973 106.605 135.897C106.582 135.889 106.557 135.883 106.534 135.875C106.455 135.851 106.608 135.892 106.519 135.872C106.458 135.858 106.402 135.842 106.341 135.828C106.202 135.797 106.054 135.77 105.898 135.748C105.82 135.736 105.74 135.726 105.658 135.717C105.627 135.714 105.595 135.711 105.565 135.708C105.461 135.696 105.659 135.712 105.546 135.706C105.365 135.697 105.186 135.687 104.994 135.685C104.82 135.684 104.64 135.688 104.458 135.693C104.439 135.694 104.314 135.699 104.436 135.694C104.399 135.695 104.361 135.697 104.325 135.699C104.214 135.705 104.102 135.712 103.989 135.72C103.19 135.772 102.365 135.849 101.61 135.856C100.865 135.862 100.246 135.779 99.7884 135.618C98.9526 135.323 98.8141 134.77 98.8124 134.238C98.8105 133.66 98.9498 133.059 98.8031 132.51C98.783 132.435 98.7653 132.379 98.7482 132.333C98.7209 132.262 98.6907 132.191 98.6561 132.122C98.5868 131.98 98.5067 131.84 98.4037 131.707C98.3552 131.645 98.3009 131.584 98.2335 131.527C98.2161 131.512 98.1977 131.497 98.1773 131.482C98.1846 131.487 98.2158 131.508 98.177 131.485C98.1263 131.455 98.0728 131.426 98.0109 131.4C97.9838 131.388 97.9539 131.378 97.9253 131.367C97.9233 131.366 97.8472 131.341 97.8958 131.356C97.95 131.372 97.8469 131.345 97.8338 131.342C97.7985 131.334 97.7613 131.327 97.7237 131.32C97.6579 131.308 97.5864 131.3 97.5173 131.29C97.4993 131.288 97.3915 131.278 97.5012 131.287C97.4479 131.283 97.3911 131.28 97.3354 131.278C97.1757 131.271 97.009 131.269 96.8376 131.272C96.7385 131.273 96.6375 131.276 96.5356 131.279C96.4975 131.281 96.4589 131.282 96.4199 131.284C96.5277 131.279 96.3611 131.287 96.3423 131.288C95.9347 131.311 95.5189 131.344 95.1077 131.371C94.2784 131.426 93.4911 131.444 92.8269 131.364C92.1477 131.281 91.7208 131.061 91.7254 130.734C91.7295 130.443 92.056 130.11 92.1908 129.801C92.1986 129.784 92.2048 129.767 92.2116 129.75C92.2074 129.761 92.1926 129.812 92.2084 129.755C92.2164 129.726 92.2248 129.697 92.2312 129.669C92.2451 129.604 92.252 129.54 92.2527 129.477C92.2526 129.418 92.2466 129.361 92.2348 129.305C92.229 129.279 92.2212 129.253 92.2145 129.227C92.2059 129.196 92.2183 129.239 92.22 129.242C92.2101 129.221 92.2021 129.199 92.1917 129.178C92.1397 129.072 92.0658 128.972 91.9705 128.877C91.9226 128.83 91.8655 128.786 91.8113 128.741C91.7808 128.716 91.8264 128.751 91.8295 128.753C91.8128 128.742 91.7962 128.731 91.779 128.72C91.7401 128.695 91.6997 128.67 91.6579 128.646C91.5124 128.564 91.347 128.49 91.1609 128.424C91.0775 128.394 90.9888 128.366 90.8977 128.339C91.0237 128.377 90.8538 128.33 90.8276 128.323C90.7721 128.309 90.7157 128.296 90.6578 128.284C90.4338 128.236 90.1925 128.197 89.9346 128.168C89.8761 128.162 89.8172 128.156 89.7578 128.15C89.6365 128.139 89.7533 128.15 89.7762 128.152C89.7409 128.149 89.7065 128.147 89.6706 128.144C89.5286 128.135 89.3829 128.129 89.2334 128.125C89.1022 128.122 88.9683 128.122 88.832 128.123C88.7537 128.124 88.6749 128.125 88.5948 128.128C88.5537 128.129 88.303 128.14 88.4874 128.131C88.091 128.151 87.7654 128.076 87.9128 127.884C88.0352 127.725 88.4979 127.503 88.9224 127.482C91.748 127.342 93.6421 127.945 93.8765 128.978C93.9323 129.226 93.8686 129.502 93.7053 129.786C93.616 129.941 93.4916 130.101 93.4136 130.255C93.4035 130.275 93.3945 130.295 93.3854 130.314C93.3915 130.301 93.3977 130.262 93.3839 130.321C93.3763 130.354 93.3701 130.387 93.3693 130.418C93.3689 130.433 93.3871 130.509 93.3677 130.466C93.3831 130.502 93.4238 130.531 93.4426 130.566C93.4631 130.605 93.3896 130.54 93.4407 130.568C93.4557 130.577 93.4702 130.586 93.4857 130.595C93.5284 130.617 93.5808 130.635 93.6283 130.655C93.6462 130.663 93.7258 130.681 93.6234 130.656C93.6541 130.663 93.6844 130.671 93.7162 130.678C93.7811 130.692 93.8489 130.704 93.9205 130.714C93.9931 130.724 94.0686 130.733 94.1464 130.74C94.0207 130.729 94.2086 130.742 94.2484 130.744C94.4195 130.752 94.5973 130.754 94.7801 130.752C94.8718 130.752 94.9654 130.749 95.059 130.747C95.0961 130.746 95.3176 130.736 95.1812 130.743C95.3784 130.733 95.5793 130.719 95.7806 130.705C96.248 130.673 96.7139 130.64 97.1708 130.62C98.0498 130.581 98.8354 130.617 99.3635 130.802C99.8571 130.976 100.038 131.275 100.193 131.557C100.502 132.121 100.555 132.734 100.49 133.378C100.463 133.654 100.437 133.93 100.473 134.194C100.481 134.257 100.493 134.319 100.51 134.38C100.514 134.396 100.54 134.467 100.52 134.417C100.534 134.452 100.548 134.487 100.565 134.52C100.622 134.634 100.703 134.742 100.817 134.84C100.83 134.851 100.937 134.92 100.857 134.873C100.889 134.892 100.918 134.912 100.952 134.931C101.028 134.973 101.113 135.012 101.209 135.046C101.233 135.055 101.257 135.063 101.282 135.071C101.298 135.076 101.384 135.1 101.314 135.082C101.248 135.065 101.319 135.083 101.33 135.085C101.359 135.092 101.387 135.099 101.417 135.105C101.538 135.131 101.67 135.15 101.807 135.167C101.917 135.181 101.837 135.171 101.81 135.169C101.851 135.173 101.895 135.175 101.937 135.177C102.012 135.181 102.088 135.184 102.166 135.186C102.355 135.19 102.553 135.187 102.755 135.18C102.791 135.179 102.827 135.178 102.863 135.177C102.986 135.171 102.76 135.182 102.885 135.175C102.971 135.171 103.057 135.166 103.143 135.16C103.343 135.148 103.544 135.133 103.745 135.118C104.582 135.057 105.436 134.992 106.174 135.027C106.954 135.063 107.587 135.179 108.113 135.354C109.118 135.688 109.625 136.23 109.991 136.779C110.082 136.915 110.163 137.053 110.241 137.193C110.317 137.328 110.098 137.542 109.644 137.664C109.232 137.775 108.729 137.792 108.648 137.646L108.647 137.648Z" fill="#F32639"/>
<path d="M109.056 137.279C109.095 137.221 109.132 137.163 109.162 137.106C109.179 137.075 109.193 137.045 109.207 137.015C109.212 137.002 109.217 136.99 109.223 136.977C109.245 136.93 109.209 137.026 109.222 136.981C109.252 136.869 109.275 136.76 109.273 136.654C109.272 136.603 109.266 136.553 109.258 136.504C109.253 136.478 109.245 136.452 109.239 136.426C109.237 136.421 109.226 136.384 109.237 136.417C109.247 136.451 109.231 136.403 109.228 136.397C109.188 136.299 109.132 136.205 109.062 136.115C108.991 136.024 108.907 135.936 108.811 135.852C108.764 135.811 108.715 135.771 108.663 135.731C108.653 135.724 108.57 135.664 108.604 135.687C108.64 135.712 108.597 135.682 108.592 135.679C108.574 135.667 108.557 135.655 108.539 135.644C108.292 135.481 108.009 135.331 107.705 135.189C107.112 134.912 106.43 134.673 105.793 134.414C105.135 134.146 104.548 133.851 104.091 133.509C103.652 133.181 103.364 132.793 103.379 132.345C103.386 132.121 103.472 131.877 103.644 131.629C103.854 131.328 104.207 131.019 104.587 130.711C104.787 130.548 104.99 130.385 105.163 130.223C105.181 130.206 105.275 130.113 105.241 130.149C105.204 130.187 105.287 130.097 105.299 130.083C105.352 130.02 105.399 129.957 105.44 129.895C105.477 129.838 105.51 129.781 105.537 129.724C105.545 129.708 105.578 129.621 105.554 129.689C105.564 129.659 105.573 129.63 105.58 129.6C105.608 129.487 105.612 129.378 105.594 129.274C105.589 129.247 105.58 129.221 105.575 129.194C105.569 129.163 105.579 129.204 105.581 129.208C105.576 129.197 105.572 129.186 105.567 129.175C105.545 129.123 105.517 129.074 105.484 129.025C105.419 128.932 105.331 128.846 105.227 128.764C105.215 128.755 105.164 128.726 105.231 128.767C105.217 128.759 105.205 128.75 105.192 128.741C105.166 128.724 105.138 128.708 105.11 128.692C105.043 128.654 104.971 128.618 104.894 128.585C104.822 128.553 104.746 128.524 104.665 128.496C104.621 128.482 104.575 128.468 104.531 128.454C104.476 128.436 104.557 128.461 104.563 128.462C104.534 128.455 104.507 128.448 104.48 128.441C104.283 128.392 104.067 128.353 103.832 128.325C103.782 128.319 103.73 128.314 103.679 128.308C103.553 128.295 103.773 128.313 103.64 128.305C103.471 128.294 103.298 128.287 103.12 128.283C102.406 128.267 101.66 128.276 101.055 128.183C99.9177 128.008 99.4115 127.542 99.1109 127.058C99.0378 126.94 98.9755 126.82 98.9151 126.699C98.8467 126.562 99.053 126.351 99.5128 126.227C99.9186 126.118 100.436 126.098 100.509 126.245C100.633 126.492 100.765 126.737 100.976 126.96C101.025 127.013 101.079 127.064 101.139 127.113C101.166 127.135 101.194 127.158 101.223 127.18C101.21 127.17 101.172 127.147 101.237 127.188C101.259 127.202 101.28 127.216 101.302 127.229C101.454 127.32 101.639 127.393 101.839 127.464C101.892 127.482 101.838 127.464 101.827 127.461C101.86 127.47 101.894 127.479 101.928 127.487C101.98 127.499 102.033 127.51 102.088 127.521C102.22 127.545 102.36 127.565 102.51 127.58C102.421 127.571 102.536 127.581 102.547 127.582C102.583 127.584 102.619 127.587 102.656 127.589C102.741 127.593 102.827 127.596 102.915 127.599C103.09 127.604 103.27 127.606 103.449 127.609C104.094 127.617 104.723 127.636 105.252 127.721C107.108 128.021 107.794 128.967 106.784 130.037C106.458 130.382 105.984 130.726 105.596 131.071C105.549 131.114 105.505 131.155 105.461 131.197C105.459 131.199 105.399 131.258 105.434 131.222C105.466 131.19 105.423 131.234 105.42 131.237C105.364 131.3 105.312 131.361 105.266 131.423C105.176 131.544 105.114 131.661 105.064 131.777C105.088 131.723 105.067 131.769 105.06 131.795C105.052 131.823 105.045 131.851 105.04 131.879C105.029 131.934 105.023 131.988 105.022 132.042C105.02 132.146 105.038 132.246 105.068 132.344C105.054 132.296 105.067 132.338 105.076 132.36C105.087 132.385 105.099 132.409 105.111 132.433C105.137 132.483 105.167 132.53 105.2 132.578C105.264 132.67 105.342 132.758 105.432 132.843C105.478 132.888 105.528 132.931 105.58 132.974C105.603 132.993 105.626 133.011 105.65 133.029C105.668 133.044 105.758 133.108 105.694 133.064C105.808 133.144 105.932 133.221 106.062 133.296C106.329 133.45 106.625 133.592 106.939 133.727C107.559 133.996 108.255 134.233 108.871 134.502C110.127 135.051 111.203 135.742 110.836 136.745C110.791 136.869 110.728 136.995 110.64 137.125C110.524 137.295 110.054 137.493 109.63 137.527C109.208 137.562 108.932 137.462 109.055 137.28L109.056 137.279Z" fill="#F32639"/>
<path d="M109.935 137.217C110.238 137.245 110.382 137.257 110.706 137.28C111.001 137.301 111.3 137.319 111.601 137.336C112.179 137.367 112.771 137.39 113.372 137.404C113.975 137.417 114.587 137.422 115.211 137.418C115.37 137.418 115.532 137.413 115.694 137.408C115.845 137.405 115.505 137.42 115.662 137.41C115.704 137.408 115.745 137.406 115.787 137.403C115.871 137.398 115.956 137.393 116.042 137.386C116.382 137.36 116.732 137.323 117.085 137.276C117.165 137.266 117.256 137.258 117.338 137.242C117.074 137.294 117.385 137.234 117.456 137.223C117.644 137.193 117.834 137.161 118.024 137.127C118.394 137.06 118.766 136.986 119.135 136.904C119.233 136.883 119.33 136.861 119.428 136.838C119.46 136.831 119.493 136.823 119.526 136.816C119.703 136.775 119.336 136.862 119.513 136.819C119.709 136.771 119.904 136.723 120.099 136.672C120.474 136.575 120.847 136.471 121.213 136.362C121.405 136.305 121.596 136.246 121.784 136.186C121.863 136.161 121.942 136.136 122.019 136.111C122.066 136.095 122.113 136.08 122.159 136.064C122.296 136.019 121.978 136.126 122.192 136.053C122.89 135.815 123.561 135.559 124.184 135.286C124.264 135.251 124.341 135.215 124.42 135.18C124.535 135.129 124.368 135.205 124.359 135.209C124.399 135.193 124.437 135.173 124.473 135.156C124.623 135.085 124.77 135.014 124.911 134.941C125.184 134.802 125.441 134.66 125.678 134.515C125.732 134.482 125.785 134.449 125.839 134.415C125.949 134.347 125.715 134.5 125.814 134.431C125.841 134.413 125.869 134.394 125.895 134.376C126.001 134.304 126.1 134.231 126.194 134.158C126.278 134.092 126.358 134.026 126.431 133.96C126.464 133.929 126.496 133.9 126.526 133.87C126.54 133.856 126.577 133.829 126.579 133.816C126.526 133.872 126.515 133.883 126.547 133.849C126.558 133.837 126.569 133.825 126.58 133.813C126.7 133.677 126.791 133.542 126.849 133.411C126.856 133.396 126.874 133.373 126.87 133.36C126.889 133.428 126.856 133.403 126.864 133.372C126.871 133.344 126.879 133.316 126.884 133.288C126.896 133.221 126.899 133.155 126.891 133.091C126.888 133.058 126.88 133.027 126.873 132.995C126.862 132.943 126.914 132.969 126.877 133.001C126.888 132.992 126.865 132.97 126.861 132.962C126.831 132.896 126.79 132.832 126.739 132.771C126.692 132.716 126.636 132.662 126.574 132.611C126.559 132.6 126.541 132.588 126.528 132.576C126.493 132.543 126.609 132.629 126.538 132.583C126.487 132.55 126.437 132.518 126.383 132.488C126.31 132.447 126.234 132.408 126.148 132.373C126.108 132.357 126.066 132.341 126.023 132.327C126.009 132.322 125.994 132.317 125.98 132.313C125.864 132.273 126.09 132.339 126.001 132.317C125.824 132.275 125.64 132.243 125.429 132.219C125.318 132.207 125.614 132.231 125.494 132.225C125.465 132.224 125.438 132.221 125.41 132.22C125.364 132.218 125.315 132.216 125.268 132.215C125.147 132.212 125.021 132.214 124.893 132.217C124.692 132.221 125.071 132.205 124.885 132.217C124.82 132.221 124.756 132.225 124.691 132.231C124.559 132.241 124.424 132.256 124.288 132.272C124.231 132.279 124.173 132.287 124.115 132.294C124.045 132.303 123.934 132.33 124.182 132.284C124.146 132.291 124.109 132.295 124.074 132.3C123.929 132.323 123.782 132.349 123.635 132.376C123.497 132.402 123.358 132.43 123.219 132.459C123.142 132.476 123.065 132.493 122.987 132.51C122.899 132.53 122.663 132.601 122.92 132.524C122.624 132.613 122.291 132.682 121.988 132.766C121.646 132.861 121.309 132.961 120.976 133.065C120.818 133.114 120.659 133.165 120.503 133.216C120.43 133.239 120.358 133.263 120.286 133.287C120.235 133.304 120.073 133.354 120.31 133.279C120.252 133.297 120.193 133.318 120.136 133.338C119.795 133.454 119.459 133.573 119.127 133.694C118.438 133.945 117.767 134.205 117.109 134.47C116.434 134.743 115.773 135.022 115.125 135.305C114.816 135.44 114.511 135.575 114.209 135.712C114.068 135.775 113.928 135.839 113.788 135.903C113.751 135.92 113.713 135.938 113.676 135.955C113.535 136.019 113.842 135.877 113.704 135.942C113.631 135.975 113.557 136.009 113.485 136.043C112.535 136.486 111.608 136.936 110.74 137.397C110.591 137.477 110.443 137.557 110.3 137.637C109.998 137.806 109.428 137.919 109.137 137.86C108.835 137.799 108.829 137.624 109.151 137.444C109.931 137.007 110.795 136.581 111.669 136.164C112.908 135.572 114.198 134.992 115.54 134.432C116.936 133.849 118.393 133.291 119.931 132.783C121.204 132.362 122.614 131.954 123.985 131.729C124.663 131.617 125.317 131.547 125.919 131.545C126.534 131.542 127.024 131.622 127.419 131.747C127.896 131.898 128.218 132.137 128.392 132.392C128.571 132.657 128.579 132.958 128.418 133.29C127.793 134.578 124.569 135.977 121.563 136.866C119.963 137.339 118.263 137.716 116.626 137.929C115.841 138.031 115.086 138.082 114.381 138.087C113.079 138.095 111.823 138.064 110.62 137.996C109.984 137.96 109.364 137.912 108.757 137.857C108.421 137.826 108.466 137.597 108.77 137.44C109.136 137.252 109.573 137.185 109.933 137.217L109.935 137.217Z" fill="#F32639"/>
<path d="M130.967 88.3867C119.57 69.3323 91.2884 64.1387 67.9063 74.6254C44.5284 85.1147 35.27 110.554 46.6672 129.608C58.0644 148.663 85.796 154.116 109.176 143.626C132.554 133.136 142.362 107.437 130.967 88.3867Z" fill="#C4BAAB"/>
</g>
<path d="M61.5 281.185C71.5 285.185 88.5986 286.123 102 281.185C115.401 276.248 122.5 252.8 122.5 247.441C122.5 246.481 122.498 244.766 122.406 242.548L143 228.001C157.421 217.188 168.292 196.351 168.5 181.649L174 120.111V53.4537C174 41.5334 159.5 28.4786 140 19.1158C120.5 9.75294 108.302 8.78007 89 8.62944C68.7563 8.47153 40.0358 19.1025 40 19.1158C24.3863 27.3638 11.0002 36.5696 11 48.4898L8.5 181.649C8.50007 196.43 14.9825 213.378 29.3857 224.307L43.5498 235.33C41.941 241.772 41 247.571 41 250.685C41.0001 259.185 51.5001 277.185 61.5 281.185Z" fill="#F3F3FF" fill-opacity="0.44"/>
<path d="M55 222.007C55 221.003 55.6764 220.129 56.6537 219.897C61.0606 218.854 73.3408 216.146 82 216.164C90.5309 216.182 102.616 218.859 106.978 219.897C107.955 220.129 108.63 221.002 108.63 222.006V222.006C108.63 223.36 107.422 224.397 106.082 224.2C101.115 223.469 89.929 221.965 82 221.955C73.942 221.944 62.5629 223.467 57.5454 224.201C56.206 224.397 55 223.361 55 222.007V222.007Z" fill="#5D95C8"/>
<path d="M29.8242 209.975V209.975C22.5848 202.872 18.5061 193.157 18.5061 183.015V173.719" stroke="white" stroke-opacity="0.44" stroke-width="7.92441" stroke-linecap="round"/>
<ellipse opacity="0.55" cx="80.5" cy="38.053" rx="80.5" ry="38.053" transform="matrix(1 0 0 -1 12 84.8887)" fill="#D9D9D9"/>
</g>
<defs>
<clipPath id="clip0_43_943">
<rect width="200" height="335" fill="white"/>
</clipPath>
</defs>
</svg>
