<svg width="280" height="486" viewBox="0 0 280 486" fill="none" xmlns="http://www.w3.org/2000/svg">
<path d="M122 435.117C128.906 435.117 136.149 432.013 140.217 429.938C142.337 428.858 143.67 426.747 143.963 424.386L145.559 411.52C145.847 409.199 145.103 407.013 143.709 405.388H148.245C149.01 405.388 149.629 404.768 149.629 404.004C149.629 403.24 149.01 402.62 148.245 402.62H97.384C96.6198 402.62 96.0002 403.24 96.0002 404.004C96.0003 404.768 96.6198 405.388 97.384 405.388H100.225C98.8735 406.963 98.1321 409.067 98.3528 411.317L99.6116 424.154C99.856 426.648 101.261 428.885 103.511 429.987C107.745 432.061 115.148 435.117 122 435.117Z" fill="#445C8C"/>
<mask id="mask0_0_1" style="mask-type:luminance" maskUnits="userSpaceOnUse" x="40" y="40" width="178" height="406">
<path d="M192.613 327.381C207.034 314.259 215.133 297.116 215.342 279.273L217.097 128.912V66.1934C217.097 51.7272 203.11 40.0002 185.857 40H71.2393C53.9861 40.0001 40 51.7271 40 66.1934V275.84C40 293.778 47.9824 314.345 62.3857 327.609L98.9727 361.302H98.8271V421.63H95.2217C87.4643 421.63 81.1758 426.903 81.1758 433.407C81.1758 439.911 87.4644 445.185 95.2217 445.185H159.389C167.146 445.184 173.435 439.911 173.435 433.407C173.435 426.903 167.146 421.63 159.389 421.63H155.257V361.302H155.334L192.613 327.381Z" fill="white"/>
</mask>
<g mask="url(#mask0_0_1)">
<path d="M108 228.151C106.3 200.652 104.324 182.653 95.22 157.132C99.8976 155.456 111.589 149.67 119.324 148.608C120.753 148.412 122.354 149.991 122.278 152.143C122.151 155.712 140.089 238.574 148 274.129L131.5 277.824C115.743 278.231 119.487 278.185 108 276.079C107.95 265.064 107.221 239.18 108 228.151Z" fill="white"/>
<path d="M157.74 266.042C157.709 263.569 146.729 262.571 133.214 263.813C119.7 265.055 108.573 268.258 108.604 270.731C108.635 273.204 119.811 274.011 133.326 272.769C146.84 271.527 157.771 268.515 157.74 266.042Z" fill="#EFE5D7"/>
<path d="M119.904 205.284C120.232 195.426 120.246 180.248 117.653 170.511C115.822 163.633 116.113 152.624 116.274 148.881C140.692 143.714 175.949 156.437 175.949 156.437C171.542 168.72 158.911 196.366 158.552 215.929C158.515 217.958 158.469 219.987 158.399 222.016C158.282 225.427 155.07 267.252 156.5 272.077C148.004 276.268 148.5 274.567 134.993 277.335C125.444 277.48 115.847 277.064 109 274.95C114.527 262.257 115.985 249.206 117.163 237.723C118.385 225.615 119.502 217.385 119.904 205.284Z" fill="#EBDAB7"/>
<path d="M155.963 227.396C155.963 227.396 143.233 227.082 133.025 227.027C122.972 226.973 107 227.549 107 227.549" stroke="#F32639" stroke-width="2.82817"/>
<path d="M156.571 228.287C156.571 228.287 144.134 227.526 134.133 227.164C124.284 226.807 107.218 226.497 107.218 226.497" stroke="#F32639" stroke-width="2.82817"/>
<path d="M156.345 228.506C156.345 228.506 139.565 228.015 128.976 227.999C118.548 227.982 107.381 228.163 107.381 228.163" stroke="#F32639" stroke-width="2.82817"/>
<path d="M153.338 228.052C156.604 226.006 160.159 224.031 163.227 221.939C163.526 221.736 163.818 221.531 164.101 221.325C164.231 221.229 164.359 221.133 164.485 221.037C164.51 221.018 164.715 220.857 164.59 220.957C164.661 220.9 164.732 220.843 164.801 220.786C165.048 220.583 165.282 220.378 165.493 220.173C165.597 220.072 165.696 219.97 165.788 219.869C165.829 219.825 165.869 219.78 165.907 219.735C165.931 219.707 165.953 219.679 165.977 219.652C166 219.623 165.995 219.63 165.961 219.673C165.974 219.656 165.986 219.64 165.999 219.623C166.152 219.42 166.274 219.219 166.355 219.024C166.372 218.981 166.386 218.94 166.401 218.898C166.372 218.981 166.412 218.846 166.417 218.824C166.436 218.726 166.442 218.631 166.437 218.538C166.434 218.493 166.425 218.451 166.419 218.407C166.412 218.356 166.441 218.456 166.42 218.41C166.41 218.388 166.403 218.366 166.393 218.345C166.359 218.271 166.31 218.201 166.247 218.136C166.245 218.134 166.172 218.067 166.221 218.109C166.269 218.15 166.19 218.087 166.188 218.085C166.154 218.06 166.118 218.037 166.079 218.015C166.036 217.99 165.989 217.967 165.941 217.945C165.919 217.935 165.897 217.926 165.874 217.917C165.859 217.911 165.732 217.87 165.816 217.894C165.906 217.919 165.778 217.883 165.77 217.881C165.744 217.874 165.718 217.867 165.691 217.86C165.638 217.847 165.583 217.834 165.526 217.823C165.455 217.809 165.381 217.796 165.305 217.785C165.275 217.781 165.243 217.778 165.213 217.773C165.083 217.754 165.349 217.782 165.195 217.771C164.891 217.748 164.575 217.745 164.237 217.755C164.101 217.76 164.236 217.754 164.26 217.753C164.212 217.756 164.163 217.759 164.114 217.763C164.025 217.769 163.936 217.776 163.846 217.785C163.664 217.802 163.479 217.824 163.294 217.85C163.19 217.864 163.085 217.88 162.98 217.897C162.916 217.907 162.696 217.947 162.87 217.915C162.668 217.952 162.465 217.992 162.261 218.038C162.069 218.08 161.876 218.127 161.683 218.177C161.587 218.202 161.492 218.228 161.396 218.254C161.358 218.264 161.244 218.3 161.414 218.248C161.351 218.268 161.288 218.286 161.225 218.305C160.853 218.418 160.485 218.546 160.131 218.685C160.089 218.702 160.047 218.719 160.005 218.736C160.156 218.675 160.007 218.735 159.969 218.751C159.872 218.791 159.774 218.832 159.677 218.874C159.48 218.959 159.285 219.045 159.094 219.134C158.743 219.297 158.403 219.466 158.079 219.641C158.047 219.658 158.006 219.678 157.979 219.696C157.995 219.685 158.129 219.61 158.009 219.68C157.937 219.721 157.865 219.762 157.795 219.803C157.65 219.889 157.508 219.976 157.371 220.064C157.12 220.226 156.889 220.391 156.669 220.558C156.548 220.651 156.755 220.486 156.684 220.547C156.662 220.566 156.639 220.584 156.616 220.602C156.566 220.643 156.517 220.684 156.469 220.726C156.369 220.812 156.274 220.899 156.184 220.986C156.008 221.155 155.857 221.323 155.716 221.492C155.694 221.518 155.64 221.558 155.733 221.469C155.715 221.486 155.703 221.507 155.69 221.524C155.659 221.565 155.629 221.606 155.6 221.646C155.538 221.733 155.481 221.819 155.429 221.904C155.328 222.069 155.243 222.231 155.173 222.392C155.137 222.473 155.105 222.554 155.076 222.634C155.061 222.675 155.048 222.715 155.035 222.755C155.03 222.768 155.013 222.827 155.028 222.774C155.045 222.716 155.019 222.808 155.015 222.82C154.97 222.986 154.937 223.151 154.915 223.313C154.738 224.628 155.213 225.783 155.486 226.983C155.517 227.121 155.546 227.259 155.57 227.398C155.601 227.576 155.156 227.856 154.738 227.945C154.263 228.047 153.958 227.969 153.926 227.779C153.708 226.52 153.167 225.346 153.241 224.011C153.316 222.679 154.085 221.127 156.485 219.665C157.823 218.85 159.521 218.081 161.289 217.577C162.954 217.102 164.783 216.844 166.122 216.972C166.875 217.044 167.436 217.224 167.779 217.526C168.122 217.829 168.133 218.244 167.998 218.679C167.731 219.534 166.689 220.477 165.523 221.357C164.272 222.301 162.808 223.226 161.346 224.13C159.542 225.245 157.664 226.341 155.841 227.451C155.385 227.729 154.934 228.007 154.487 228.287C154.168 228.487 153.628 228.631 153.324 228.556C153.036 228.486 152.996 228.267 153.337 228.053L153.338 228.052Z" fill="#F32639"/>
<path d="M152.647 228.686C152.49 228.346 152.318 228.011 152.088 227.695C151.977 227.542 151.853 227.393 151.709 227.251C151.671 227.214 151.632 227.177 151.592 227.141C151.593 227.141 151.541 227.098 151.569 227.12C151.6 227.147 151.534 227.093 151.528 227.088C151.442 227.019 151.349 226.953 151.25 226.89C151.062 226.77 150.849 226.661 150.605 226.569C150.582 226.56 150.558 226.552 150.534 226.543C150.455 226.513 150.608 226.563 150.52 226.539C150.459 226.522 150.402 226.503 150.341 226.486C150.202 226.448 150.054 226.416 149.898 226.389C149.82 226.375 149.74 226.363 149.658 226.352C149.627 226.348 149.595 226.345 149.565 226.34C149.461 226.326 149.659 226.345 149.546 226.339C149.365 226.327 149.187 226.315 148.995 226.313C148.82 226.311 148.64 226.316 148.459 226.323C148.439 226.324 148.315 226.33 148.436 226.323C148.399 226.325 148.362 226.328 148.325 226.33C148.214 226.337 148.102 226.346 147.989 226.355C147.19 226.418 146.366 226.512 145.61 226.519C144.865 226.526 144.247 226.426 143.788 226.231C142.953 225.876 142.814 225.207 142.813 224.564C142.811 223.865 142.95 223.139 142.803 222.474C142.783 222.384 142.765 222.317 142.748 222.261C142.721 222.175 142.691 222.09 142.656 222.006C142.587 221.834 142.507 221.665 142.404 221.504C142.355 221.429 142.301 221.355 142.234 221.286C142.216 221.268 142.198 221.25 142.177 221.233C142.185 221.238 142.216 221.264 142.177 221.236C142.126 221.199 142.073 221.165 142.011 221.133C141.984 221.119 141.954 221.106 141.925 221.093C141.923 221.092 141.847 221.062 141.896 221.08C141.95 221.099 141.847 221.066 141.834 221.062C141.799 221.053 141.761 221.044 141.724 221.036C141.658 221.022 141.587 221.012 141.517 221C141.499 220.997 141.392 220.986 141.501 220.997C141.448 220.991 141.391 220.988 141.336 220.985C141.176 220.976 141.009 220.975 140.838 220.978C140.739 220.979 140.638 220.983 140.536 220.987C140.498 220.989 140.459 220.991 140.42 220.993C140.528 220.987 140.361 220.997 140.342 220.998C139.935 221.025 139.519 221.065 139.108 221.098C138.278 221.164 137.491 221.186 136.827 221.089C136.148 220.99 135.721 220.723 135.726 220.328C135.73 219.976 136.056 219.573 136.191 219.2C136.199 219.179 136.205 219.159 136.212 219.139C136.208 219.152 136.193 219.213 136.209 219.144C136.216 219.11 136.225 219.075 136.231 219.04C136.245 218.961 136.252 218.884 136.253 218.809C136.253 218.738 136.247 218.668 136.235 218.6C136.229 218.569 136.221 218.538 136.215 218.506C136.206 218.469 136.218 218.521 136.22 218.524C136.21 218.499 136.202 218.472 136.192 218.447C136.14 218.319 136.066 218.197 135.971 218.084C135.923 218.027 135.866 217.974 135.811 217.919C135.781 217.888 135.826 217.931 135.83 217.934C135.813 217.92 135.796 217.906 135.779 217.893C135.74 217.863 135.7 217.833 135.658 217.804C135.512 217.705 135.347 217.615 135.161 217.535C135.078 217.499 134.989 217.466 134.898 217.433C135.024 217.478 134.854 217.421 134.828 217.413C134.772 217.397 134.716 217.381 134.658 217.366C134.434 217.308 134.193 217.262 133.935 217.226C133.876 217.219 133.817 217.212 133.758 217.205C133.637 217.191 133.753 217.204 133.776 217.206C133.741 217.203 133.707 217.2 133.671 217.197C133.529 217.186 133.383 217.179 133.233 217.175C133.102 217.171 132.968 217.17 132.832 217.172C132.754 217.173 132.675 217.175 132.595 217.177C132.554 217.179 132.303 217.192 132.487 217.181C132.091 217.205 131.766 217.114 131.913 216.883C132.035 216.69 132.498 216.422 132.923 216.397C135.748 216.228 137.642 216.957 137.877 218.206C137.932 218.505 137.869 218.838 137.705 219.182C137.616 219.37 137.492 219.563 137.414 219.749C137.404 219.773 137.395 219.797 137.386 219.821C137.392 219.805 137.398 219.757 137.384 219.829C137.376 219.869 137.37 219.908 137.369 219.946C137.369 219.964 137.387 220.056 137.368 220.004C137.383 220.048 137.424 220.083 137.443 220.125C137.463 220.172 137.39 220.093 137.441 220.128C137.456 220.138 137.47 220.149 137.486 220.159C137.529 220.186 137.581 220.208 137.628 220.233C137.646 220.242 137.726 220.264 137.624 220.234C137.654 220.243 137.685 220.252 137.716 220.26C137.781 220.277 137.849 220.291 137.921 220.303C137.993 220.316 138.069 220.326 138.147 220.335C138.021 220.321 138.209 220.337 138.249 220.34C138.42 220.349 138.597 220.352 138.78 220.35C138.872 220.349 138.966 220.347 139.059 220.343C139.096 220.342 139.318 220.331 139.181 220.339C139.378 220.327 139.579 220.31 139.781 220.293C140.248 220.254 140.714 220.215 141.171 220.19C142.05 220.143 142.836 220.186 143.364 220.41C143.857 220.62 144.038 220.982 144.193 221.323C144.503 222.004 144.555 222.745 144.491 223.524C144.463 223.858 144.437 224.192 144.473 224.511C144.481 224.587 144.493 224.662 144.51 224.735C144.514 224.754 144.54 224.84 144.52 224.78C144.534 224.822 144.548 224.864 144.565 224.905C144.622 225.042 144.703 225.173 144.817 225.291C144.83 225.305 144.937 225.388 144.857 225.332C144.889 225.355 144.918 225.379 144.952 225.401C145.028 225.452 145.113 225.499 145.209 225.541C145.233 225.551 145.257 225.561 145.282 225.571C145.298 225.577 145.384 225.606 145.314 225.584C145.248 225.563 145.32 225.585 145.331 225.588C145.359 225.596 145.388 225.604 145.417 225.612C145.538 225.643 145.67 225.666 145.807 225.687C145.917 225.704 145.837 225.692 145.811 225.689C145.851 225.693 145.895 225.696 145.937 225.699C146.012 225.704 146.088 225.707 146.166 225.709C146.356 225.714 146.553 225.711 146.755 225.703C146.791 225.701 146.827 225.7 146.863 225.698C146.986 225.692 146.76 225.705 146.885 225.697C146.971 225.691 147.058 225.685 147.143 225.679C147.343 225.663 147.544 225.646 147.745 225.628C148.582 225.553 149.436 225.475 150.174 225.517C150.954 225.561 151.587 225.701 152.113 225.913C153.118 226.316 153.625 226.972 153.991 227.635C154.082 227.8 154.163 227.967 154.241 228.136C154.317 228.299 154.099 228.558 153.644 228.705C153.232 228.839 152.729 228.859 152.648 228.684L152.647 228.686Z" fill="#F32639"/>
<path d="M153.056 228.24C153.095 228.17 153.131 228.1 153.162 228.031C153.179 227.994 153.193 227.957 153.207 227.921C153.212 227.906 153.217 227.89 153.223 227.875C153.245 227.819 153.209 227.934 153.222 227.879C153.252 227.745 153.275 227.612 153.273 227.484C153.272 227.423 153.266 227.363 153.257 227.304C153.253 227.272 153.245 227.241 153.239 227.209C153.237 227.203 153.226 227.158 153.237 227.198C153.247 227.239 153.231 227.181 153.228 227.174C153.188 227.056 153.132 226.942 153.062 226.833C152.991 226.723 152.907 226.617 152.811 226.515C152.764 226.466 152.715 226.417 152.663 226.369C152.653 226.36 152.57 226.287 152.604 226.315C152.64 226.346 152.597 226.31 152.592 226.306C152.574 226.292 152.557 226.277 152.539 226.263C152.292 226.066 152.009 225.885 151.705 225.714C151.112 225.379 150.43 225.09 149.793 224.777C149.135 224.453 148.548 224.097 148.091 223.683C147.652 223.286 147.364 222.818 147.379 222.276C147.386 222.005 147.472 221.71 147.644 221.411C147.854 221.046 148.207 220.672 148.587 220.3C148.787 220.103 148.99 219.907 149.163 219.71C149.181 219.69 149.274 219.578 149.241 219.621C149.204 219.667 149.287 219.558 149.299 219.541C149.352 219.465 149.399 219.389 149.44 219.314C149.477 219.245 149.51 219.176 149.536 219.108C149.545 219.088 149.577 218.982 149.554 219.065C149.564 219.029 149.573 218.993 149.58 218.958C149.608 218.821 149.612 218.69 149.594 218.564C149.589 218.531 149.58 218.499 149.575 218.467C149.569 218.429 149.579 218.479 149.58 218.483C149.576 218.47 149.572 218.457 149.567 218.443C149.545 218.381 149.517 218.321 149.484 218.263C149.419 218.15 149.331 218.046 149.227 217.947C149.214 217.935 149.164 217.901 149.231 217.95C149.217 217.94 149.205 217.929 149.192 217.919C149.166 217.899 149.138 217.879 149.109 217.859C149.043 217.814 148.97 217.771 148.894 217.73C148.822 217.692 148.746 217.657 148.665 217.623C148.621 217.606 148.575 217.589 148.531 217.572C148.476 217.55 148.557 217.581 148.562 217.582C148.534 217.574 148.507 217.565 148.48 217.556C148.283 217.498 148.067 217.45 147.832 217.416C147.782 217.408 147.73 217.402 147.679 217.396C147.553 217.38 147.773 217.402 147.64 217.392C147.471 217.379 147.298 217.371 147.12 217.365C146.406 217.346 145.659 217.357 145.055 217.245C143.918 217.033 143.411 216.47 143.111 215.884C143.038 215.742 142.975 215.597 142.915 215.451C142.847 215.285 143.053 215.03 143.513 214.88C143.918 214.749 144.435 214.724 144.509 214.902C144.633 215.2 144.765 215.497 144.976 215.767C145.025 215.83 145.079 215.892 145.139 215.951C145.166 215.978 145.194 216.005 145.223 216.032C145.21 216.02 145.172 215.992 145.237 216.042C145.259 216.059 145.28 216.075 145.302 216.091C145.453 216.201 145.639 216.289 145.839 216.375C145.892 216.398 145.838 216.375 145.827 216.372C145.86 216.383 145.893 216.393 145.928 216.403C145.98 216.417 146.033 216.431 146.088 216.444C146.219 216.474 146.36 216.498 146.51 216.515C146.421 216.505 146.535 216.517 146.547 216.518C146.583 216.521 146.619 216.524 146.656 216.526C146.741 216.531 146.827 216.535 146.915 216.539C147.09 216.545 147.27 216.548 147.449 216.551C148.094 216.56 148.722 216.583 149.252 216.687C151.108 217.049 151.794 218.193 150.784 219.486C150.458 219.903 149.984 220.318 149.596 220.736C149.549 220.787 149.505 220.838 149.46 220.888C149.459 220.89 149.399 220.961 149.434 220.918C149.466 220.879 149.423 220.933 149.42 220.937C149.364 221.012 149.311 221.087 149.266 221.161C149.176 221.307 149.114 221.449 149.064 221.59C149.088 221.524 149.067 221.579 149.06 221.611C149.052 221.645 149.045 221.679 149.04 221.712C149.029 221.779 149.023 221.845 149.022 221.91C149.02 222.036 149.038 222.156 149.068 222.274C149.054 222.216 149.067 222.267 149.076 222.294C149.086 222.324 149.099 222.353 149.111 222.383C149.137 222.442 149.166 222.5 149.199 222.557C149.264 222.668 149.342 222.775 149.431 222.878C149.478 222.932 149.528 222.984 149.58 223.036C149.603 223.059 149.626 223.081 149.65 223.103C149.668 223.12 149.758 223.198 149.694 223.144C149.808 223.241 149.932 223.335 150.062 223.426C150.329 223.611 150.625 223.783 150.939 223.947C151.559 224.271 152.255 224.558 152.871 224.884C154.127 225.547 155.202 226.383 154.836 227.594C154.791 227.745 154.728 227.897 154.64 228.054C154.524 228.26 154.053 228.499 153.63 228.54C153.207 228.582 152.932 228.461 153.055 228.242L153.056 228.24Z" fill="#F32639"/>
<path d="M153.935 228.165C154.238 228.199 154.382 228.213 154.707 228.241C155.001 228.266 155.3 228.289 155.601 228.309C156.18 228.347 156.771 228.374 157.372 228.391C157.975 228.407 158.588 228.413 159.212 228.409C159.37 228.408 159.532 228.402 159.694 228.396C159.845 228.392 159.505 228.41 159.662 228.399C159.704 228.396 159.745 228.393 159.787 228.39C159.871 228.384 159.956 228.377 160.042 228.369C160.382 228.338 160.732 228.293 161.085 228.237C161.165 228.224 161.256 228.214 161.338 228.195C161.074 228.258 161.385 228.186 161.456 228.172C161.644 228.137 161.834 228.098 162.024 228.057C162.394 227.976 162.766 227.886 163.135 227.787C163.233 227.761 163.331 227.735 163.428 227.707C163.46 227.698 163.493 227.689 163.526 227.68C163.703 227.631 163.336 227.736 163.513 227.684C163.709 227.626 163.904 227.568 164.099 227.507C164.474 227.389 164.847 227.263 165.213 227.131C165.405 227.062 165.596 226.992 165.784 226.919C165.863 226.889 165.942 226.858 166.019 226.828C166.066 226.809 166.113 226.79 166.159 226.772C166.296 226.717 165.978 226.847 166.193 226.758C166.891 226.471 167.561 226.161 168.184 225.831C168.264 225.788 168.341 225.746 168.42 225.703C168.535 225.641 168.368 225.733 168.359 225.738C168.399 225.718 168.437 225.694 168.473 225.673C168.623 225.588 168.77 225.501 168.911 225.414C169.184 225.246 169.441 225.074 169.678 224.899C169.733 224.859 169.785 224.818 169.839 224.778C169.949 224.696 169.715 224.881 169.814 224.797C169.841 224.775 169.869 224.753 169.895 224.731C170.001 224.644 170.101 224.556 170.194 224.468C170.279 224.387 170.358 224.307 170.431 224.227C170.464 224.191 170.496 224.155 170.526 224.119C170.54 224.102 170.577 224.069 170.579 224.054C170.526 224.122 170.515 224.135 170.547 224.093C170.558 224.079 170.569 224.065 170.58 224.05C170.7 223.885 170.791 223.723 170.849 223.565C170.856 223.547 170.874 223.519 170.87 223.503C170.889 223.585 170.856 223.554 170.864 223.517C170.871 223.484 170.879 223.449 170.884 223.416C170.896 223.334 170.899 223.254 170.892 223.177C170.888 223.138 170.88 223.1 170.874 223.061C170.863 222.998 170.915 223.03 170.878 223.068C170.888 223.057 170.865 223.031 170.861 223.021C170.832 222.941 170.791 222.864 170.739 222.791C170.692 222.724 170.636 222.659 170.574 222.598C170.559 222.583 170.542 222.57 170.528 222.555C170.493 222.515 170.609 222.619 170.538 222.563C170.487 222.524 170.438 222.485 170.383 222.448C170.311 222.399 170.234 222.352 170.148 222.309C170.108 222.29 170.067 222.271 170.023 222.253C170.009 222.247 169.994 222.242 169.98 222.236C169.864 222.188 170.09 222.268 170.001 222.242C169.824 222.191 169.64 222.152 169.429 222.124C169.318 222.109 169.614 222.138 169.494 222.131C169.466 222.129 169.439 222.126 169.41 222.125C169.364 222.122 169.316 222.12 169.268 222.118C169.147 222.114 169.021 222.117 168.893 222.12C168.692 222.126 169.071 222.106 168.885 222.121C168.821 222.126 168.756 222.131 168.691 222.138C168.559 222.15 168.424 222.167 168.289 222.187C168.231 222.196 168.173 222.205 168.115 222.214C168.045 222.225 167.934 222.257 168.182 222.202C168.146 222.21 168.11 222.215 168.075 222.222C167.929 222.249 167.783 222.28 167.636 222.313C167.497 222.344 167.358 222.378 167.219 222.414C167.142 222.434 167.065 222.454 166.987 222.475C166.899 222.499 166.663 222.585 166.921 222.492C166.624 222.599 166.291 222.683 165.988 222.784C165.646 222.899 165.309 223.02 164.976 223.146C164.818 223.205 164.66 223.267 164.503 223.328C164.43 223.357 164.358 223.386 164.286 223.414C164.235 223.435 164.073 223.496 164.311 223.404C164.252 223.427 164.194 223.452 164.136 223.476C163.795 223.616 163.459 223.76 163.127 223.906C162.438 224.21 161.767 224.524 161.109 224.845C160.434 225.175 159.773 225.512 159.125 225.854C158.816 226.017 158.511 226.18 158.209 226.345C158.068 226.422 157.928 226.499 157.788 226.577C157.751 226.598 157.713 226.618 157.676 226.639C157.535 226.717 157.843 226.545 157.704 226.623C157.631 226.664 157.557 226.705 157.485 226.746C156.535 227.281 155.608 227.826 154.74 228.383C154.591 228.479 154.444 228.576 154.3 228.673C153.999 228.877 153.429 229.014 153.137 228.943C152.835 228.868 152.829 228.657 153.151 228.439C153.932 227.911 154.795 227.397 155.67 226.892C156.909 226.177 158.198 225.475 159.54 224.798C160.936 224.094 162.393 223.42 163.931 222.805C165.204 222.296 166.614 221.803 167.985 221.531C168.663 221.396 169.317 221.311 169.919 221.308C170.534 221.305 171.024 221.402 171.42 221.553C171.896 221.736 172.219 222.024 172.392 222.333C172.571 222.653 172.579 223.017 172.418 223.418C171.793 224.975 168.569 226.666 165.563 227.741C163.963 228.313 162.263 228.768 160.626 229.026C159.841 229.15 159.086 229.211 158.381 229.216C157.079 229.227 155.823 229.189 154.62 229.107C153.984 229.063 153.365 229.005 152.757 228.938C152.421 228.902 152.467 228.624 152.771 228.435C153.136 228.208 153.573 228.126 153.933 228.166L153.935 228.165Z" fill="#F32639"/>
<path d="M176.296 164.922C176.296 151.754 157.262 141.029 134.841 139.87C112.422 138.714 93.9173 149.357 93.9176 162.526C93.918 175.694 112.419 186.399 134.84 187.554C157.259 188.71 176.297 178.087 176.296 164.922Z" fill="#C4BAAB"/>
</g>
<path d="M183 315.617C197.421 302.546 208.292 277.357 208.5 259.584L214 185.195V104.617C214 90.2073 199.5 74.4264 180 63.1082C160.5 51.79 148.302 50.6135 129 50.4314C112.053 50.2716 89.1664 59.2514 82.1396 62.1902C80.7022 62.7914 79.3373 63.5261 78.0332 64.3787C63.2787 74.0253 51 84.8162 51 98.617L48.5 259.584C48.5 277.452 54.9825 297.939 69.3857 311.151L99.1172 339.117H98.9727V355.616C95.775 356.354 93.1984 357.207 91.5 358.117C82.1672 363.117 82.5 394.638 82.5 401.117C82.5005 407.596 95.0002 419.117 103.5 422.117C112 425.117 133.5 425.398 144 422.117C154.5 418.836 163 403.096 163 396.617C163 390.138 172 364.617 156.5 358.117C156.139 357.966 155.772 357.82 155.401 357.677V339.117H155.479L183 315.617Z" fill="#F3F3FF" fill-opacity="0.44"/>
<path d="M100 403.658C100 404.823 100.751 405.848 101.872 406.166C106.453 407.469 118.48 410.638 127 410.617C135.393 410.596 147.224 407.463 151.76 406.168C152.879 405.848 153.63 404.824 153.63 403.66V403.66C153.63 401.988 152.108 400.725 150.461 401.013C145.232 401.928 134.614 403.605 127 403.617C119.259 403.63 108.452 401.931 103.166 401.01C101.519 400.724 100 401.987 100 403.658V403.658Z" fill="#5D95C8"/>
<path d="M102.5 327.117L80.334 307.249" stroke="white" stroke-opacity="0.44" stroke-width="7.92441" stroke-linecap="round"/>
<path d="M69.8242 293.826L69.7033 293.683C62.4722 285.107 58.5061 274.251 58.5061 263.033V249.999" stroke="white" stroke-opacity="0.44" stroke-width="7.92441" stroke-linecap="round"/>
<ellipse opacity="0.55" cx="80.5" cy="46" rx="80.5" ry="46" transform="matrix(1 0 0 -1 52 142.617)" fill="#D9D9D9"/>
<rect x="40" y="4" width="66.4375" height="30" rx="3" fill="#444444"/>
<rect x="40.5" y="4.5" width="65.4375" height="29" rx="2.5" stroke="white" stroke-opacity="0.0980392"/>
<path d="M51.3438 16C51.2969 15.6042 51.1068 15.2969 50.7734 15.0781C50.4401 14.8594 50.0313 14.75 49.5469 14.75C49.1927 14.75 48.8828 14.8073 48.6172 14.9219C48.3542 15.0365 48.1484 15.194 48 15.3945C47.8542 15.5951 47.7813 15.8229 47.7813 16.0781C47.7813 16.2917 47.832 16.4753 47.9336 16.6289C48.0378 16.7799 48.1706 16.9062 48.332 17.0078C48.4935 17.1068 48.6628 17.1888 48.8398 17.2539C49.0169 17.3164 49.1797 17.3672 49.3281 17.4062L50.1406 17.625C50.349 17.6797 50.5807 17.7552 50.8359 17.8516C51.0938 17.9479 51.3398 18.0794 51.5742 18.2461C51.8112 18.4102 52.0065 18.6211 52.1602 18.8789C52.3138 19.1367 52.3906 19.4531 52.3906 19.8281C52.3906 20.2604 52.2773 20.651 52.0508 21C51.8268 21.349 51.4987 21.6263 51.0664 21.832C50.6367 22.0378 50.1146 22.1406 49.5 22.1406C48.9271 22.1406 48.431 22.0482 48.0117 21.8633C47.5951 21.6784 47.2669 21.4206 47.0273 21.0898C46.7904 20.7591 46.6563 20.375 46.625 19.9375H47.625C47.651 20.2396 47.7526 20.4896 47.9297 20.6875C48.1094 20.8828 48.3359 21.0286 48.6094 21.125C48.8854 21.2187 49.1823 21.2656 49.5 21.2656C49.8698 21.2656 50.2018 21.2057 50.4961 21.0859C50.7904 20.9635 51.0234 20.7943 51.1953 20.5781C51.3672 20.3594 51.4531 20.1042 51.4531 19.8125C51.4531 19.5469 51.3789 19.3307 51.2305 19.1641C51.082 18.9974 50.8867 18.862 50.6445 18.7578C50.4023 18.6536 50.1406 18.5625 49.8594 18.4844L48.875 18.2031C48.25 18.0234 47.7552 17.7669 47.3906 17.4336C47.026 17.1003 46.8438 16.6641 46.8438 16.125C46.8438 15.6771 46.9648 15.2865 47.207 14.9531C47.4518 14.6172 47.7799 14.3568 48.1914 14.1719C48.6055 13.9844 49.0677 13.8906 49.5781 13.8906C50.0938 13.8906 50.5521 13.9831 50.9531 14.168C51.3542 14.3503 51.6719 14.6003 51.9062 14.918C52.1432 15.2357 52.2682 15.5964 52.2813 16H51.3438ZM56.374 22.125C55.7959 22.125 55.2972 21.9974 54.8779 21.7422C54.4613 21.4844 54.1396 21.125 53.9131 20.6641C53.6891 20.2005 53.5771 19.6615 53.5771 19.0469C53.5771 18.4323 53.6891 17.8906 53.9131 17.4219C54.1396 16.9505 54.4548 16.5833 54.8584 16.3203C55.2646 16.0547 55.7386 15.9219 56.2803 15.9219C56.5928 15.9219 56.9014 15.974 57.2061 16.0781C57.5107 16.1823 57.7881 16.3516 58.0381 16.5859C58.2881 16.8177 58.4873 17.125 58.6357 17.5078C58.7842 17.8906 58.8584 18.362 58.8584 18.9219V19.3125H54.2334V18.5156H57.9209C57.9209 18.1771 57.8532 17.875 57.7178 17.6094C57.585 17.3437 57.3949 17.1341 57.1475 16.9805C56.9027 16.8268 56.6136 16.75 56.2803 16.75C55.9131 16.75 55.5954 16.8411 55.3271 17.0234C55.0615 17.2031 54.8571 17.4375 54.7139 17.7266C54.5706 18.0156 54.499 18.3255 54.499 18.6562V19.1875C54.499 19.6406 54.5771 20.0247 54.7334 20.3398C54.8923 20.6523 55.1123 20.8906 55.3936 21.0547C55.6748 21.2161 56.0016 21.2969 56.374 21.2969C56.6162 21.2969 56.835 21.263 57.0303 21.1953C57.2282 21.125 57.3988 21.0208 57.542 20.8828C57.6852 20.7422 57.7959 20.5677 57.874 20.3594L58.7646 20.6094C58.6709 20.9115 58.5133 21.1771 58.292 21.4062C58.0706 21.6328 57.7972 21.8099 57.4717 21.9375C57.1462 22.0625 56.7803 22.125 56.374 22.125ZM62.6982 22.125C62.1357 22.125 61.6514 21.9922 61.2451 21.7266C60.8389 21.4609 60.5264 21.0951 60.3076 20.6289C60.0889 20.1628 59.9795 19.6302 59.9795 19.0312C59.9795 18.4219 60.0915 17.8841 60.3154 17.418C60.542 16.9492 60.8571 16.5833 61.2607 16.3203C61.667 16.0547 62.141 15.9219 62.6826 15.9219C63.1045 15.9219 63.4847 16 63.8232 16.1562C64.1618 16.3125 64.4391 16.5312 64.6553 16.8125C64.8714 17.0937 65.0055 17.4219 65.0576 17.7969H64.1357C64.0654 17.5234 63.9092 17.2812 63.667 17.0703C63.4274 16.8568 63.1045 16.75 62.6982 16.75C62.3389 16.75 62.0238 16.8437 61.7529 17.0312C61.4847 17.2161 61.2751 17.4779 61.124 17.8164C60.9756 18.1523 60.9014 18.5469 60.9014 19C60.9014 19.4635 60.9743 19.8672 61.1201 20.2109C61.2686 20.5547 61.4769 20.8216 61.7451 21.0117C62.016 21.2018 62.3337 21.2969 62.6982 21.2969C62.9378 21.2969 63.1553 21.2552 63.3506 21.1719C63.5459 21.0885 63.7113 20.9688 63.8467 20.8125C63.9821 20.6562 64.0785 20.4687 64.1357 20.25H65.0576C65.0055 20.6042 64.8766 20.9232 64.6709 21.207C64.4678 21.4883 64.1982 21.7122 63.8623 21.8789C63.529 22.043 63.141 22.125 62.6982 22.125ZM69.0146 16V16.7812H65.9053V16H69.0146ZM66.8115 14.5625H67.7334V20.2812C67.7334 20.5417 67.7712 20.737 67.8467 20.8672C67.9248 20.9948 68.0238 21.0807 68.1436 21.125C68.266 21.1667 68.3949 21.1875 68.5303 21.1875C68.6318 21.1875 68.7152 21.1823 68.7803 21.1719C68.8454 21.1589 68.8975 21.1484 68.9365 21.1406L69.124 21.9687C69.0615 21.9922 68.9743 22.0156 68.8623 22.0391C68.7503 22.0651 68.6084 22.0781 68.4365 22.0781C68.1761 22.0781 67.9209 22.0221 67.6709 21.9102C67.4235 21.7982 67.2178 21.6276 67.0537 21.3984C66.8923 21.1693 66.8115 20.8802 66.8115 20.5312V14.5625ZM70.4014 22V16H71.3232V22H70.4014ZM70.8701 15C70.6904 15 70.5355 14.9388 70.4053 14.8164C70.2777 14.694 70.2139 14.5469 70.2139 14.375C70.2139 14.2031 70.2777 14.056 70.4053 13.9336C70.5355 13.8112 70.6904 13.75 70.8701 13.75C71.0498 13.75 71.2035 13.8112 71.3311 13.9336C71.4613 14.056 71.5264 14.2031 71.5264 14.375C71.5264 14.5469 71.4613 14.694 71.3311 14.8164C71.2035 14.9388 71.0498 15 70.8701 15ZM75.4492 22.125C74.9076 22.125 74.4323 21.9961 74.0234 21.7383C73.6172 21.4805 73.2995 21.1198 73.0703 20.6562C72.8438 20.1927 72.7305 19.651 72.7305 19.0312C72.7305 18.4062 72.8438 17.8607 73.0703 17.3945C73.2995 16.9284 73.6172 16.5664 74.0234 16.3086C74.4323 16.0508 74.9076 15.9219 75.4492 15.9219C75.9909 15.9219 76.4648 16.0508 76.8711 16.3086C77.2799 16.5664 77.5977 16.9284 77.8242 17.3945C78.0534 17.8607 78.168 18.4062 78.168 19.0312C78.168 19.651 78.0534 20.1927 77.8242 20.6562C77.5977 21.1198 77.2799 21.4805 76.8711 21.7383C76.4648 21.9961 75.9909 22.125 75.4492 22.125ZM75.4492 21.2969C75.8607 21.2969 76.1992 21.1914 76.4648 20.9805C76.7305 20.7695 76.9271 20.4922 77.0547 20.1484C77.1823 19.8047 77.2461 19.4323 77.2461 19.0312C77.2461 18.6302 77.1823 18.2565 77.0547 17.9102C76.9271 17.5638 76.7305 17.2839 76.4648 17.0703C76.1992 16.8568 75.8607 16.75 75.4492 16.75C75.0378 16.75 74.6992 16.8568 74.4336 17.0703C74.168 17.2839 73.9714 17.5638 73.8438 17.9102C73.7161 18.2565 73.6523 18.6302 73.6523 19.0312C73.6523 19.4323 73.7161 19.8047 73.8438 20.1484C73.9714 20.4922 74.168 20.7695 74.4336 20.9805C74.6992 21.1914 75.0378 21.2969 75.4492 21.2969ZM80.4971 18.3906V22H79.5752V16H80.4658V16.9375H80.5439C80.6846 16.6328 80.8981 16.388 81.1846 16.2031C81.471 16.0156 81.8408 15.9219 82.2939 15.9219C82.7002 15.9219 83.0557 16.0052 83.3604 16.1719C83.665 16.3359 83.902 16.5859 84.0713 16.9219C84.2406 17.2552 84.3252 17.6771 84.3252 18.1875V22H83.4033V18.25C83.4033 17.7786 83.2809 17.4115 83.0361 17.1484C82.7913 16.8828 82.4554 16.75 82.0283 16.75C81.734 16.75 81.471 16.8138 81.2393 16.9414C81.0101 17.069 80.8291 17.2552 80.6963 17.5C80.5635 17.7448 80.4971 18.0417 80.4971 18.3906ZM91.9004 14V22H90.9316V15.0156H90.8848L88.9316 16.3125V15.3281L90.9316 14H91.9004ZM94.0137 20.3594V19.5625L97.5293 14H98.1074V15.2344H97.7168L95.0605 19.4375V19.5H99.7949V20.3594H94.0137ZM97.7793 22V20.1172V19.7461V14H98.7012V22H97.7793Z" fill="white"/>
</svg>
