<svg width="200" height="462" viewBox="0 0 200 462" fill="none" xmlns="http://www.w3.org/2000/svg">
<path d="M99.9199 461.617C104.444 461.617 108.05 457.835 107.835 453.316L107.021 436.166C106.941 434.466 106.328 432.912 105.35 431.662H108.107C108.948 431.662 109.63 430.98 109.63 430.14C109.63 429.299 108.948 428.617 108.107 428.617H57.5225C56.6817 428.617 56 429.299 56 430.14C56 430.98 56.6817 431.662 57.5225 431.662H59.5752C58.6922 432.791 58.1061 434.169 57.9414 435.687L56.0791 452.837C55.5701 457.524 59.242 461.617 63.957 461.617H99.9199Z" fill="#445C8C"/>
<mask id="mask0_43_947" style="mask-type:luminance" maskUnits="userSpaceOnUse" x="0" y="0" width="178" height="446">
<path d="M152.613 316.146C167.034 301.71 175.134 282.851 175.342 263.223L177.097 97.8115V28.8154C177.097 12.9013 163.11 0.000227312 145.857 0H31.2393C13.9861 0.000100716 -2.35458e-05 12.9012 0 28.8154V259.445C0 279.179 7.98251 301.805 22.3857 316.396L58.9727 353.462H58.8271V419.828H55.2217C47.4643 419.828 41.1758 425.629 41.1758 432.784C41.1759 439.939 47.4644 445.74 55.2217 445.74H119.389C127.146 445.74 133.434 439.939 133.435 432.784C133.435 425.629 127.146 419.828 119.389 419.828H115.257V353.462H115.334L152.613 316.146Z" fill="white"/>
</mask>
<g mask="url(#mask0_43_947)">
<path d="M68.0003 216.617C66.2997 183.124 64.3236 161.203 55.22 130.118C59.8976 128.077 71.5888 121.029 79.3238 119.736C80.7527 119.497 82.3539 121.42 82.2778 124.041C82.1514 128.389 100.089 229.312 108 272.617L91.5 277.117C75.7432 277.614 79.4871 277.558 68.0003 274.992C67.9502 261.577 67.2205 230.051 68.0003 216.617Z" fill="white"/>
<path d="M116.74 269.084C116.708 266.363 105.729 265.265 92.2139 266.631C78.6998 267.998 67.5727 271.522 67.6038 274.242C67.635 276.963 78.8103 277.85 92.3255 276.483C105.84 275.117 116.771 271.804 116.74 269.084Z" fill="#EFE5D7"/>
<path d="M79.9041 188.766C80.2318 176.759 80.2464 158.272 77.6534 146.413C75.8217 138.036 76.1132 124.627 76.2744 120.068C100.692 113.775 135.949 129.271 135.949 129.271C131.542 144.232 118.911 177.904 118.552 201.731C118.515 204.202 118.469 206.673 118.399 209.145C118.282 213.299 115.07 264.241 116.5 270.118C108.004 275.222 108.5 273.151 94.9928 276.523C85.4441 276.699 75.8471 276.193 69.0001 273.618C74.5271 258.158 75.9848 242.262 77.1634 228.276C78.3853 213.528 79.5023 203.504 79.9041 188.766Z" fill="#EBDAB7"/>
<path d="M115.963 222.149C115.963 222.149 103.233 221.205 93.0246 221.039C82.972 220.875 67.0001 222.61 67.0001 222.61" stroke="#F32639" stroke-width="2.82817"/>
<path d="M116.571 224.83C116.571 224.83 104.134 222.542 94.1328 221.453C84.2837 220.38 67.2175 219.448 67.2175 219.448" stroke="#F32639" stroke-width="2.82817"/>
<path d="M116.345 225.49C116.345 225.49 99.5649 224.013 88.9759 223.963C78.5482 223.914 67.3809 224.457 67.3809 224.457" stroke="#F32639" stroke-width="2.82817"/>
<path d="M113.338 224.123C116.604 217.97 120.159 212.028 123.227 205.737C123.526 205.124 123.818 204.508 124.101 203.888C124.231 203.6 124.359 203.312 124.485 203.022C124.51 202.966 124.715 202.482 124.59 202.781C124.661 202.61 124.732 202.44 124.801 202.269C125.048 201.657 125.282 201.041 125.493 200.424C125.597 200.119 125.696 199.814 125.788 199.51C125.829 199.376 125.869 199.241 125.907 199.107C125.931 199.022 125.953 198.939 125.977 198.856C126 198.768 125.995 198.789 125.961 198.919C125.974 198.87 125.986 198.82 125.999 198.77C126.152 198.159 126.274 197.554 126.355 196.966C126.372 196.839 126.386 196.714 126.401 196.588C126.372 196.84 126.412 196.431 126.417 196.366C126.436 196.072 126.442 195.784 126.437 195.505C126.434 195.372 126.425 195.244 126.419 195.113C126.412 194.959 126.441 195.258 126.42 195.12C126.41 195.056 126.403 194.989 126.393 194.925C126.359 194.701 126.31 194.491 126.247 194.297C126.245 194.29 126.172 194.089 126.221 194.214C126.269 194.338 126.19 194.15 126.188 194.142C126.154 194.069 126.118 193.999 126.079 193.933C126.036 193.858 125.989 193.788 125.941 193.722C125.919 193.692 125.897 193.665 125.874 193.637C125.859 193.619 125.732 193.496 125.816 193.568C125.906 193.644 125.778 193.537 125.77 193.531C125.744 193.509 125.718 193.487 125.691 193.467C125.638 193.426 125.583 193.389 125.526 193.355C125.455 193.312 125.381 193.275 125.305 193.242C125.275 193.228 125.243 193.219 125.213 193.206C125.083 193.148 125.349 193.232 125.195 193.198C124.891 193.131 124.575 193.12 124.237 193.151C124.101 193.164 124.236 193.148 124.26 193.145C124.212 193.154 124.163 193.163 124.114 193.174C124.025 193.193 123.936 193.215 123.846 193.241C123.664 193.293 123.479 193.359 123.294 193.436C123.19 193.479 123.085 193.526 122.98 193.577C122.916 193.608 122.696 193.728 122.87 193.631C122.668 193.745 122.465 193.865 122.261 194.001C122.069 194.13 121.876 194.269 121.683 194.42C121.587 194.495 121.492 194.574 121.396 194.652C121.358 194.683 121.244 194.79 121.414 194.635C121.351 194.692 121.288 194.747 121.225 194.805C120.853 195.146 120.485 195.529 120.131 195.949C120.089 195.998 120.047 196.05 120.005 196.1C120.156 195.917 120.007 196.099 119.969 196.146C119.872 196.268 119.774 196.391 119.677 196.516C119.48 196.771 119.285 197.031 119.094 197.299C118.743 197.788 118.403 198.297 118.079 198.824C118.047 198.876 118.006 198.935 117.979 198.989C117.995 198.957 118.129 198.731 118.009 198.94C117.937 199.063 117.865 199.187 117.795 199.311C117.65 199.569 117.508 199.831 117.371 200.096C117.12 200.584 116.889 201.08 116.669 201.582C116.548 201.86 116.755 201.366 116.684 201.549C116.662 201.605 116.639 201.659 116.616 201.714C116.566 201.838 116.517 201.961 116.469 202.086C116.369 202.346 116.274 202.608 116.184 202.869C116.008 203.378 115.857 203.884 115.716 204.39C115.694 204.469 115.64 204.591 115.733 204.323C115.715 204.373 115.703 204.435 115.69 204.487C115.659 204.61 115.629 204.733 115.6 204.855C115.538 205.116 115.481 205.374 115.429 205.632C115.328 206.126 115.243 206.615 115.173 207.098C115.137 207.343 115.105 207.586 115.076 207.827C115.061 207.949 115.048 208.07 115.035 208.191C115.03 208.231 115.013 208.407 115.028 208.247C115.045 208.072 115.019 208.35 115.015 208.384C114.97 208.886 114.937 209.38 114.915 209.868C114.738 213.824 115.213 217.299 115.486 220.907C115.517 221.321 115.546 221.737 115.57 222.157C115.601 222.692 115.156 223.533 114.738 223.801C114.263 224.107 113.958 223.874 113.926 223.303C113.708 219.516 113.167 215.984 113.241 211.968C113.316 207.962 114.085 203.294 116.485 198.895C117.823 196.443 119.521 194.132 121.289 192.617C122.954 191.188 124.783 190.41 126.122 190.795C126.875 191.012 127.436 191.553 127.779 192.462C128.122 193.373 128.133 194.622 127.998 195.93C127.731 198.502 126.689 201.337 125.523 203.984C124.272 206.824 122.808 209.607 121.346 212.326C119.542 215.68 117.664 218.975 115.841 222.315C115.385 223.151 114.934 223.988 114.487 224.83C114.168 225.43 113.628 225.864 113.324 225.64C113.036 225.428 112.996 224.769 113.337 224.125L113.338 224.123Z" fill="#F32639"/>
<path d="M112.647 226.03C112.49 225.008 112.318 224 112.088 223.05C111.977 222.589 111.853 222.141 111.709 221.716C111.671 221.604 111.632 221.493 111.592 221.383C111.593 221.385 111.541 221.254 111.569 221.322C111.6 221.401 111.534 221.239 111.528 221.224C111.442 221.018 111.349 220.819 111.25 220.629C111.062 220.268 110.849 219.941 110.605 219.663C110.582 219.636 110.558 219.611 110.534 219.585C110.455 219.495 110.608 219.645 110.52 219.572C110.459 219.521 110.402 219.464 110.341 219.414C110.202 219.301 110.054 219.203 109.898 219.121C109.82 219.08 109.74 219.043 109.658 219.01C109.627 218.998 109.595 218.989 109.565 218.976C109.461 218.933 109.659 218.991 109.546 218.971C109.365 218.936 109.187 218.9 108.995 218.894C108.82 218.888 108.64 218.904 108.459 218.923C108.439 218.925 108.315 218.945 108.436 218.924C108.399 218.931 108.362 218.938 108.325 218.944C108.214 218.966 108.102 218.992 107.989 219.019C107.19 219.21 106.366 219.491 105.61 219.513C104.865 219.535 104.247 219.234 103.788 218.648C102.953 217.578 102.814 215.566 102.813 213.633C102.811 211.531 102.95 209.345 102.803 207.347C102.783 207.075 102.765 206.873 102.748 206.706C102.721 206.447 102.691 206.19 102.656 205.938C102.587 205.421 102.507 204.913 102.404 204.429C102.355 204.202 102.301 203.981 102.234 203.774C102.216 203.719 102.198 203.664 102.177 203.612C102.185 203.629 102.216 203.705 102.177 203.622C102.126 203.512 102.073 203.408 102.011 203.312C101.984 203.27 101.954 203.232 101.925 203.192C101.923 203.189 101.847 203.099 101.896 203.152C101.95 203.212 101.847 203.111 101.834 203.1C101.799 203.071 101.761 203.046 101.724 203.021C101.658 202.978 101.587 202.949 101.517 202.913C101.499 202.905 101.392 202.87 101.501 202.902C101.448 202.886 101.391 202.877 101.336 202.867C101.176 202.842 101.009 202.836 100.838 202.846C100.739 202.851 100.638 202.861 100.536 202.874C100.498 202.879 100.459 202.884 100.42 202.891C100.528 202.874 100.361 202.903 100.342 202.907C99.9349 202.989 99.519 203.107 99.1078 203.206C98.2785 203.406 97.4912 203.472 96.827 203.18C96.1478 202.881 95.7209 202.079 95.7255 200.89C95.7296 199.833 96.0561 198.62 96.1909 197.498C96.1987 197.436 96.2049 197.375 96.2117 197.314C96.2075 197.354 96.1927 197.538 96.2086 197.331C96.2165 197.226 96.2249 197.122 96.2314 197.017C96.2452 196.781 96.2522 196.549 96.2528 196.321C96.2527 196.108 96.2467 195.899 96.2349 195.695C96.2291 195.6 96.2214 195.506 96.2146 195.412C96.206 195.298 96.2184 195.456 96.2201 195.466C96.2102 195.389 96.2022 195.31 96.1918 195.233C96.1398 194.847 96.0659 194.483 95.9706 194.141C95.9227 193.969 95.8656 193.81 95.8114 193.645C95.7809 193.552 95.8265 193.681 95.8296 193.69C95.813 193.649 95.7963 193.608 95.7792 193.566C95.7402 193.476 95.6999 193.387 95.658 193.3C95.5125 193.002 95.3471 192.731 95.161 192.491C95.0776 192.382 94.9889 192.282 94.8978 192.184C95.0239 192.319 94.854 192.148 94.8277 192.124C94.7722 192.075 94.7158 192.028 94.6579 191.982C94.4339 191.809 94.1926 191.668 93.9347 191.562C93.8763 191.539 93.8173 191.518 93.7579 191.497C93.6366 191.454 93.7534 191.496 93.7764 191.502C93.741 191.493 93.7066 191.483 93.6707 191.475C93.5287 191.441 93.383 191.419 93.2335 191.406C93.1023 191.395 92.9684 191.392 92.8321 191.397C92.7538 191.401 92.6751 191.406 92.5949 191.415C92.5538 191.419 92.3031 191.46 92.4875 191.427C92.0911 191.498 91.7655 191.225 91.9129 190.529C92.0353 189.949 92.498 189.144 92.9225 189.067C95.7481 188.558 97.6422 190.75 97.8766 194.508C97.9324 195.407 97.8687 196.41 97.7055 197.444C97.6161 198.009 97.4917 198.589 97.4137 199.15C97.4036 199.222 97.3946 199.294 97.3855 199.365C97.3916 199.317 97.3978 199.174 97.384 199.39C97.3764 199.51 97.3702 199.628 97.3695 199.743C97.369 199.796 97.3872 200.074 97.3678 199.916C97.3832 200.048 97.4239 200.154 97.4427 200.281C97.4632 200.421 97.3898 200.184 97.4409 200.289C97.4559 200.321 97.4704 200.353 97.4858 200.384C97.5285 200.465 97.5809 200.531 97.6284 200.605C97.6463 200.633 97.7259 200.698 97.6235 200.608C97.6543 200.634 97.6845 200.662 97.7163 200.687C97.7812 200.737 97.849 200.781 97.9206 200.818C97.9932 200.855 98.0687 200.886 98.1466 200.912C98.0208 200.871 98.2087 200.92 98.2485 200.927C98.4197 200.955 98.5974 200.965 98.7803 200.958C98.8719 200.955 98.9655 200.947 99.0591 200.938C99.0962 200.934 99.3177 200.899 99.1813 200.924C99.3785 200.888 99.5794 200.837 99.7807 200.786C100.248 200.668 100.714 200.55 101.171 200.476C102.05 200.335 102.836 200.464 103.364 201.138C103.857 201.769 104.038 202.858 104.193 203.883C104.503 205.933 104.555 208.162 104.491 210.505C104.463 211.509 104.437 212.513 104.473 213.473C104.481 213.701 104.493 213.926 104.51 214.147C104.514 214.206 104.54 214.463 104.52 214.283C104.534 214.41 104.548 214.536 104.565 214.658C104.622 215.072 104.703 215.465 104.817 215.82C104.83 215.862 104.937 216.111 104.857 215.942C104.889 216.011 104.918 216.084 104.952 216.151C105.028 216.304 105.113 216.445 105.209 216.57C105.233 216.602 105.257 216.632 105.282 216.662C105.298 216.68 105.384 216.767 105.314 216.7C105.248 216.638 105.32 216.703 105.331 216.711C105.359 216.736 105.388 216.761 105.417 216.784C105.538 216.878 105.67 216.947 105.807 217.009C105.917 217.06 105.837 217.025 105.811 217.017C105.851 217.03 105.895 217.038 105.937 217.047C106.012 217.062 106.088 217.071 106.166 217.078C106.356 217.092 106.553 217.084 106.755 217.058C106.791 217.054 106.827 217.048 106.863 217.044C106.986 217.026 106.76 217.064 106.885 217.04C106.971 217.023 107.058 217.005 107.143 216.985C107.343 216.939 107.544 216.886 107.745 216.832C108.582 216.609 109.436 216.374 110.174 216.499C110.954 216.63 111.587 217.053 112.113 217.689C113.118 218.904 113.625 220.876 113.991 222.871C114.082 223.365 114.163 223.869 114.241 224.376C114.317 224.868 114.099 225.646 113.644 226.09C113.232 226.491 112.729 226.552 112.648 226.024L112.647 226.03Z" fill="#F32639"/>
<path d="M113.056 224.688C113.095 224.476 113.132 224.266 113.162 224.058C113.179 223.947 113.194 223.837 113.207 223.728C113.212 223.682 113.217 223.636 113.223 223.589C113.245 223.42 113.21 223.767 113.222 223.603C113.252 223.198 113.275 222.8 113.273 222.414C113.272 222.23 113.266 222.05 113.258 221.872C113.253 221.776 113.245 221.682 113.239 221.587C113.238 221.569 113.227 221.433 113.237 221.554C113.247 221.677 113.231 221.503 113.228 221.482C113.189 221.125 113.132 220.784 113.062 220.457C112.992 220.124 112.907 219.805 112.811 219.499C112.764 219.35 112.715 219.205 112.663 219.061C112.653 219.034 112.57 218.814 112.604 218.899C112.64 218.991 112.597 218.882 112.592 218.87C112.574 218.827 112.557 218.784 112.539 218.742C112.292 218.15 112.009 217.604 111.705 217.089C111.112 216.083 110.43 215.212 109.793 214.271C109.135 213.297 108.548 212.226 108.091 210.982C107.652 209.786 107.364 208.378 107.379 206.747C107.386 205.933 107.472 205.047 107.644 204.146C107.854 203.049 108.207 201.925 108.587 200.805C108.788 200.214 108.99 199.623 109.163 199.032C109.181 198.971 109.275 198.634 109.241 198.762C109.204 198.901 109.287 198.573 109.299 198.522C109.353 198.293 109.399 198.065 109.44 197.84C109.478 197.631 109.51 197.424 109.537 197.219C109.545 197.159 109.578 196.842 109.555 197.089C109.564 196.982 109.573 196.875 109.58 196.768C109.608 196.358 109.612 195.961 109.594 195.583C109.589 195.484 109.581 195.389 109.575 195.292C109.569 195.176 109.579 195.328 109.581 195.341C109.576 195.301 109.572 195.261 109.567 195.22C109.546 195.034 109.517 194.853 109.484 194.677C109.419 194.338 109.331 194.025 109.227 193.728C109.215 193.693 109.164 193.589 109.231 193.738C109.217 193.708 109.205 193.675 109.192 193.644C109.166 193.583 109.138 193.523 109.11 193.464C109.043 193.327 108.971 193.198 108.894 193.075C108.822 192.962 108.746 192.855 108.665 192.755C108.622 192.701 108.575 192.651 108.531 192.599C108.476 192.534 108.558 192.626 108.563 192.631C108.534 192.605 108.508 192.578 108.48 192.553C108.283 192.376 108.067 192.234 107.832 192.131C107.782 192.108 107.73 192.09 107.679 192.07C107.553 192.022 107.774 192.088 107.64 192.058C107.471 192.02 107.298 191.994 107.121 191.979C106.407 191.919 105.66 191.953 105.055 191.615C103.918 190.978 103.412 189.285 103.111 187.524C103.038 187.096 102.976 186.658 102.915 186.219C102.847 185.72 103.053 184.953 103.513 184.504C103.919 184.108 104.436 184.034 104.509 184.569C104.633 185.466 104.765 186.359 104.976 187.169C105.025 187.36 105.079 187.545 105.139 187.724C105.166 187.806 105.194 187.888 105.223 187.967C105.21 187.932 105.172 187.847 105.237 187.998C105.259 188.048 105.28 188.098 105.303 188.147C105.454 188.475 105.639 188.742 105.839 189C105.892 189.068 105.839 189 105.827 188.991C105.86 189.022 105.894 189.054 105.928 189.083C105.98 189.127 106.033 189.167 106.088 189.206C106.22 189.297 106.36 189.369 106.51 189.421C106.421 189.39 106.536 189.428 106.547 189.43C106.583 189.438 106.619 189.446 106.656 189.453C106.741 189.469 106.827 189.482 106.915 189.492C107.09 189.511 107.27 189.519 107.449 189.527C108.094 189.556 108.723 189.624 109.252 189.936C111.109 191.027 111.795 194.467 110.785 198.357C110.458 199.611 109.984 200.86 109.596 202.117C109.549 202.271 109.505 202.423 109.461 202.575C109.459 202.579 109.399 202.795 109.435 202.664C109.467 202.547 109.423 202.708 109.42 202.721C109.364 202.947 109.312 203.171 109.266 203.396C109.176 203.835 109.114 204.261 109.064 204.684C109.088 204.486 109.067 204.654 109.06 204.748C109.052 204.85 109.045 204.952 109.04 205.052C109.029 205.254 109.023 205.451 109.022 205.647C109.02 206.026 109.038 206.388 109.068 206.743C109.054 206.568 109.067 206.722 109.076 206.802C109.087 206.892 109.099 206.981 109.111 207.07C109.137 207.248 109.167 207.422 109.2 207.594C109.265 207.929 109.342 208.25 109.432 208.559C109.478 208.721 109.529 208.88 109.581 209.036C109.603 209.103 109.626 209.169 109.65 209.235C109.668 209.288 109.758 209.523 109.694 209.361C109.809 209.653 109.932 209.934 110.062 210.207C110.329 210.764 110.625 211.282 110.939 211.775C111.559 212.749 112.255 213.612 112.871 214.592C114.127 216.587 115.203 219.101 114.836 222.745C114.791 223.197 114.728 223.656 114.64 224.128C114.524 224.747 114.054 225.466 113.63 225.591C113.208 225.716 112.932 225.353 113.055 224.693L113.056 224.688Z" fill="#F32639"/>
<path d="M113.935 224.464C114.238 224.564 114.382 224.608 114.707 224.692C115.001 224.769 115.3 224.836 115.601 224.896C116.18 225.01 116.771 225.092 117.372 225.142C117.975 225.192 118.588 225.211 119.212 225.197C119.37 225.193 119.532 225.175 119.694 225.16C119.845 225.146 119.505 225.201 119.662 225.166C119.704 225.157 119.745 225.15 119.787 225.141C119.871 225.123 119.956 225.102 120.042 225.079C120.382 224.985 120.732 224.849 121.085 224.68C121.165 224.642 121.256 224.612 121.338 224.554C121.074 224.743 121.385 224.527 121.456 224.486C121.644 224.378 121.834 224.262 122.024 224.137C122.394 223.895 122.766 223.623 123.135 223.327C123.233 223.249 123.331 223.169 123.428 223.087C123.461 223.06 123.493 223.032 123.526 223.005C123.703 222.856 123.336 223.173 123.513 223.016C123.709 222.843 123.904 222.667 124.099 222.483C124.474 222.128 124.847 221.751 125.213 221.355C125.405 221.147 125.596 220.934 125.784 220.716C125.863 220.625 125.942 220.533 126.019 220.441C126.066 220.386 126.113 220.328 126.159 220.273C126.297 220.109 125.978 220.498 126.193 220.232C126.891 219.368 127.561 218.435 128.184 217.442C128.264 217.315 128.341 217.186 128.42 217.059C128.535 216.873 128.368 217.149 128.359 217.162C128.399 217.103 128.437 217.032 128.473 216.969C128.623 216.713 128.77 216.452 128.911 216.189C129.184 215.684 129.441 215.166 129.678 214.641C129.733 214.52 129.785 214.398 129.839 214.277C129.949 214.028 129.715 214.585 129.814 214.334C129.841 214.267 129.869 214.201 129.895 214.135C130.001 213.872 130.101 213.608 130.194 213.342C130.279 213.101 130.358 212.86 130.431 212.62C130.464 212.51 130.496 212.402 130.526 212.293C130.54 212.242 130.577 212.144 130.579 212.098C130.526 212.303 130.515 212.343 130.547 212.217C130.558 212.174 130.569 212.131 130.58 212.087C130.7 211.591 130.791 211.101 130.849 210.627C130.856 210.572 130.874 210.489 130.87 210.44C130.889 210.687 130.856 210.596 130.864 210.484C130.871 210.383 130.879 210.28 130.884 210.179C130.897 209.933 130.899 209.693 130.892 209.461C130.888 209.343 130.88 209.228 130.874 209.111C130.863 208.924 130.915 209.018 130.878 209.134C130.888 209.101 130.865 209.021 130.861 208.992C130.832 208.751 130.791 208.52 130.739 208.3C130.692 208.097 130.637 207.903 130.574 207.718C130.559 207.675 130.542 207.634 130.528 207.589C130.493 207.468 130.609 207.781 130.538 207.613C130.487 207.496 130.438 207.379 130.383 207.268C130.311 207.121 130.234 206.979 130.148 206.851C130.108 206.791 130.067 206.735 130.023 206.682C130.009 206.664 129.995 206.648 129.98 206.631C129.864 206.486 130.09 206.726 130.001 206.648C129.824 206.495 129.64 206.378 129.429 206.293C129.318 206.248 129.614 206.334 129.494 206.313C129.466 206.309 129.439 206.3 129.41 206.295C129.364 206.286 129.316 206.28 129.268 206.275C129.147 206.264 129.021 206.271 128.893 206.283C128.692 206.3 129.071 206.239 128.885 206.284C128.821 206.3 128.756 206.314 128.691 206.334C128.559 206.373 128.424 206.424 128.289 206.484C128.231 206.509 128.173 206.538 128.115 206.565C128.045 206.598 127.934 206.694 128.182 206.528C128.146 206.551 128.11 206.568 128.075 206.587C127.929 206.671 127.783 206.762 127.636 206.862C127.497 206.956 127.358 207.058 127.219 207.165C127.142 207.225 127.065 207.286 126.987 207.349C126.899 207.422 126.663 207.68 126.921 207.401C126.624 207.722 126.291 207.973 125.988 208.279C125.646 208.624 125.309 208.989 124.976 209.366C124.818 209.546 124.66 209.73 124.503 209.915C124.43 210.001 124.358 210.088 124.286 210.174C124.235 210.236 124.073 210.419 124.311 210.144C124.252 210.212 124.194 210.287 124.136 210.358C123.795 210.781 123.459 211.213 123.127 211.654C122.438 212.566 121.767 213.512 121.109 214.477C120.434 215.47 119.773 216.483 119.125 217.512C118.816 218.002 118.511 218.494 118.209 218.99C118.068 219.221 117.928 219.453 117.788 219.686C117.751 219.749 117.713 219.812 117.676 219.874C117.535 220.107 117.843 219.591 117.704 219.826C117.631 219.949 117.557 220.073 117.485 220.196C116.535 221.805 115.608 223.443 114.74 225.12C114.591 225.409 114.444 225.7 114.3 225.993C113.999 226.605 113.429 227.017 113.137 226.803C112.835 226.579 112.829 225.944 113.151 225.288C113.932 223.7 114.795 222.153 115.67 220.635C116.909 218.484 118.198 216.372 119.54 214.337C120.936 212.219 122.393 210.19 123.931 208.34C125.204 206.811 126.614 205.329 127.985 204.508C128.663 204.103 129.317 203.848 129.919 203.839C130.534 203.831 131.024 204.121 131.42 204.577C131.896 205.125 132.219 205.992 132.392 206.921C132.571 207.883 132.579 208.978 132.418 210.186C131.793 214.868 128.569 219.955 125.563 223.187C123.963 224.908 122.263 226.277 120.626 227.053C119.841 227.425 119.086 227.61 118.381 227.626C117.079 227.657 115.823 227.545 114.62 227.296C113.984 227.164 113.365 226.99 112.757 226.79C112.421 226.679 112.467 225.844 112.771 225.276C113.136 224.593 113.573 224.346 113.933 224.466L113.935 224.464Z" fill="#F32639"/>
<path d="M136 129.617C136.147 119.019 117.239 110.548 94.8383 109.805C72.4394 109.064 53.8217 117.787 53.6743 128.385C53.527 138.983 71.902 147.442 94.3028 148.183C116.702 148.924 135.852 140.213 136 129.617Z" fill="#C4BAAB"/>
</g>
<path d="M136.315 318.397C140.271 312.491 145.07 307.213 149.85 301.95C160.555 290.164 168.33 276.107 168.5 261.585V81.3994C168.5 66.9897 173 46 150.5 31.5C128 17 108.803 13.5 89.5 13.5C57.5269 13.5 37.0344 24.9807 37 25C17.0001 33.3807 7.00006 48.9998 7 74.1553C7.00003 99.3109 7 261.585 7 261.585C7.00004 277.482 13.3185 295.451 24.8555 308.526C27.7085 311.76 30.7479 314.835 33.46 318.188L58.9727 349.726H58.8271L58.9727 395.617H55.3662C47.6089 395.617 41.1758 421.408 41.1758 427.887C41.1758 434.366 47.4643 439.617 55.2217 439.617H119.389C127.146 439.617 133.435 434.365 133.435 427.887C133.435 421.408 127.291 395.617 119.533 395.617H115.401L115.257 349.726H115.334L136.315 318.397Z" fill="#F3F3FF" fill-opacity="0.44"/>
<path d="M61 432.658C61 433.823 61.7512 434.848 62.8716 435.166C67.4533 436.469 79.4796 439.638 88 439.617C96.3925 439.596 108.224 436.463 112.76 435.168C113.879 434.848 114.63 433.824 114.63 432.66V432.66C114.63 430.988 113.108 429.725 111.461 430.013C106.232 430.928 95.6142 432.605 88 432.617C80.2585 432.63 69.4518 430.931 64.1656 430.01C62.5194 429.724 61 430.987 61 432.658V432.658Z" fill="#5D95C8"/>
<path d="M71.8631 408.426V352.604C71.8631 346.613 69.6013 340.843 65.5302 336.448L40.334 309.248" stroke="white" stroke-opacity="0.44" stroke-width="7.92441" stroke-linecap="round"/>
<path d="M29.8242 295.826L29.7033 295.683C22.4722 287.107 18.5061 276.251 18.5061 265.033V251.999" stroke="white" stroke-opacity="0.44" stroke-width="7.92441" stroke-linecap="round"/>
<ellipse opacity="0.55" cx="80.5" cy="48.5" rx="80.5" ry="48.5" transform="matrix(1 0 0 -1 8 110.617)" fill="#D9D9D9"/>
</svg>
